<svg width="360" height="640" viewBox="0 0 360 640" fill="none" xmlns="http://www.w3.org/2000/svg">
<rect width="360" height="640" fill="#D6EBFE"/>
<path d="M0 24H360V80H0V24Z" fill="#D6EBFE"/>
<path d="M27 58H45V56H27V58ZM27 53H45V51H27V53ZM27 46V48H45V46H27Z" fill="#193F78"/>
<path d="M330 56V51C330 47.93 328.36 45.36 325.5 44.68V44C325.5 43.17 324.83 42.5 324 42.5C323.17 42.5 322.5 43.17 322.5 44V44.68C319.63 45.36 318 47.92 318 51V56L316 58V59H332V58L330 56ZM324 62C325.1 62 326 61.1 326 60H322C322 61.1 322.89 62 324 62Z" fill="#193F78"/>
<path d="M145.907 60.5958C144.871 61.5765 142.662 62.5557 140.274 62.5557C136.533 62.5557 135.046 60.4616 135 57.1641V38.6681C135 38.2669 135.27 38 135.676 38H138.11C138.471 38 138.785 38.2669 138.785 38.6681V43.3474H143.834C144.195 43.3474 144.51 43.6586 144.51 44.1054V45.6656C144.51 46.111 144.195 46.3794 143.834 46.3794H138.787V56.4061C138.787 57.9221 138.967 59.5251 141.04 59.5251C141.852 59.5251 143.069 59.214 144.15 58.1448C144.375 57.9221 144.872 57.8321 145.142 58.2333L146.043 59.7935C146.177 60.0605 146.177 60.3274 145.907 60.5958Z" fill="#193F78"/>
<path d="M162.468 45.1303L161.341 46.9575C161.16 47.2245 160.845 47.3144 160.529 47.136C159.943 46.6463 158.726 45.9768 157.194 45.9768C155.121 45.9768 152.912 47.5042 152.912 50.6162V61.5308C152.912 61.9319 152.597 62.1988 152.236 62.1988H149.802C149.397 62.1988 149.127 61.9319 149.127 61.5308V44.1054C149.127 43.66 149.397 43.3474 149.802 43.3474H151.289C151.74 43.3474 152.011 43.7043 152.19 44.1054L152.46 44.8191C153.542 43.7499 155.209 42.9919 157.463 42.9919C159.897 42.9919 161.339 43.7499 162.24 44.3295C162.604 44.5508 162.649 44.9076 162.468 45.1303Z" fill="#193F78"/>
<path d="M184.783 52.8402C184.783 47.3586 189.471 42.9919 194.879 42.9919C197.943 42.9919 200.738 44.1953 202.541 46.3351C202.722 46.6021 202.722 46.9147 202.496 47.1816L201.099 48.6077C200.829 48.8746 200.423 48.8746 200.198 48.562C199.252 47.3144 197.674 46.0225 194.97 46.0225C191.41 46.0225 188.479 48.9189 188.479 52.8402C188.479 56.5388 191.41 59.5708 194.97 59.5708C198.035 59.5708 199.838 57.6537 200.38 56.8971C200.514 56.6745 200.966 56.496 201.326 56.8072L202.587 58.0548C202.857 58.3218 202.857 58.6344 202.678 58.9013C200.966 61.2182 198.171 62.5557 194.881 62.5557C189.471 62.5557 184.783 58.2333 184.783 52.8402Z" fill="#193F78"/>
<path d="M223.94 44.2839L212.887 65.9132C212.796 66.0917 212.572 66.2701 212.301 66.2701H210.047C209.64 66.2701 209.191 65.869 209.461 65.3337L211.59 61.1297L203.702 44.2839C203.521 43.927 203.748 43.3489 204.288 43.3489H206.721C207.082 43.3489 207.307 43.5716 207.487 44.0169L213.482 57.3868L220.468 43.75C220.557 43.5273 220.782 43.3489 221.099 43.3489H223.308C223.713 43.3489 224.165 43.75 223.94 44.2839Z" fill="#193F78"/>
<path d="M183.416 59.7521L180.958 57.7193C183.363 53.6781 182.534 48.3964 178.776 45.2902C174.594 41.8342 168.369 42.3852 164.873 46.5207C161.378 50.6561 161.935 56.8115 166.118 60.2674C169.876 63.3722 175.281 63.2409 178.876 60.1832L181.335 62.2145C181.678 62.4986 182.189 62.4529 182.477 62.1132L183.519 60.8784C183.805 60.5415 183.76 60.0362 183.416 59.7521ZM179.461 53.3041L177.704 54.1149C177.429 54.242 177.32 54.5689 177.461 54.8329L178.374 56.5245C178.583 56.9114 178.244 57.3653 177.808 57.2811L175.905 56.9157C175.607 56.8586 175.323 57.0598 175.283 57.3553L175.015 59.2539C174.955 59.6893 174.411 59.8591 174.107 59.538L172.785 58.1362C172.578 57.9178 172.229 57.9149 172.02 58.1305L170.676 59.5123C170.368 59.8277 169.827 59.6493 169.772 59.2139L169.535 57.3111C169.498 57.0142 169.217 56.8086 168.92 56.8614L167.011 57.1969C166.574 57.274 166.243 56.8143 166.459 56.4303L167.398 54.753C167.544 54.4918 167.439 54.162 167.167 54.0321L165.423 53.1942C165.023 53.0029 165.029 52.439 165.431 52.2535L167.188 51.4427C167.462 51.3156 167.572 50.9887 167.43 50.7246L166.516 49.0345C166.307 48.6476 166.646 48.1937 167.082 48.2779L168.985 48.6433C169.282 48.7004 169.567 48.4992 169.607 48.2037L169.874 46.3051C169.935 45.8697 170.479 45.6999 170.782 46.021L172.105 47.4228C172.311 47.6412 172.661 47.6441 172.87 47.4285L174.214 46.0482C174.522 45.7313 175.063 45.9111 175.118 46.3465L175.355 48.2494C175.392 48.5463 175.672 48.7518 175.97 48.699L177.878 48.3636C178.316 48.2865 178.646 48.7461 178.431 49.1301L177.491 50.8074C177.346 51.0687 177.451 51.3984 177.722 51.5283L179.466 52.3662C179.868 52.5547 179.863 53.1185 179.461 53.3041Z" fill="#193F78"/>
<path fill-rule="evenodd" clip-rule="evenodd" d="M0 0V24H360V0H0Z" fill="#193F78"/>
<mask id="mask0" mask-type="alpha" maskUnits="userSpaceOnUse" x="250" y="6" width="16" height="12">
<path fill-rule="evenodd" clip-rule="evenodd" d="M250 6L258 18L266 6H250Z" fill="white"/>
</mask>
<g mask="url(#mask0)">
<path fill-rule="evenodd" clip-rule="evenodd" d="M258 6C251.4 6 246 11.4 246 18C246 24.6 251.4 30 258 30C264.6 30 270 24.6 270 18C270 11.4 264.6 6 258 6ZM258 27C253 27 249 23 249 18C249 13 253 9 258 9C263 9 267 13 267 18C267 23 263 27 258 27Z" fill="white" fill-opacity="0.3"/>
<path fill-rule="evenodd" clip-rule="evenodd" d="M258 9C253 9 249 13 249 18C249 23 253 27 258 27C263 27 267 23 267 18C267 13 263 9 258 9ZM258 24C254.7 24 252 21.3 252 18C252 14.7 254.7 12 258 12C261.3 12 264 14.7 264 18C264 21.3 261.3 24 258 24Z" fill="white" fill-opacity="0.9"/>
<path fill-rule="evenodd" clip-rule="evenodd" d="M258 12C254.7 12 252 14.7 252 18C252 21.3 254.7 24 258 24C261.3 24 264 21.3 264 18C264 14.7 261.3 12 258 12ZM258 21C256.3 21 255 19.7 255 18C255 16.3 256.3 15 258 15C259.7 15 261 16.3 261 18C261 19.7 259.7 21 258 21Z" fill="white" fill-opacity="0.9"/>
<path fill-rule="evenodd" clip-rule="evenodd" d="M258 21C259.657 21 261 19.6569 261 18C261 16.3431 259.657 15 258 15C256.343 15 255 16.3431 255 18C255 19.6569 256.343 21 258 21Z" fill="white" fill-opacity="0.9"/>
</g>
<mask id="mask1" mask-type="alpha" maskUnits="userSpaceOnUse" x="276" y="6" width="12" height="12">
<path fill-rule="evenodd" clip-rule="evenodd" d="M288 18V6L276 18H288Z" fill="white"/>
</mask>
<g mask="url(#mask1)">
<path fill-rule="evenodd" clip-rule="evenodd" d="M285 6V18H288V6H285Z" fill="white" fill-opacity="0.3"/>
<path fill-rule="evenodd" clip-rule="evenodd" d="M282 6V18H285V6H282Z" fill="white" fill-opacity="0.3"/>
<path fill-rule="evenodd" clip-rule="evenodd" d="M279 6V18H282V6H279Z" fill="white" fill-opacity="0.9"/>
<path fill-rule="evenodd" clip-rule="evenodd" d="M276 6V18H279V6H276Z" fill="white" fill-opacity="0.9"/>
</g>
<mask id="mask2" mask-type="alpha" maskUnits="userSpaceOnUse" x="302" y="5" width="8" height="13">
<path fill-rule="evenodd" clip-rule="evenodd" d="M309 6H308V5H304V6H303C302.4 6 302 6.4 302 7V17C302 17.6 302.4 18 303 18H309C309.6 18 310 17.6 310 17V7C310 6.4 309.6 6 309 6Z" fill="white"/>
</mask>
<g mask="url(#mask2)">
<path fill-rule="evenodd" clip-rule="evenodd" d="M302 15V18H310V15H302Z" fill="white" fill-opacity="0.9"/>
<path fill-rule="evenodd" clip-rule="evenodd" d="M302 12V15H310V12H302Z" fill="white" fill-opacity="0.9"/>
<path fill-rule="evenodd" clip-rule="evenodd" d="M302 9V12H310V9H302Z" fill="white" fill-opacity="0.3"/>
<path fill-rule="evenodd" clip-rule="evenodd" d="M302 6V9H310V6H302Z" fill="white" fill-opacity="0.3"/>
<path fill-rule="evenodd" clip-rule="evenodd" d="M304 5V6H308V5H304Z" fill="white" fill-opacity="0.3"/>
</g>
<g opacity="0.9">
<path d="M323.627 17H322.447V9.17334L320.079 10.043V8.97656L323.443 7.71338H323.627V17ZM333.124 17H327.068V16.1558L330.267 12.6011C330.741 12.0636 331.067 11.6278 331.245 11.2935C331.427 10.9549 331.518 10.6058 331.518 10.2461C331.518 9.76367 331.372 9.368 331.08 9.05908C330.788 8.75016 330.398 8.5957 329.912 8.5957C329.328 8.5957 328.873 8.76286 328.547 9.09717C328.225 9.42725 328.064 9.88851 328.064 10.481H326.89C326.89 9.63037 327.163 8.94271 327.709 8.41797C328.259 7.89323 328.993 7.63086 329.912 7.63086C330.771 7.63086 331.45 7.85726 331.949 8.31006C332.449 8.75863 332.698 9.35742 332.698 10.1064C332.698 11.0163 332.118 12.0996 330.959 13.3564L328.483 16.0415H333.124V17ZM334.45 16.3843C334.45 16.1812 334.509 16.0119 334.628 15.8765C334.751 15.741 334.933 15.6733 335.174 15.6733C335.415 15.6733 335.597 15.741 335.72 15.8765C335.847 16.0119 335.91 16.1812 335.91 16.3843C335.91 16.5789 335.847 16.7419 335.72 16.873C335.597 17.0042 335.415 17.0698 335.174 17.0698C334.933 17.0698 334.751 17.0042 334.628 16.873C334.509 16.7419 334.45 16.5789 334.45 16.3843ZM334.457 10.7793C334.457 10.5762 334.516 10.4069 334.634 10.2715C334.757 10.1361 334.939 10.0684 335.18 10.0684C335.421 10.0684 335.603 10.1361 335.726 10.2715C335.853 10.4069 335.917 10.5762 335.917 10.7793C335.917 10.974 335.853 11.1369 335.726 11.2681C335.603 11.3993 335.421 11.4648 335.18 11.4648C334.939 11.4648 334.757 11.3993 334.634 11.2681C334.516 11.1369 334.457 10.974 334.457 10.7793ZM339.224 11.8076H340.106C340.66 11.7992 341.096 11.6532 341.414 11.3696C341.731 11.0861 341.89 10.7031 341.89 10.2207C341.89 9.13737 341.35 8.5957 340.271 8.5957C339.763 8.5957 339.357 8.7417 339.052 9.03369C338.752 9.32145 338.602 9.70443 338.602 10.1826H337.427C337.427 9.45052 337.694 8.84326 338.227 8.36084C338.764 7.87419 339.446 7.63086 340.271 7.63086C341.143 7.63086 341.826 7.86149 342.321 8.32275C342.816 8.78402 343.064 9.42513 343.064 10.2461C343.064 10.6481 342.933 11.0374 342.67 11.4141C342.412 11.7907 342.059 12.0721 341.61 12.2583C342.118 12.4191 342.51 12.6857 342.785 13.0581C343.064 13.4305 343.204 13.8854 343.204 14.4229C343.204 15.2523 342.933 15.9103 342.391 16.397C341.849 16.8836 341.145 17.127 340.277 17.127C339.41 17.127 338.703 16.8921 338.157 16.4224C337.616 15.9526 337.345 15.3327 337.345 14.5625H338.525C338.525 15.0492 338.684 15.4385 339.001 15.7305C339.319 16.0225 339.744 16.1685 340.277 16.1685C340.844 16.1685 341.278 16.0203 341.579 15.7241C341.879 15.4279 342.029 15.0026 342.029 14.4482C342.029 13.9108 341.864 13.4982 341.534 13.2104C341.204 12.9227 340.728 12.7746 340.106 12.7661H339.224V11.8076ZM350.611 13.0581C350.611 14.4334 350.376 15.4554 349.907 16.124C349.437 16.7926 348.703 17.127 347.704 17.127C346.718 17.127 345.988 16.8011 345.514 16.1494C345.04 15.4935 344.795 14.516 344.778 13.2168V11.6489C344.778 10.2905 345.013 9.28125 345.482 8.62109C345.952 7.96094 346.688 7.63086 347.691 7.63086C348.686 7.63086 349.418 7.95036 349.888 8.58936C350.357 9.22412 350.599 10.2059 350.611 11.5347V13.0581ZM349.437 11.4521C349.437 10.4577 349.297 9.73405 349.018 9.28125C348.739 8.82422 348.297 8.5957 347.691 8.5957C347.09 8.5957 346.653 8.8221 346.377 9.2749C346.102 9.7277 345.961 10.4238 345.952 11.3633V13.2422C345.952 14.2409 346.096 14.9793 346.384 15.4575C346.676 15.9315 347.116 16.1685 347.704 16.1685C348.284 16.1685 348.713 15.9442 348.993 15.4956C349.276 15.047 349.424 14.3403 349.437 13.3755V11.4521Z" fill="white"/>
</g>
<rect width="360" height="640" fill="black" fill-opacity="0.5"/>
<rect width="294" height="640" fill="#193F78"/>
<path d="M26.142 240.706C26.562 241.066 27.024 241.36 27.528 241.588C28.044 241.816 28.548 241.93 29.04 241.93C29.592 241.93 30 241.828 30.264 241.624C30.54 241.42 30.678 241.144 30.678 240.796C30.678 240.616 30.636 240.46 30.552 240.328C30.48 240.196 30.366 240.082 30.21 239.986C30.066 239.878 29.886 239.782 29.67 239.698C29.466 239.602 29.238 239.5 28.986 239.392L27.456 238.744C27.156 238.624 26.862 238.468 26.574 238.276C26.298 238.084 26.046 237.862 25.818 237.61C25.602 237.346 25.428 237.046 25.296 236.71C25.164 236.362 25.098 235.972 25.098 235.54C25.098 235.06 25.2 234.61 25.404 234.19C25.608 233.758 25.896 233.386 26.268 233.074C26.64 232.75 27.078 232.498 27.582 232.318C28.098 232.138 28.662 232.048 29.274 232.048C29.958 232.048 30.63 232.18 31.29 232.444C31.962 232.708 32.55 233.092 33.054 233.596L31.704 235.27C31.32 234.97 30.936 234.742 30.552 234.586C30.168 234.418 29.742 234.334 29.274 234.334C28.818 234.334 28.452 234.43 28.176 234.622C27.912 234.802 27.78 235.06 27.78 235.396C27.78 235.576 27.822 235.732 27.906 235.864C28.002 235.984 28.128 236.098 28.284 236.206C28.452 236.302 28.644 236.398 28.86 236.494C29.076 236.578 29.31 236.674 29.562 236.782L31.074 237.394C31.794 237.682 32.358 238.078 32.766 238.582C33.186 239.086 33.396 239.752 33.396 240.58C33.396 241.072 33.294 241.54 33.09 241.984C32.898 242.416 32.61 242.8 32.226 243.136C31.854 243.46 31.392 243.724 30.84 243.928C30.288 244.12 29.664 244.216 28.968 244.216C28.2 244.216 27.432 244.078 26.664 243.802C25.908 243.514 25.23 243.088 24.63 242.524L26.142 240.706ZM35.172 231.382H37.818V234.478L37.692 236.08C38.028 235.78 38.418 235.504 38.862 235.252C39.306 234.988 39.834 234.856 40.446 234.856C41.418 234.856 42.12 235.174 42.552 235.81C42.996 236.446 43.218 237.328 43.218 238.456V244H40.572V238.798C40.572 238.15 40.482 237.706 40.302 237.466C40.134 237.226 39.858 237.106 39.474 237.106C39.138 237.106 38.85 237.184 38.61 237.34C38.37 237.484 38.106 237.694 37.818 237.97V244H35.172V231.382ZM45.1312 241.516C45.1312 240.58 45.5272 239.848 46.3192 239.32C47.1112 238.792 48.3892 238.438 50.1532 238.258C50.1292 237.862 50.0092 237.55 49.7932 237.322C49.5772 237.082 49.2292 236.962 48.7492 236.962C48.3652 236.962 47.9812 237.034 47.5972 237.178C47.2132 237.322 46.8052 237.52 46.3732 237.772L45.4372 236.026C46.0132 235.678 46.6132 235.396 47.2372 235.18C47.8732 234.964 48.5452 234.856 49.2532 234.856C50.4052 234.856 51.2812 235.186 51.8812 235.846C52.4932 236.494 52.7992 237.508 52.7992 238.888V244H50.6392L50.4412 243.082H50.3872C50.0032 243.418 49.5952 243.694 49.1632 243.91C48.7432 244.114 48.2812 244.216 47.7772 244.216C47.3692 244.216 47.0032 244.144 46.6792 244C46.3552 243.868 46.0792 243.682 45.8512 243.442C45.6232 243.19 45.4432 242.902 45.3112 242.578C45.1912 242.254 45.1312 241.9 45.1312 241.516ZM47.6512 241.318C47.6512 241.606 47.7412 241.822 47.9212 241.966C48.1132 242.098 48.3652 242.164 48.6772 242.164C48.9892 242.164 49.2532 242.098 49.4692 241.966C49.6852 241.834 49.9132 241.648 50.1532 241.408V239.842C49.2052 239.974 48.5512 240.166 48.1912 240.418C47.8312 240.67 47.6512 240.97 47.6512 241.318ZM55.0704 235.072H57.2304L57.4104 236.638H57.4824C57.8064 236.026 58.1964 235.576 58.6524 235.288C59.1084 235 59.5644 234.856 60.0204 234.856C60.2724 234.856 60.4764 234.874 60.6324 234.91C60.8004 234.934 60.9504 234.976 61.0824 235.036L60.6504 237.322C60.4824 237.274 60.3264 237.238 60.1824 237.214C60.0384 237.19 59.8704 237.178 59.6784 237.178C59.3424 237.178 58.9884 237.298 58.6164 237.538C58.2564 237.778 57.9564 238.204 57.7164 238.816V244H55.0704V235.072ZM61.5445 239.536C61.5445 238.816 61.6645 238.168 61.9045 237.592C62.1445 237.004 62.4565 236.512 62.8405 236.116C63.2365 235.708 63.6865 235.396 64.1905 235.18C64.6945 234.964 65.2165 234.856 65.7565 234.856C66.3925 234.856 66.9445 234.964 67.4125 235.18C67.8925 235.396 68.2885 235.696 68.6005 236.08C68.9245 236.464 69.1645 236.92 69.3205 237.448C69.4765 237.964 69.5545 238.528 69.5545 239.14C69.5545 239.38 69.5425 239.602 69.5185 239.806C69.4945 239.998 69.4705 240.148 69.4465 240.256H64.1005C64.2205 240.94 64.4845 241.438 64.8925 241.75C65.3125 242.05 65.8225 242.2 66.4225 242.2C67.0585 242.2 67.7005 242.002 68.3485 241.606L69.2305 243.208C68.7745 243.52 68.2645 243.766 67.7005 243.946C67.1485 244.126 66.6025 244.216 66.0625 244.216C65.4265 244.216 64.8325 244.114 64.2805 243.91C63.7285 243.694 63.2485 243.388 62.8405 242.992C62.4325 242.584 62.1145 242.092 61.8865 241.516C61.6585 240.94 61.5445 240.28 61.5445 239.536ZM67.3045 238.618C67.3045 238.102 67.1905 237.682 66.9625 237.358C66.7345 237.034 66.3505 236.872 65.8105 236.872C65.3905 236.872 65.0185 237.016 64.6945 237.304C64.3825 237.58 64.1785 238.018 64.0825 238.618H67.3045ZM77.503 238.078C77.503 239.338 77.737 240.316 78.205 241.012C78.673 241.708 79.309 242.056 80.113 242.056C80.917 242.056 81.553 241.708 82.021 241.012C82.489 240.316 82.723 239.338 82.723 238.078C82.723 236.902 82.489 235.984 82.021 235.324C81.553 234.664 80.917 234.334 80.113 234.334C79.309 234.334 78.673 234.664 78.205 235.324C77.737 235.984 77.503 236.902 77.503 238.078ZM86.053 246.826C85.837 246.934 85.549 247.024 85.189 247.096C84.841 247.168 84.439 247.204 83.983 247.204C82.735 247.204 81.679 246.916 80.815 246.34C79.963 245.764 79.327 245.014 78.907 244.09C78.283 243.958 77.713 243.73 77.197 243.406C76.693 243.07 76.261 242.644 75.901 242.128C75.541 241.612 75.265 241.018 75.073 240.346C74.881 239.662 74.785 238.906 74.785 238.078C74.785 237.118 74.911 236.266 75.163 235.522C75.427 234.766 75.793 234.136 76.261 233.632C76.729 233.116 77.287 232.726 77.935 232.462C78.595 232.186 79.321 232.048 80.113 232.048C80.905 232.048 81.625 232.186 82.273 232.462C82.933 232.726 83.497 233.116 83.965 233.632C84.433 234.148 84.793 234.784 85.045 235.54C85.309 236.284 85.441 237.13 85.441 238.078C85.441 239.662 85.105 240.964 84.433 241.984C83.761 243.004 82.855 243.676 81.715 244C81.991 244.408 82.363 244.69 82.831 244.846C83.299 245.014 83.785 245.098 84.289 245.098C84.541 245.098 84.775 245.074 84.991 245.026C85.219 244.99 85.417 244.942 85.585 244.882L86.053 246.826ZM90.2937 237.664H91.6617C92.3577 237.664 92.8857 237.52 93.2457 237.232C93.6177 236.932 93.8037 236.494 93.8037 235.918C93.8037 235.342 93.6177 234.94 93.2457 234.712C92.8857 234.484 92.3577 234.37 91.6617 234.37H90.2937V237.664ZM94.0017 244L91.7517 239.77H90.2937V244H87.6477V232.264H91.8777C92.5017 232.264 93.0837 232.324 93.6237 232.444C94.1757 232.564 94.6557 232.768 95.0637 233.056C95.4717 233.332 95.7957 233.704 96.0357 234.172C96.2757 234.64 96.3957 235.222 96.3957 235.918C96.3957 236.782 96.2037 237.496 95.8197 238.06C95.4477 238.612 94.9437 239.026 94.3077 239.302L96.9717 244H94.0017ZM101.746 239.536C101.746 238.792 101.872 238.132 102.124 237.556C102.376 236.968 102.712 236.476 103.132 236.08C103.564 235.684 104.062 235.384 104.626 235.18C105.19 234.964 105.778 234.856 106.39 234.856C106.942 234.856 107.44 234.952 107.884 235.144C108.328 235.324 108.7 235.57 109 235.882L107.794 237.52C107.374 237.172 106.96 236.998 106.552 236.998C105.904 236.998 105.394 237.226 105.022 237.682C104.65 238.138 104.464 238.756 104.464 239.536C104.464 240.316 104.65 240.934 105.022 241.39C105.406 241.846 105.886 242.074 106.462 242.074C106.786 242.074 107.08 242.008 107.344 241.876C107.608 241.744 107.848 241.594 108.064 241.426L109.126 243.1C108.694 243.484 108.214 243.766 107.686 243.946C107.158 244.126 106.648 244.216 106.156 244.216C105.532 244.216 104.95 244.114 104.41 243.91C103.882 243.694 103.42 243.388 103.024 242.992C102.628 242.596 102.316 242.11 102.088 241.534C101.86 240.946 101.746 240.28 101.746 239.536ZM109.638 239.536C109.638 238.792 109.758 238.132 109.998 237.556C110.238 236.968 110.556 236.476 110.952 236.08C111.36 235.684 111.828 235.384 112.356 235.18C112.884 234.964 113.43 234.856 113.994 234.856C114.558 234.856 115.098 234.964 115.614 235.18C116.142 235.384 116.604 235.684 117 236.08C117.408 236.476 117.732 236.968 117.972 237.556C118.212 238.132 118.332 238.792 118.332 239.536C118.332 240.28 118.212 240.946 117.972 241.534C117.732 242.11 117.408 242.596 117 242.992C116.604 243.388 116.142 243.694 115.614 243.91C115.098 244.114 114.558 244.216 113.994 244.216C113.43 244.216 112.884 244.114 112.356 243.91C111.828 243.694 111.36 243.388 110.952 242.992C110.556 242.596 110.238 242.11 109.998 241.534C109.758 240.946 109.638 240.28 109.638 239.536ZM112.356 239.536C112.356 240.316 112.488 240.934 112.752 241.39C113.028 241.846 113.442 242.074 113.994 242.074C114.534 242.074 114.942 241.846 115.218 241.39C115.494 240.934 115.632 240.316 115.632 239.536C115.632 238.756 115.494 238.138 115.218 237.682C114.942 237.226 114.534 236.998 113.994 236.998C113.442 236.998 113.028 237.226 112.752 237.682C112.488 238.138 112.356 238.756 112.356 239.536ZM119.677 239.536C119.677 238.804 119.779 238.15 119.983 237.574C120.199 236.998 120.475 236.512 120.811 236.116C121.159 235.708 121.555 235.396 121.999 235.18C122.455 234.964 122.917 234.856 123.385 234.856C123.889 234.856 124.303 234.94 124.627 235.108C124.951 235.276 125.269 235.504 125.581 235.792L125.473 234.424V231.382H128.119V244H125.959L125.779 243.118H125.707C125.395 243.43 125.029 243.694 124.609 243.91C124.189 244.114 123.763 244.216 123.331 244.216C122.779 244.216 122.275 244.108 121.819 243.892C121.375 243.676 120.991 243.37 120.667 242.974C120.355 242.566 120.109 242.074 119.929 241.498C119.761 240.922 119.677 240.268 119.677 239.536ZM122.395 239.5C122.395 240.388 122.533 241.036 122.809 241.444C123.097 241.852 123.499 242.056 124.015 242.056C124.303 242.056 124.561 241.996 124.789 241.876C125.029 241.756 125.257 241.546 125.473 241.246V237.592C125.233 237.376 124.987 237.226 124.735 237.142C124.483 237.058 124.237 237.016 123.997 237.016C123.577 237.016 123.205 237.22 122.881 237.628C122.557 238.024 122.395 238.648 122.395 239.5ZM129.941 239.536C129.941 238.816 130.061 238.168 130.301 237.592C130.541 237.004 130.853 236.512 131.237 236.116C131.633 235.708 132.083 235.396 132.587 235.18C133.091 234.964 133.613 234.856 134.153 234.856C134.789 234.856 135.341 234.964 135.809 235.18C136.289 235.396 136.685 235.696 136.997 236.08C137.321 236.464 137.561 236.92 137.717 237.448C137.873 237.964 137.951 238.528 137.951 239.14C137.951 239.38 137.939 239.602 137.915 239.806C137.891 239.998 137.867 240.148 137.843 240.256H132.497C132.617 240.94 132.881 241.438 133.289 241.75C133.709 242.05 134.219 242.2 134.819 242.2C135.455 242.2 136.097 242.002 136.745 241.606L137.627 243.208C137.171 243.52 136.661 243.766 136.097 243.946C135.545 244.126 134.999 244.216 134.459 244.216C133.823 244.216 133.229 244.114 132.677 243.91C132.125 243.694 131.645 243.388 131.237 242.992C130.829 242.584 130.511 242.092 130.283 241.516C130.055 240.94 129.941 240.28 129.941 239.536ZM135.701 238.618C135.701 238.102 135.587 237.682 135.359 237.358C135.131 237.034 134.747 236.872 134.207 236.872C133.787 236.872 133.415 237.016 133.091 237.304C132.779 237.58 132.575 238.018 132.479 238.618H135.701Z" fill="white"/>
<path d="M25.386 177.264H28.032V181.782H32.082V177.264H34.746V189H32.082V184.104H28.032V189H25.386V177.264ZM36.7769 184.536C36.7769 183.792 36.8969 183.132 37.1369 182.556C37.3769 181.968 37.6949 181.476 38.0909 181.08C38.4989 180.684 38.9669 180.384 39.4949 180.18C40.0229 179.964 40.5689 179.856 41.1329 179.856C41.6969 179.856 42.2369 179.964 42.7529 180.18C43.2809 180.384 43.7429 180.684 44.1389 181.08C44.5469 181.476 44.8709 181.968 45.1109 182.556C45.3509 183.132 45.4709 183.792 45.4709 184.536C45.4709 185.28 45.3509 185.946 45.1109 186.534C44.8709 187.11 44.5469 187.596 44.1389 187.992C43.7429 188.388 43.2809 188.694 42.7529 188.91C42.2369 189.114 41.6969 189.216 41.1329 189.216C40.5689 189.216 40.0229 189.114 39.4949 188.91C38.9669 188.694 38.4989 188.388 38.0909 187.992C37.6949 187.596 37.3769 187.11 37.1369 186.534C36.8969 185.946 36.7769 185.28 36.7769 184.536ZM39.4949 184.536C39.4949 185.316 39.6269 185.934 39.8909 186.39C40.1669 186.846 40.5809 187.074 41.1329 187.074C41.6729 187.074 42.0809 186.846 42.3569 186.39C42.6329 185.934 42.7709 185.316 42.7709 184.536C42.7709 183.756 42.6329 183.138 42.3569 182.682C42.0809 182.226 41.6729 181.998 41.1329 181.998C40.5809 181.998 40.1669 182.226 39.8909 182.682C39.6269 183.138 39.4949 183.756 39.4949 184.536ZM47.2833 180.072H49.4433L49.6233 181.224H49.6953C50.0673 180.852 50.4633 180.534 50.8833 180.27C51.3033 179.994 51.8073 179.856 52.3953 179.856C53.0313 179.856 53.5413 179.988 53.9253 180.252C54.3213 180.504 54.6333 180.87 54.8613 181.35C55.2573 180.942 55.6713 180.594 56.1033 180.306C56.5473 180.006 57.0693 179.856 57.6693 179.856C58.6293 179.856 59.3313 180.18 59.7753 180.828C60.2313 181.464 60.4593 182.34 60.4593 183.456V189H57.8133V183.798C57.8133 183.15 57.7233 182.706 57.5433 182.466C57.3753 182.226 57.0993 182.106 56.7153 182.106C56.2713 182.106 55.7613 182.394 55.1853 182.97V189H52.5393V183.798C52.5393 183.15 52.4493 182.706 52.2693 182.466C52.1013 182.226 51.8253 182.106 51.4413 182.106C50.9853 182.106 50.4813 182.394 49.9293 182.97V189H47.2833V180.072ZM62.1949 184.536C62.1949 183.816 62.3149 183.168 62.5549 182.592C62.7949 182.004 63.1069 181.512 63.4909 181.116C63.8869 180.708 64.3369 180.396 64.8409 180.18C65.3449 179.964 65.8669 179.856 66.4069 179.856C67.0429 179.856 67.5949 179.964 68.0629 180.18C68.5429 180.396 68.9389 180.696 69.2509 181.08C69.5749 181.464 69.8149 181.92 69.9709 182.448C70.1269 182.964 70.2049 183.528 70.2049 184.14C70.2049 184.38 70.1929 184.602 70.1689 184.806C70.1449 184.998 70.1209 185.148 70.0969 185.256H64.7509C64.8709 185.94 65.1349 186.438 65.5429 186.75C65.9629 187.05 66.4729 187.2 67.0729 187.2C67.7089 187.2 68.3509 187.002 68.9989 186.606L69.8809 188.208C69.4249 188.52 68.9149 188.766 68.3509 188.946C67.7989 189.126 67.2529 189.216 66.7129 189.216C66.0769 189.216 65.4829 189.114 64.9309 188.91C64.3789 188.694 63.8989 188.388 63.4909 187.992C63.0829 187.584 62.7649 187.092 62.5369 186.516C62.3089 185.94 62.1949 185.28 62.1949 184.536ZM67.9549 183.618C67.9549 183.102 67.8409 182.682 67.6129 182.358C67.3849 182.034 67.0009 181.872 66.4609 181.872C66.0409 181.872 65.6689 182.016 65.3449 182.304C65.0329 182.58 64.8289 183.018 64.7329 183.618H67.9549Z" fill="white"/>
<path d="M28.032 347.664H29.4C30.096 347.664 30.624 347.52 30.984 347.232C31.356 346.932 31.542 346.494 31.542 345.918C31.542 345.342 31.356 344.94 30.984 344.712C30.624 344.484 30.096 344.37 29.4 344.37H28.032V347.664ZM31.74 354L29.49 349.77H28.032V354H25.386V342.264H29.616C30.24 342.264 30.822 342.324 31.362 342.444C31.914 342.564 32.394 342.768 32.802 343.056C33.21 343.332 33.534 343.704 33.774 344.172C34.014 344.64 34.134 345.222 34.134 345.918C34.134 346.782 33.942 347.496 33.558 348.06C33.186 348.612 32.682 349.026 32.046 349.302L34.71 354H31.74ZM35.564 349.536C35.564 348.816 35.684 348.168 35.924 347.592C36.164 347.004 36.476 346.512 36.86 346.116C37.256 345.708 37.706 345.396 38.21 345.18C38.714 344.964 39.236 344.856 39.776 344.856C40.412 344.856 40.964 344.964 41.432 345.18C41.912 345.396 42.308 345.696 42.62 346.08C42.944 346.464 43.184 346.92 43.34 347.448C43.496 347.964 43.574 348.528 43.574 349.14C43.574 349.38 43.562 349.602 43.538 349.806C43.514 349.998 43.49 350.148 43.466 350.256H38.12C38.24 350.94 38.504 351.438 38.912 351.75C39.332 352.05 39.842 352.2 40.442 352.2C41.078 352.2 41.72 352.002 42.368 351.606L43.25 353.208C42.794 353.52 42.284 353.766 41.72 353.946C41.168 354.126 40.622 354.216 40.082 354.216C39.446 354.216 38.852 354.114 38.3 353.91C37.748 353.694 37.268 353.388 36.86 352.992C36.452 352.584 36.134 352.092 35.906 351.516C35.678 350.94 35.564 350.28 35.564 349.536ZM41.324 348.618C41.324 348.102 41.21 347.682 40.982 347.358C40.754 347.034 40.37 346.872 39.83 346.872C39.41 346.872 39.038 347.016 38.714 347.304C38.402 347.58 38.198 348.018 38.102 348.618H41.324ZM48.0484 354.702V357.312H45.4024V345.072H47.5624L47.7424 345.954H47.8144C48.1624 345.642 48.5524 345.384 48.9844 345.18C49.4284 344.964 49.8844 344.856 50.3524 344.856C50.8924 344.856 51.3784 344.964 51.8104 345.18C52.2424 345.396 52.6084 345.702 52.9084 346.098C53.2084 346.494 53.4364 346.974 53.5924 347.538C53.7604 348.09 53.8444 348.708 53.8444 349.392C53.8444 350.16 53.7364 350.844 53.5204 351.444C53.3164 352.032 53.0344 352.536 52.6744 352.956C52.3264 353.364 51.9244 353.676 51.4684 353.892C51.0244 354.108 50.5624 354.216 50.0824 354.216C49.6984 354.216 49.3264 354.138 48.9664 353.982C48.6064 353.814 48.2704 353.58 47.9584 353.28L48.0484 354.702ZM48.0484 351.48C48.2884 351.696 48.5284 351.846 48.7684 351.93C49.0084 352.014 49.2424 352.056 49.4704 352.056C49.9264 352.056 50.3164 351.852 50.6404 351.444C50.9644 351.024 51.1264 350.352 51.1264 349.428C51.1264 347.82 50.6104 347.016 49.5784 347.016C49.0624 347.016 48.5524 347.286 48.0484 347.826V351.48ZM55.1988 349.536C55.1988 348.792 55.3188 348.132 55.5588 347.556C55.7988 346.968 56.1168 346.476 56.5128 346.08C56.9208 345.684 57.3888 345.384 57.9168 345.18C58.4448 344.964 58.9908 344.856 59.5548 344.856C60.1188 344.856 60.6588 344.964 61.1748 345.18C61.7028 345.384 62.1648 345.684 62.5608 346.08C62.9688 346.476 63.2928 346.968 63.5328 347.556C63.7728 348.132 63.8928 348.792 63.8928 349.536C63.8928 350.28 63.7728 350.946 63.5328 351.534C63.2928 352.11 62.9688 352.596 62.5608 352.992C62.1648 353.388 61.7028 353.694 61.1748 353.91C60.6588 354.114 60.1188 354.216 59.5548 354.216C58.9908 354.216 58.4448 354.114 57.9168 353.91C57.3888 353.694 56.9208 353.388 56.5128 352.992C56.1168 352.596 55.7988 352.11 55.5588 351.534C55.3188 350.946 55.1988 350.28 55.1988 349.536ZM57.9168 349.536C57.9168 350.316 58.0488 350.934 58.3128 351.39C58.5888 351.846 59.0028 352.074 59.5548 352.074C60.0948 352.074 60.5028 351.846 60.7788 351.39C61.0548 350.934 61.1928 350.316 61.1928 349.536C61.1928 348.756 61.0548 348.138 60.7788 347.682C60.5028 347.226 60.0948 346.998 59.5548 346.998C59.0028 346.998 58.5888 347.226 58.3128 347.682C58.0488 348.138 57.9168 348.756 57.9168 349.536ZM65.7052 345.072H67.8652L68.0452 346.638H68.1172C68.4412 346.026 68.8312 345.576 69.2872 345.288C69.7432 345 70.1992 344.856 70.6552 344.856C70.9072 344.856 71.1112 344.874 71.2672 344.91C71.4352 344.934 71.5852 344.976 71.7172 345.036L71.2852 347.322C71.1172 347.274 70.9612 347.238 70.8172 347.214C70.6732 347.19 70.5052 347.178 70.3132 347.178C69.9772 347.178 69.6232 347.298 69.2512 347.538C68.8912 347.778 68.5912 348.204 68.3512 348.816V354H65.7052V345.072ZM73.237 347.142H72.013V345.18L73.381 345.072L73.687 342.696H75.883V345.072H78.025V347.142H75.883V350.724C75.883 351.228 75.985 351.594 76.189 351.822C76.405 352.038 76.687 352.146 77.035 352.146C77.179 352.146 77.323 352.128 77.467 352.092C77.623 352.056 77.761 352.014 77.881 351.966L78.295 353.892C78.055 353.964 77.773 354.036 77.449 354.108C77.125 354.18 76.747 354.216 76.315 354.216C75.763 354.216 75.289 354.132 74.893 353.964C74.509 353.796 74.191 353.562 73.939 353.262C73.699 352.962 73.519 352.602 73.399 352.182C73.291 351.75 73.237 351.276 73.237 350.76V347.142ZM83.5118 345.072H85.6718L85.8518 346.224H85.9238C86.2958 345.852 86.6918 345.534 87.1118 345.27C87.5318 344.994 88.0358 344.856 88.6238 344.856C89.2598 344.856 89.7698 344.988 90.1538 345.252C90.5498 345.504 90.8618 345.87 91.0898 346.35C91.4858 345.942 91.8998 345.594 92.3318 345.306C92.7758 345.006 93.2978 344.856 93.8978 344.856C94.8578 344.856 95.5598 345.18 96.0038 345.828C96.4598 346.464 96.6878 347.34 96.6878 348.456V354H94.0418V348.798C94.0418 348.15 93.9518 347.706 93.7718 347.466C93.6038 347.226 93.3278 347.106 92.9438 347.106C92.4998 347.106 91.9898 347.394 91.4138 347.97V354H88.7678V348.798C88.7678 348.15 88.6778 347.706 88.4978 347.466C88.3298 347.226 88.0538 347.106 87.6698 347.106C87.2138 347.106 86.7098 347.394 86.1578 347.97V354H83.5118V345.072ZM99.1434 355.296C99.2274 355.32 99.3234 355.344 99.4314 355.368C99.5394 355.392 99.6414 355.404 99.7374 355.404C100.181 355.404 100.523 355.296 100.763 355.08C101.003 354.864 101.183 354.582 101.303 354.234L101.429 353.766L97.9914 345.072H100.655L101.933 348.906C102.065 349.314 102.185 349.728 102.293 350.148C102.401 350.568 102.515 351 102.635 351.444H102.707C102.803 351.024 102.899 350.604 102.995 350.184C103.103 349.752 103.211 349.326 103.319 348.906L104.399 345.072H106.937L103.841 354.09C103.625 354.654 103.397 355.146 103.157 355.566C102.929 355.998 102.659 356.352 102.347 356.628C102.047 356.916 101.699 357.132 101.303 357.276C100.919 357.42 100.463 357.492 99.9354 357.492C99.6594 357.492 99.4254 357.474 99.2334 357.438C99.0414 357.414 98.8554 357.372 98.6754 357.312L99.1434 355.296ZM112.076 341.382H114.722V344.478L114.596 346.08C114.932 345.78 115.322 345.504 115.766 345.252C116.21 344.988 116.738 344.856 117.35 344.856C118.322 344.856 119.024 345.174 119.456 345.81C119.9 346.446 120.122 347.328 120.122 348.456V354H117.476V348.798C117.476 348.15 117.386 347.706 117.206 347.466C117.038 347.226 116.762 347.106 116.378 347.106C116.042 347.106 115.754 347.184 115.514 347.34C115.274 347.484 115.01 347.694 114.722 347.97V354H112.076V341.382ZM121.837 349.536C121.837 348.816 121.957 348.168 122.197 347.592C122.437 347.004 122.749 346.512 123.133 346.116C123.529 345.708 123.979 345.396 124.483 345.18C124.987 344.964 125.509 344.856 126.049 344.856C126.685 344.856 127.237 344.964 127.705 345.18C128.185 345.396 128.581 345.696 128.893 346.08C129.217 346.464 129.457 346.92 129.613 347.448C129.769 347.964 129.847 348.528 129.847 349.14C129.847 349.38 129.835 349.602 129.811 349.806C129.787 349.998 129.763 350.148 129.739 350.256H124.393C124.513 350.94 124.777 351.438 125.185 351.75C125.605 352.05 126.115 352.2 126.715 352.2C127.351 352.2 127.993 352.002 128.641 351.606L129.523 353.208C129.067 353.52 128.557 353.766 127.993 353.946C127.441 354.126 126.895 354.216 126.355 354.216C125.719 354.216 125.125 354.114 124.573 353.91C124.021 353.694 123.541 353.388 123.133 352.992C122.725 352.584 122.407 352.092 122.179 351.516C121.951 350.94 121.837 350.28 121.837 349.536ZM127.597 348.618C127.597 348.102 127.483 347.682 127.255 347.358C127.027 347.034 126.643 346.872 126.103 346.872C125.683 346.872 125.311 347.016 124.987 347.304C124.675 347.58 124.471 348.018 124.375 348.618H127.597ZM131.159 351.516C131.159 350.58 131.555 349.848 132.347 349.32C133.139 348.792 134.417 348.438 136.181 348.258C136.157 347.862 136.037 347.55 135.821 347.322C135.605 347.082 135.257 346.962 134.777 346.962C134.393 346.962 134.009 347.034 133.625 347.178C133.241 347.322 132.833 347.52 132.401 347.772L131.465 346.026C132.041 345.678 132.641 345.396 133.265 345.18C133.901 344.964 134.573 344.856 135.281 344.856C136.433 344.856 137.309 345.186 137.909 345.846C138.521 346.494 138.827 347.508 138.827 348.888V354H136.667L136.469 353.082H136.415C136.031 353.418 135.623 353.694 135.191 353.91C134.771 354.114 134.309 354.216 133.805 354.216C133.397 354.216 133.031 354.144 132.707 354C132.383 353.868 132.107 353.682 131.879 353.442C131.651 353.19 131.471 352.902 131.339 352.578C131.219 352.254 131.159 351.9 131.159 351.516ZM133.679 351.318C133.679 351.606 133.769 351.822 133.949 351.966C134.141 352.098 134.393 352.164 134.705 352.164C135.017 352.164 135.281 352.098 135.497 351.966C135.713 351.834 135.941 351.648 136.181 351.408V349.842C135.233 349.974 134.579 350.166 134.219 350.418C133.859 350.67 133.679 350.97 133.679 351.318ZM141.098 341.382H143.744V351.336C143.744 351.612 143.792 351.804 143.888 351.912C143.996 352.02 144.104 352.074 144.212 352.074C144.272 352.074 144.32 352.074 144.356 352.074C144.404 352.074 144.464 352.062 144.536 352.038L144.86 354C144.716 354.06 144.53 354.108 144.302 354.144C144.086 354.192 143.828 354.216 143.528 354.216C143.072 354.216 142.688 354.144 142.376 354C142.064 353.856 141.812 353.658 141.62 353.406C141.44 353.142 141.308 352.83 141.224 352.47C141.14 352.098 141.098 351.684 141.098 351.228V341.382ZM146.608 347.142H145.384V345.18L146.752 345.072L147.058 342.696H149.254V345.072H151.396V347.142H149.254V350.724C149.254 351.228 149.356 351.594 149.56 351.822C149.776 352.038 150.058 352.146 150.406 352.146C150.55 352.146 150.694 352.128 150.838 352.092C150.994 352.056 151.132 352.014 151.252 351.966L151.666 353.892C151.426 353.964 151.144 354.036 150.82 354.108C150.496 354.18 150.118 354.216 149.686 354.216C149.134 354.216 148.66 354.132 148.264 353.964C147.88 353.796 147.562 353.562 147.31 353.262C147.07 352.962 146.89 352.602 146.77 352.182C146.662 351.75 146.608 351.276 146.608 350.76V347.142ZM153.139 341.382H155.785V344.478L155.659 346.08C155.995 345.78 156.385 345.504 156.829 345.252C157.273 344.988 157.801 344.856 158.413 344.856C159.385 344.856 160.087 345.174 160.519 345.81C160.963 346.446 161.185 347.328 161.185 348.456V354H158.539V348.798C158.539 348.15 158.449 347.706 158.269 347.466C158.101 347.226 157.825 347.106 157.441 347.106C157.105 347.106 156.817 347.184 156.577 347.34C156.337 347.484 156.073 347.694 155.785 347.97V354H153.139V341.382Z" fill="white"/>
<path d="M26.142 295.706C26.562 296.066 27.024 296.36 27.528 296.588C28.044 296.816 28.548 296.93 29.04 296.93C29.592 296.93 30 296.828 30.264 296.624C30.54 296.42 30.678 296.144 30.678 295.796C30.678 295.616 30.636 295.46 30.552 295.328C30.48 295.196 30.366 295.082 30.21 294.986C30.066 294.878 29.886 294.782 29.67 294.698C29.466 294.602 29.238 294.5 28.986 294.392L27.456 293.744C27.156 293.624 26.862 293.468 26.574 293.276C26.298 293.084 26.046 292.862 25.818 292.61C25.602 292.346 25.428 292.046 25.296 291.71C25.164 291.362 25.098 290.972 25.098 290.54C25.098 290.06 25.2 289.61 25.404 289.19C25.608 288.758 25.896 288.386 26.268 288.074C26.64 287.75 27.078 287.498 27.582 287.318C28.098 287.138 28.662 287.048 29.274 287.048C29.958 287.048 30.63 287.18 31.29 287.444C31.962 287.708 32.55 288.092 33.054 288.596L31.704 290.27C31.32 289.97 30.936 289.742 30.552 289.586C30.168 289.418 29.742 289.334 29.274 289.334C28.818 289.334 28.452 289.43 28.176 289.622C27.912 289.802 27.78 290.06 27.78 290.396C27.78 290.576 27.822 290.732 27.906 290.864C28.002 290.984 28.128 291.098 28.284 291.206C28.452 291.302 28.644 291.398 28.86 291.494C29.076 291.578 29.31 291.674 29.562 291.782L31.074 292.394C31.794 292.682 32.358 293.078 32.766 293.582C33.186 294.086 33.396 294.752 33.396 295.58C33.396 296.072 33.294 296.54 33.09 296.984C32.898 297.416 32.61 297.8 32.226 298.136C31.854 298.46 31.392 298.724 30.84 298.928C30.288 299.12 29.664 299.216 28.968 299.216C28.2 299.216 27.432 299.078 26.664 298.802C25.908 298.514 25.23 298.088 24.63 297.524L26.142 295.706ZM34.65 294.536C34.65 293.792 34.776 293.132 35.028 292.556C35.28 291.968 35.616 291.476 36.036 291.08C36.468 290.684 36.966 290.384 37.53 290.18C38.094 289.964 38.682 289.856 39.294 289.856C39.846 289.856 40.344 289.952 40.788 290.144C41.232 290.324 41.604 290.57 41.904 290.882L40.698 292.52C40.278 292.172 39.864 291.998 39.456 291.998C38.808 291.998 38.298 292.226 37.926 292.682C37.554 293.138 37.368 293.756 37.368 294.536C37.368 295.316 37.554 295.934 37.926 296.39C38.31 296.846 38.79 297.074 39.366 297.074C39.69 297.074 39.984 297.008 40.248 296.876C40.512 296.744 40.752 296.594 40.968 296.426L42.03 298.1C41.598 298.484 41.118 298.766 40.59 298.946C40.062 299.126 39.552 299.216 39.06 299.216C38.436 299.216 37.854 299.114 37.314 298.91C36.786 298.694 36.324 298.388 35.928 297.992C35.532 297.596 35.22 297.11 34.992 296.534C34.764 295.946 34.65 295.28 34.65 294.536ZM43.0745 296.516C43.0745 295.58 43.4705 294.848 44.2625 294.32C45.0545 293.792 46.3325 293.438 48.0965 293.258C48.0725 292.862 47.9525 292.55 47.7365 292.322C47.5205 292.082 47.1725 291.962 46.6925 291.962C46.3085 291.962 45.9245 292.034 45.5405 292.178C45.1565 292.322 44.7485 292.52 44.3165 292.772L43.3805 291.026C43.9565 290.678 44.5565 290.396 45.1805 290.18C45.8165 289.964 46.4885 289.856 47.1965 289.856C48.3485 289.856 49.2245 290.186 49.8245 290.846C50.4365 291.494 50.7425 292.508 50.7425 293.888V299H48.5825L48.3845 298.082H48.3305C47.9465 298.418 47.5385 298.694 47.1065 298.91C46.6865 299.114 46.2245 299.216 45.7205 299.216C45.3125 299.216 44.9465 299.144 44.6225 299C44.2985 298.868 44.0225 298.682 43.7945 298.442C43.5665 298.19 43.3865 297.902 43.2545 297.578C43.1345 297.254 43.0745 296.9 43.0745 296.516ZM45.5945 296.318C45.5945 296.606 45.6845 296.822 45.8645 296.966C46.0565 297.098 46.3085 297.164 46.6205 297.164C46.9325 297.164 47.1965 297.098 47.4125 296.966C47.6285 296.834 47.8565 296.648 48.0965 296.408V294.842C47.1485 294.974 46.4945 295.166 46.1345 295.418C45.7745 295.67 45.5945 295.97 45.5945 296.318ZM53.0138 290.072H55.1738L55.3538 291.206H55.4258C55.8098 290.846 56.2298 290.534 56.6858 290.27C57.1418 289.994 57.6758 289.856 58.2878 289.856C59.2598 289.856 59.9618 290.174 60.3938 290.81C60.8378 291.446 61.0598 292.328 61.0598 293.456V299H58.4138V293.798C58.4138 293.15 58.3238 292.706 58.1438 292.466C57.9758 292.226 57.6998 292.106 57.3158 292.106C56.9798 292.106 56.6918 292.184 56.4518 292.34C56.2118 292.484 55.9478 292.694 55.6598 292.97V299H53.0138V290.072ZM69.4347 293.078C69.4347 294.338 69.6687 295.316 70.1367 296.012C70.6047 296.708 71.2407 297.056 72.0447 297.056C72.8487 297.056 73.4847 296.708 73.9527 296.012C74.4207 295.316 74.6547 294.338 74.6547 293.078C74.6547 291.902 74.4207 290.984 73.9527 290.324C73.4847 289.664 72.8487 289.334 72.0447 289.334C71.2407 289.334 70.6047 289.664 70.1367 290.324C69.6687 290.984 69.4347 291.902 69.4347 293.078ZM77.9847 301.826C77.7687 301.934 77.4807 302.024 77.1207 302.096C76.7727 302.168 76.3707 302.204 75.9147 302.204C74.6667 302.204 73.6107 301.916 72.7467 301.34C71.8947 300.764 71.2587 300.014 70.8387 299.09C70.2147 298.958 69.6447 298.73 69.1287 298.406C68.6247 298.07 68.1927 297.644 67.8327 297.128C67.4727 296.612 67.1967 296.018 67.0047 295.346C66.8127 294.662 66.7167 293.906 66.7167 293.078C66.7167 292.118 66.8427 291.266 67.0947 290.522C67.3587 289.766 67.7247 289.136 68.1927 288.632C68.6607 288.116 69.2187 287.726 69.8667 287.462C70.5267 287.186 71.2527 287.048 72.0447 287.048C72.8367 287.048 73.5567 287.186 74.2047 287.462C74.8647 287.726 75.4287 288.116 75.8967 288.632C76.3647 289.148 76.7247 289.784 76.9767 290.54C77.2407 291.284 77.3727 292.13 77.3727 293.078C77.3727 294.662 77.0367 295.964 76.3647 296.984C75.6927 298.004 74.7867 298.676 73.6467 299C73.9227 299.408 74.2947 299.69 74.7627 299.846C75.2307 300.014 75.7167 300.098 76.2207 300.098C76.4727 300.098 76.7067 300.074 76.9227 300.026C77.1507 299.99 77.3487 299.942 77.5167 299.882L77.9847 301.826ZM82.2254 292.664H83.5934C84.2894 292.664 84.8174 292.52 85.1774 292.232C85.5494 291.932 85.7354 291.494 85.7354 290.918C85.7354 290.342 85.5494 289.94 85.1774 289.712C84.8174 289.484 84.2894 289.37 83.5934 289.37H82.2254V292.664ZM85.9334 299L83.6834 294.77H82.2254V299H79.5794V287.264H83.8094C84.4334 287.264 85.0154 287.324 85.5554 287.444C86.1074 287.564 86.5874 287.768 86.9954 288.056C87.4034 288.332 87.7274 288.704 87.9674 289.172C88.2074 289.64 88.3274 290.222 88.3274 290.918C88.3274 291.782 88.1354 292.496 87.7514 293.06C87.3794 293.612 86.8754 294.026 86.2394 294.302L88.9034 299H85.9334ZM93.6773 294.536C93.6773 293.792 93.8033 293.132 94.0553 292.556C94.3073 291.968 94.6433 291.476 95.0633 291.08C95.4953 290.684 95.9933 290.384 96.5573 290.18C97.1213 289.964 97.7093 289.856 98.3213 289.856C98.8733 289.856 99.3713 289.952 99.8153 290.144C100.259 290.324 100.631 290.57 100.931 290.882L99.7253 292.52C99.3053 292.172 98.8913 291.998 98.4833 291.998C97.8353 291.998 97.3253 292.226 96.9533 292.682C96.5813 293.138 96.3953 293.756 96.3953 294.536C96.3953 295.316 96.5813 295.934 96.9533 296.39C97.3373 296.846 97.8173 297.074 98.3933 297.074C98.7173 297.074 99.0113 297.008 99.2753 296.876C99.5393 296.744 99.7793 296.594 99.9953 296.426L101.057 298.1C100.625 298.484 100.145 298.766 99.6173 298.946C99.0893 299.126 98.5793 299.216 98.0873 299.216C97.4633 299.216 96.8813 299.114 96.3413 298.91C95.8133 298.694 95.3513 298.388 94.9553 297.992C94.5593 297.596 94.2473 297.11 94.0193 296.534C93.7913 295.946 93.6773 295.28 93.6773 294.536ZM101.57 294.536C101.57 293.792 101.69 293.132 101.93 292.556C102.17 291.968 102.488 291.476 102.884 291.08C103.292 290.684 103.76 290.384 104.288 290.18C104.816 289.964 105.362 289.856 105.926 289.856C106.49 289.856 107.03 289.964 107.546 290.18C108.074 290.384 108.536 290.684 108.932 291.08C109.34 291.476 109.664 291.968 109.904 292.556C110.144 293.132 110.264 293.792 110.264 294.536C110.264 295.28 110.144 295.946 109.904 296.534C109.664 297.11 109.34 297.596 108.932 297.992C108.536 298.388 108.074 298.694 107.546 298.91C107.03 299.114 106.49 299.216 105.926 299.216C105.362 299.216 104.816 299.114 104.288 298.91C103.76 298.694 103.292 298.388 102.884 297.992C102.488 297.596 102.17 297.11 101.93 296.534C101.69 295.946 101.57 295.28 101.57 294.536ZM104.288 294.536C104.288 295.316 104.42 295.934 104.684 296.39C104.96 296.846 105.374 297.074 105.926 297.074C106.466 297.074 106.874 296.846 107.15 296.39C107.426 295.934 107.564 295.316 107.564 294.536C107.564 293.756 107.426 293.138 107.15 292.682C106.874 292.226 106.466 291.998 105.926 291.998C105.374 291.998 104.96 292.226 104.684 292.682C104.42 293.138 104.288 293.756 104.288 294.536ZM111.608 294.536C111.608 293.804 111.71 293.15 111.914 292.574C112.13 291.998 112.406 291.512 112.742 291.116C113.09 290.708 113.486 290.396 113.93 290.18C114.386 289.964 114.848 289.856 115.316 289.856C115.82 289.856 116.234 289.94 116.558 290.108C116.882 290.276 117.2 290.504 117.512 290.792L117.404 289.424V286.382H120.05V299H117.89L117.71 298.118H117.638C117.326 298.43 116.96 298.694 116.54 298.91C116.12 299.114 115.694 299.216 115.262 299.216C114.71 299.216 114.206 299.108 113.75 298.892C113.306 298.676 112.922 298.37 112.598 297.974C112.286 297.566 112.04 297.074 111.86 296.498C111.692 295.922 111.608 295.268 111.608 294.536ZM114.326 294.5C114.326 295.388 114.464 296.036 114.74 296.444C115.028 296.852 115.43 297.056 115.946 297.056C116.234 297.056 116.492 296.996 116.72 296.876C116.96 296.756 117.188 296.546 117.404 296.246V292.592C117.164 292.376 116.918 292.226 116.666 292.142C116.414 292.058 116.168 292.016 115.928 292.016C115.508 292.016 115.136 292.22 114.812 292.628C114.488 293.024 114.326 293.648 114.326 294.5ZM121.873 294.536C121.873 293.816 121.993 293.168 122.233 292.592C122.473 292.004 122.785 291.512 123.169 291.116C123.565 290.708 124.015 290.396 124.519 290.18C125.023 289.964 125.545 289.856 126.085 289.856C126.721 289.856 127.273 289.964 127.741 290.18C128.221 290.396 128.617 290.696 128.929 291.08C129.253 291.464 129.493 291.92 129.649 292.448C129.805 292.964 129.883 293.528 129.883 294.14C129.883 294.38 129.871 294.602 129.847 294.806C129.823 294.998 129.799 295.148 129.775 295.256H124.429C124.549 295.94 124.813 296.438 125.221 296.75C125.641 297.05 126.151 297.2 126.751 297.2C127.387 297.2 128.029 297.002 128.677 296.606L129.559 298.208C129.103 298.52 128.593 298.766 128.029 298.946C127.477 299.126 126.931 299.216 126.391 299.216C125.755 299.216 125.161 299.114 124.609 298.91C124.057 298.694 123.577 298.388 123.169 297.992C122.761 297.584 122.443 297.092 122.215 296.516C121.987 295.94 121.873 295.28 121.873 294.536ZM127.633 293.618C127.633 293.102 127.519 292.682 127.291 292.358C127.063 292.034 126.679 291.872 126.139 291.872C125.719 291.872 125.347 292.016 125.023 292.304C124.711 292.58 124.507 293.018 124.411 293.618H127.633Z" fill="white"/>
<path d="M30.354 404.14L30.084 403.06C29.916 402.472 29.754 401.848 29.598 401.188C29.442 400.528 29.286 399.892 29.13 399.28H29.058C28.914 399.904 28.764 400.546 28.608 401.206C28.464 401.854 28.308 402.472 28.14 403.06L27.852 404.14H30.354ZM30.894 406.21H27.312L26.592 409H23.892L27.564 397.264H30.75L34.422 409H31.614L30.894 406.21ZM35.4884 396.382H38.1344V399.478L38.0624 400.846C38.4104 400.534 38.7824 400.294 39.1784 400.126C39.5864 399.946 40.0004 399.856 40.4204 399.856C40.9604 399.856 41.4464 399.964 41.8784 400.18C42.3104 400.396 42.6764 400.702 42.9764 401.098C43.2884 401.482 43.5224 401.956 43.6784 402.52C43.8464 403.072 43.9304 403.69 43.9304 404.374C43.9304 405.142 43.8224 405.826 43.6064 406.426C43.4024 407.026 43.1204 407.536 42.7604 407.956C42.4124 408.364 42.0104 408.676 41.5544 408.892C41.1104 409.108 40.6484 409.216 40.1684 409.216C39.7724 409.216 39.3704 409.12 38.9624 408.928C38.5664 408.736 38.1944 408.448 37.8464 408.064H37.7744L37.5584 409H35.4884V396.382ZM38.1344 406.48C38.3744 406.696 38.6144 406.846 38.8544 406.93C39.0944 407.014 39.3284 407.056 39.5564 407.056C40.0124 407.056 40.4024 406.852 40.7264 406.444C41.0504 406.024 41.2124 405.352 41.2124 404.428C41.2124 402.82 40.6964 402.016 39.6644 402.016C39.1364 402.016 38.6264 402.286 38.1344 402.826V406.48ZM45.2847 404.536C45.2847 403.792 45.4047 403.132 45.6447 402.556C45.8847 401.968 46.2027 401.476 46.5987 401.08C47.0067 400.684 47.4747 400.384 48.0027 400.18C48.5307 399.964 49.0767 399.856 49.6407 399.856C50.2047 399.856 50.7447 399.964 51.2607 400.18C51.7887 400.384 52.2507 400.684 52.6467 401.08C53.0547 401.476 53.3787 401.968 53.6187 402.556C53.8587 403.132 53.9787 403.792 53.9787 404.536C53.9787 405.28 53.8587 405.946 53.6187 406.534C53.3787 407.11 53.0547 407.596 52.6467 407.992C52.2507 408.388 51.7887 408.694 51.2607 408.91C50.7447 409.114 50.2047 409.216 49.6407 409.216C49.0767 409.216 48.5307 409.114 48.0027 408.91C47.4747 408.694 47.0067 408.388 46.5987 407.992C46.2027 407.596 45.8847 407.11 45.6447 406.534C45.4047 405.946 45.2847 405.28 45.2847 404.536ZM48.0027 404.536C48.0027 405.316 48.1347 405.934 48.3987 406.39C48.6747 406.846 49.0887 407.074 49.6407 407.074C50.1807 407.074 50.5887 406.846 50.8647 406.39C51.1407 405.934 51.2787 405.316 51.2787 404.536C51.2787 403.756 51.1407 403.138 50.8647 402.682C50.5887 402.226 50.1807 401.998 49.6407 401.998C49.0887 401.998 48.6747 402.226 48.3987 402.682C48.1347 403.138 48.0027 403.756 48.0027 404.536ZM55.7011 400.072H58.3471V405.274C58.3471 405.922 58.4371 406.366 58.6171 406.606C58.7971 406.846 59.0791 406.966 59.4631 406.966C59.7991 406.966 60.0811 406.888 60.3091 406.732C60.5371 406.576 60.7831 406.324 61.0471 405.976V400.072H63.6931V409H61.5331L61.3351 407.758H61.2811C60.8971 408.214 60.4831 408.574 60.0391 408.838C59.6071 409.09 59.0851 409.216 58.4731 409.216C57.5011 409.216 56.7931 408.898 56.3491 408.262C55.9171 407.626 55.7011 406.744 55.7011 405.616V400.072ZM66.3816 402.142H65.1576V400.18L66.5256 400.072L66.8316 397.696H69.0276V400.072H71.1696V402.142H69.0276V405.724C69.0276 406.228 69.1296 406.594 69.3336 406.822C69.5496 407.038 69.8316 407.146 70.1796 407.146C70.3236 407.146 70.4676 407.128 70.6116 407.092C70.7676 407.056 70.9056 407.014 71.0256 406.966L71.4396 408.892C71.1996 408.964 70.9176 409.036 70.5936 409.108C70.2696 409.18 69.8916 409.216 69.4596 409.216C68.9076 409.216 68.4336 409.132 68.0376 408.964C67.6536 408.796 67.3356 408.562 67.0836 408.262C66.8436 407.962 66.6636 407.602 66.5436 407.182C66.4356 406.75 66.3816 406.276 66.3816 405.76V402.142ZM77.0163 402.142H75.7923V400.18L77.1603 400.072L77.4663 397.696H79.6623V400.072H81.8043V402.142H79.6623V405.724C79.6623 406.228 79.7643 406.594 79.9683 406.822C80.1843 407.038 80.4663 407.146 80.8143 407.146C80.9583 407.146 81.1023 407.128 81.2463 407.092C81.4023 407.056 81.5403 407.014 81.6603 406.966L82.0743 408.892C81.8343 408.964 81.5523 409.036 81.2283 409.108C80.9043 409.18 80.5263 409.216 80.0943 409.216C79.5423 409.216 79.0683 409.132 78.6723 408.964C78.2883 408.796 77.9703 408.562 77.7183 408.262C77.4783 407.962 77.2983 407.602 77.1783 407.182C77.0703 406.75 77.0163 406.276 77.0163 405.76V402.142ZM83.547 396.382H86.193V399.478L86.067 401.08C86.403 400.78 86.793 400.504 87.237 400.252C87.681 399.988 88.209 399.856 88.821 399.856C89.793 399.856 90.495 400.174 90.927 400.81C91.371 401.446 91.593 402.328 91.593 403.456V409H88.947V403.798C88.947 403.15 88.857 402.706 88.677 402.466C88.509 402.226 88.233 402.106 87.849 402.106C87.513 402.106 87.225 402.184 86.985 402.34C86.745 402.484 86.481 402.694 86.193 402.97V409H83.547V396.382ZM93.3082 404.536C93.3082 403.816 93.4282 403.168 93.6682 402.592C93.9082 402.004 94.2202 401.512 94.6042 401.116C95.0002 400.708 95.4502 400.396 95.9542 400.18C96.4582 399.964 96.9802 399.856 97.5202 399.856C98.1562 399.856 98.7082 399.964 99.1762 400.18C99.6562 400.396 100.052 400.696 100.364 401.08C100.688 401.464 100.928 401.92 101.084 402.448C101.24 402.964 101.318 403.528 101.318 404.14C101.318 404.38 101.306 404.602 101.282 404.806C101.258 404.998 101.234 405.148 101.21 405.256H95.8642C95.9842 405.94 96.2482 406.438 96.6562 406.75C97.0762 407.05 97.5862 407.2 98.1862 407.2C98.8222 407.2 99.4642 407.002 100.112 406.606L100.994 408.208C100.538 408.52 100.028 408.766 99.4642 408.946C98.9122 409.126 98.3662 409.216 97.8262 409.216C97.1902 409.216 96.5962 409.114 96.0442 408.91C95.4922 408.694 95.0122 408.388 94.6042 407.992C94.1962 407.584 93.8782 407.092 93.6502 406.516C93.4222 405.94 93.3082 405.28 93.3082 404.536ZM99.0682 403.618C99.0682 403.102 98.9542 402.682 98.7262 402.358C98.4982 402.034 98.1142 401.872 97.5742 401.872C97.1542 401.872 96.7822 402.016 96.4582 402.304C96.1462 402.58 95.9422 403.018 95.8462 403.618H99.0682ZM106.567 406.516C106.567 405.58 106.963 404.848 107.755 404.32C108.547 403.792 109.825 403.438 111.589 403.258C111.565 402.862 111.445 402.55 111.229 402.322C111.013 402.082 110.665 401.962 110.185 401.962C109.801 401.962 109.417 402.034 109.033 402.178C108.649 402.322 108.241 402.52 107.809 402.772L106.873 401.026C107.449 400.678 108.049 400.396 108.673 400.18C109.309 399.964 109.981 399.856 110.689 399.856C111.841 399.856 112.717 400.186 113.317 400.846C113.929 401.494 114.235 402.508 114.235 403.888V409H112.075L111.877 408.082H111.823C111.439 408.418 111.031 408.694 110.599 408.91C110.179 409.114 109.717 409.216 109.213 409.216C108.805 409.216 108.439 409.144 108.115 409C107.791 408.868 107.515 408.682 107.287 408.442C107.059 408.19 106.879 407.902 106.747 407.578C106.627 407.254 106.567 406.9 106.567 406.516ZM109.087 406.318C109.087 406.606 109.177 406.822 109.357 406.966C109.549 407.098 109.801 407.164 110.113 407.164C110.425 407.164 110.689 407.098 110.905 406.966C111.121 406.834 111.349 406.648 111.589 406.408V404.842C110.641 404.974 109.987 405.166 109.627 405.418C109.267 405.67 109.087 405.97 109.087 406.318ZM119.152 409.702V412.312H116.506V400.072H118.666L118.846 400.954H118.918C119.266 400.642 119.656 400.384 120.088 400.18C120.532 399.964 120.988 399.856 121.456 399.856C121.996 399.856 122.482 399.964 122.914 400.18C123.346 400.396 123.712 400.702 124.012 401.098C124.312 401.494 124.54 401.974 124.696 402.538C124.864 403.09 124.948 403.708 124.948 404.392C124.948 405.16 124.84 405.844 124.624 406.444C124.42 407.032 124.138 407.536 123.778 407.956C123.43 408.364 123.028 408.676 122.572 408.892C122.128 409.108 121.666 409.216 121.186 409.216C120.802 409.216 120.43 409.138 120.07 408.982C119.71 408.814 119.374 408.58 119.062 408.28L119.152 409.702ZM119.152 406.48C119.392 406.696 119.632 406.846 119.872 406.93C120.112 407.014 120.346 407.056 120.574 407.056C121.03 407.056 121.42 406.852 121.744 406.444C122.068 406.024 122.23 405.352 122.23 404.428C122.23 402.82 121.714 402.016 120.682 402.016C120.166 402.016 119.656 402.286 119.152 402.826V406.48ZM129.47 409.702V412.312H126.824V400.072H128.984L129.164 400.954H129.236C129.584 400.642 129.974 400.384 130.406 400.18C130.85 399.964 131.306 399.856 131.774 399.856C132.314 399.856 132.8 399.964 133.232 400.18C133.664 400.396 134.03 400.702 134.33 401.098C134.63 401.494 134.858 401.974 135.014 402.538C135.182 403.09 135.266 403.708 135.266 404.392C135.266 405.16 135.158 405.844 134.942 406.444C134.738 407.032 134.456 407.536 134.096 407.956C133.748 408.364 133.346 408.676 132.89 408.892C132.446 409.108 131.984 409.216 131.504 409.216C131.12 409.216 130.748 409.138 130.388 408.982C130.028 408.814 129.692 408.58 129.38 408.28L129.47 409.702ZM129.47 406.48C129.71 406.696 129.95 406.846 130.19 406.93C130.43 407.014 130.664 407.056 130.892 407.056C131.348 407.056 131.738 406.852 132.062 406.444C132.386 406.024 132.548 405.352 132.548 404.428C132.548 402.82 132.032 402.016 131 402.016C130.484 402.016 129.974 402.286 129.47 402.826V406.48Z" fill="white"/>
<path d="M24 210L270 210" stroke="#FBFDFF" stroke-opacity="0.2"/>
<path d="M24 155L270 155" stroke="#FBFDFF" stroke-opacity="0.2"/>
<path d="M24 265L270 265" stroke="#FBFDFF" stroke-opacity="0.2"/>
<path d="M24 320L270 320" stroke="#FBFDFF" stroke-opacity="0.2"/>
<path d="M24 375L270 375" stroke="#FBFDFF" stroke-opacity="0.2"/>
<path d="M24 430L270 430" stroke="#FBFDFF" stroke-opacity="0.2"/>
<path d="M40.1771 80.8936C38.6396 82.3647 35.3635 83.8336 31.8219 83.8336C26.274 83.8336 24.0685 80.6924 24 75.7461V48.0021C24 47.4004 24.4004 47 25.0021 47H28.6122C29.1475 47 29.6143 47.4004 29.6143 48.0021V55.0211H37.1022C37.6375 55.0211 38.1043 55.4879 38.1043 56.1581V58.4984C38.1043 59.1665 37.6375 59.5691 37.1022 59.5691H29.6165V74.6091C29.6165 76.8831 29.8841 79.2877 32.9589 79.2877C34.1623 79.2877 35.9674 78.8209 37.5712 77.2171C37.9052 76.8831 38.6418 76.7482 39.0422 77.3499L40.3783 79.6903C40.5775 80.0907 40.5775 80.4911 40.1771 80.8936Z" fill="#2ED88E"/>
<path d="M64.7393 57.6955L63.067 60.4363C62.7994 60.8367 62.3326 60.9716 61.8636 60.7039C60.9943 59.9695 59.1892 58.9652 56.9174 58.9652C53.8426 58.9652 50.5665 61.2564 50.5665 65.9243V82.2962C50.5665 82.8979 50.0997 83.2983 49.5644 83.2983H45.9542C45.3526 83.2983 44.9521 82.8979 44.9521 82.2962V56.1581C44.9521 55.49 45.3526 55.0211 45.9542 55.0211H48.1597C48.8278 55.0211 49.2303 55.5564 49.4959 56.1581L49.8963 57.2287C51.5001 55.6249 53.9732 54.4879 57.3157 54.4879C60.9258 54.4879 63.0649 55.6249 64.401 56.4943C64.9406 56.8261 65.007 57.3615 64.7393 57.6955Z" fill="#2ED88E"/>
<path d="M97.8362 69.2603C97.8362 61.038 104.789 54.4879 112.81 54.4879C117.354 54.4879 121.499 56.293 124.173 59.5027C124.441 59.9031 124.441 60.372 124.107 60.7724L122.034 62.9115C121.634 63.312 121.032 63.312 120.698 62.843C119.296 60.9716 116.955 59.0338 112.945 59.0338C107.664 59.0338 103.318 63.3783 103.318 69.2603C103.318 74.8083 107.664 79.3562 112.945 79.3562C117.491 79.3562 120.165 76.4806 120.968 75.3457C121.167 75.0117 121.837 74.744 122.37 75.2108L124.242 77.0823C124.642 77.4827 124.642 77.9516 124.377 78.352C121.837 81.8272 117.692 83.8336 112.812 83.8336C104.789 83.8336 97.8362 77.3499 97.8362 69.2603Z" fill="#2ED88E"/>
<path d="M155.911 56.4258L139.518 88.8699C139.383 89.1375 139.051 89.4052 138.648 89.4052H135.306C134.702 89.4052 134.036 88.8035 134.436 88.0005L137.595 81.6946L125.895 56.4258C125.627 55.8905 125.964 55.0233 126.764 55.0233H130.372C130.908 55.0233 131.242 55.3573 131.509 56.0254L140.4 76.0802L150.761 55.625C150.894 55.291 151.228 55.0233 151.697 55.0233H154.973C155.575 55.0233 156.245 55.625 155.911 56.4258Z" fill="#2ED88E"/>
<path d="M95.8084 79.6283L92.1619 76.5791C95.7292 70.5173 94.5001 62.5947 88.9265 57.9354C82.7233 52.7514 73.4903 53.578 68.3063 59.7811C63.1224 65.9843 63.9489 75.2173 70.1521 80.4012C75.7257 85.0584 83.7425 84.8614 89.0742 80.2749L92.7207 83.3219C93.2304 83.748 93.9884 83.6795 94.4145 83.1699L95.9604 81.3177C96.3844 80.8124 96.318 80.0544 95.8084 79.6283ZM89.9414 69.9563L87.3355 71.1725C86.9287 71.3631 86.766 71.8534 86.9758 72.2495L88.3291 74.7869C88.6395 75.3672 88.1364 76.0481 87.4897 75.9218L84.6675 75.3736C84.2264 75.288 83.8046 75.5899 83.7447 76.0331L83.3485 78.881C83.2586 79.534 82.4514 79.7888 82.0017 79.3071L80.0403 77.2044C79.7341 76.8768 79.216 76.8725 78.9055 77.1958L76.912 79.2685C76.4559 79.7417 75.6529 79.4741 75.5716 78.821L75.2204 75.9667C75.1647 75.5214 74.7493 75.213 74.3082 75.2922L71.4775 75.7954C70.8287 75.9111 70.3384 75.2216 70.6574 74.6456L72.0514 72.1296C72.2676 71.7378 72.1113 71.2432 71.7088 71.0483L69.1222 69.7914C68.529 69.5045 68.5376 68.6587 69.1329 68.3803L71.7387 67.1641C72.1456 66.9735 72.3083 66.4832 72.0985 66.0871L70.7431 63.5518C70.4326 62.9716 70.9358 62.2907 71.5824 62.417L74.4046 62.9651C74.8457 63.0508 75.2675 62.7489 75.3275 62.3056L75.7236 59.4578C75.8135 58.8047 76.6208 58.5499 77.0704 59.0317L79.0318 61.1344C79.338 61.462 79.8562 61.4663 80.1667 61.1429L82.1602 59.0724C82.6162 58.597 83.4192 58.8668 83.5006 59.5199L83.8517 62.3742C83.9074 62.8195 84.3228 63.1279 84.7639 63.0486L87.5946 62.5455C88.2434 62.4298 88.7338 63.1193 88.4147 63.6953L87.0208 66.2113C86.8045 66.6031 86.9608 67.0977 87.3634 67.2926L89.95 68.5495C90.5452 68.8321 90.5388 69.6779 89.9414 69.9563Z" fill="#2ED88E"/>
<g clip-path="url(#clip0)">
<path d="M40.0818 592.676H41.8458V599.012H44.9418V600.5H40.0818V592.676ZM49.2792 600.644C48.7512 600.644 48.2672 600.552 47.8272 600.368C47.3952 600.176 47.0232 599.904 46.7112 599.552C46.3992 599.2 46.1552 598.772 45.9792 598.268C45.8112 597.764 45.7272 597.192 45.7272 596.552C45.7272 595.912 45.8112 595.344 45.9792 594.848C46.1552 594.344 46.3992 593.924 46.7112 593.588C47.0232 593.244 47.3952 592.984 47.8272 592.808C48.2672 592.624 48.7512 592.532 49.2792 592.532C49.8072 592.532 50.2872 592.624 50.7192 592.808C51.1592 592.984 51.5352 593.244 51.8472 593.588C52.1592 593.932 52.3992 594.356 52.5672 594.86C52.7432 595.356 52.8312 595.92 52.8312 596.552C52.8312 597.192 52.7432 597.764 52.5672 598.268C52.3992 598.772 52.1592 599.2 51.8472 599.552C51.5352 599.904 51.1592 600.176 50.7192 600.368C50.2872 600.552 49.8072 600.644 49.2792 600.644ZM49.2792 599.12C49.8152 599.12 50.2392 598.892 50.5512 598.436C50.8632 597.972 51.0192 597.344 51.0192 596.552C51.0192 595.768 50.8632 595.156 50.5512 594.716C50.2392 594.276 49.8152 594.056 49.2792 594.056C48.7432 594.056 48.3192 594.276 48.0072 594.716C47.6952 595.156 47.5392 595.768 47.5392 596.552C47.5392 597.344 47.6952 597.972 48.0072 598.436C48.3192 598.892 48.7432 599.12 49.2792 599.12ZM54.1703 596.636C54.1703 595.988 54.2703 595.412 54.4703 594.908C54.6783 594.396 54.9543 593.964 55.2983 593.612C55.6503 593.26 56.0583 592.992 56.5223 592.808C56.9943 592.624 57.4943 592.532 58.0223 592.532C58.5743 592.532 59.0503 592.636 59.4503 592.844C59.8583 593.052 60.1903 593.288 60.4463 593.552L59.4743 594.644C59.2823 594.46 59.0783 594.316 58.8623 594.212C58.6543 594.108 58.3823 594.056 58.0463 594.056C57.7423 594.056 57.4623 594.116 57.2063 594.236C56.9583 594.348 56.7423 594.512 56.5583 594.728C56.3743 594.944 56.2303 595.208 56.1263 595.52C56.0303 595.832 55.9823 596.184 55.9823 596.576C55.9823 597.384 56.1623 598.012 56.5223 598.46C56.8903 598.9 57.4423 599.12 58.1783 599.12C58.3383 599.12 58.4943 599.1 58.6463 599.06C58.7983 599.02 58.9223 598.96 59.0183 598.88V597.536H57.7223V596.096H60.5783V599.696C60.2983 599.96 59.9303 600.184 59.4743 600.368C59.0183 600.552 58.5143 600.644 57.9623 600.644C57.4343 600.644 56.9383 600.56 56.4743 600.392C56.0183 600.216 55.6183 599.96 55.2743 599.624C54.9303 599.288 54.6583 598.872 54.4583 598.376C54.2663 597.872 54.1703 597.292 54.1703 596.636ZM65.6146 600.644C65.0866 600.644 64.6026 600.552 64.1626 600.368C63.7306 600.176 63.3586 599.904 63.0466 599.552C62.7346 599.2 62.4906 598.772 62.3146 598.268C62.1466 597.764 62.0626 597.192 62.0626 596.552C62.0626 595.912 62.1466 595.344 62.3146 594.848C62.4906 594.344 62.7346 593.924 63.0466 593.588C63.3586 593.244 63.7306 592.984 64.1626 592.808C64.6026 592.624 65.0866 592.532 65.6146 592.532C66.1426 592.532 66.6226 592.624 67.0546 592.808C67.4946 592.984 67.8706 593.244 68.1826 593.588C68.4946 593.932 68.7346 594.356 68.9026 594.86C69.0786 595.356 69.1666 595.92 69.1666 596.552C69.1666 597.192 69.0786 597.764 68.9026 598.268C68.7346 598.772 68.4946 599.2 68.1826 599.552C67.8706 599.904 67.4946 600.176 67.0546 600.368C66.6226 600.552 66.1426 600.644 65.6146 600.644ZM65.6146 599.12C66.1506 599.12 66.5746 598.892 66.8866 598.436C67.1986 597.972 67.3546 597.344 67.3546 596.552C67.3546 595.768 67.1986 595.156 66.8866 594.716C66.5746 594.276 66.1506 594.056 65.6146 594.056C65.0786 594.056 64.6546 594.276 64.3426 594.716C64.0306 595.156 63.8746 595.768 63.8746 596.552C63.8746 597.344 64.0306 597.972 64.3426 598.436C64.6546 598.892 65.0786 599.12 65.6146 599.12ZM70.8297 592.676H72.6057V597.056C72.6057 597.824 72.7217 598.36 72.9537 598.664C73.1857 598.968 73.5217 599.12 73.9617 599.12C74.4017 599.12 74.7417 598.968 74.9817 598.664C75.2217 598.36 75.3417 597.824 75.3417 597.056V592.676H77.0457V596.876C77.0457 598.188 76.7817 599.144 76.2537 599.744C75.7337 600.344 74.9697 600.644 73.9617 600.644C72.9457 600.644 72.1697 600.344 71.6337 599.744C71.0977 599.144 70.8297 598.188 70.8297 596.876V592.676ZM80.6222 594.164H78.4742V592.676H84.5462V594.164H82.3982V600.5H80.6222V594.164Z" fill="#FCFCFC"/>
<path d="M99.3063 598.244L100.188 599.125L103.312 596L100.188 592.875L99.3063 593.756L100.919 595.375H94.875V596.625H100.919L99.3063 598.244ZM104.875 590.375H96.125C95.4312 590.375 94.875 590.938 94.875 591.625V594.125H96.125V591.625H104.875V600.375H96.125V597.875H94.875V600.375C94.875 601.062 95.4312 601.625 96.125 601.625H104.875C105.562 601.625 106.125 601.062 106.125 600.375V591.625C106.125 590.938 105.562 590.375 104.875 590.375Z" fill="#FCFCFC"/>
</g>
<rect x="24.5" y="576.5" width="97" height="39" rx="3.5" stroke="white"/>
<defs>
<clipPath id="clip0">
<rect x="39" y="588.5" width="69" height="15" fill="white"/>
</clipPath>
</defs>
</svg>
