<svg width="360" height="640" viewBox="0 0 360 640" fill="none" xmlns="http://www.w3.org/2000/svg">
<rect width="360" height="640" fill="#193F78"/>
<path d="M40 388C40 385.791 41.7909 384 44 384H316C318.209 384 320 385.791 320 388V430C320 432.209 318.209 434 316 434H44C41.7909 434 40 432.209 40 430V388Z" fill="white"/>
<path d="M148.721 404.568H151.137L153.857 409.752L154.881 412.056H154.945C154.891 411.501 154.827 410.883 154.753 410.2C154.689 409.517 154.657 408.867 154.657 408.248V404.568H156.897V415H154.481L151.761 409.8L150.737 407.528H150.673C150.726 408.104 150.785 408.723 150.849 409.384C150.923 410.045 150.961 410.685 150.961 411.304V415H148.721V404.568ZM159.681 404.568H166.209V406.552H162.033V408.648H165.585V410.616H162.033V413.016H166.369V415H159.681V404.568ZM170.607 409.64L167.887 404.568H170.511L171.423 406.536C171.54 406.781 171.658 407.043 171.775 407.32C171.892 407.587 172.026 407.885 172.175 408.216H172.239C172.356 407.885 172.468 407.587 172.575 407.32C172.692 407.043 172.804 406.781 172.911 406.536L173.743 404.568H176.255L173.551 409.752L176.431 415H173.807L172.767 412.872C172.639 412.595 172.511 412.323 172.383 412.056C172.266 411.779 172.132 411.48 171.983 411.16H171.919C171.802 411.48 171.684 411.779 171.567 412.056C171.45 412.323 171.332 412.595 171.215 412.872L170.239 415H167.711L170.607 409.64ZM179.885 406.552H177.021V404.568H185.117V406.552H182.253V415H179.885V406.552Z" fill="#193F78"/>
<path d="M204 402.333L202.825 403.508L207.475 408.167H197.333V409.833H207.475L202.825 414.492L204 415.667L210.667 409L204 402.333Z" fill="#193F78"/>
<path d="M42.7 87.32H45.19V95.57H54.34V87.32H56.86V107H54.34V97.73H45.19V107H42.7V87.32ZM63.2903 89.42C62.8103 89.42 62.4003 89.27 62.0603 88.97C61.7403 88.67 61.5803 88.29 61.5803 87.83C61.5803 87.35 61.7403 86.97 62.0603 86.69C62.4003 86.39 62.8103 86.24 63.2903 86.24C63.7703 86.24 64.1703 86.39 64.4903 86.69C64.8303 86.97 65.0003 87.35 65.0003 87.83C65.0003 88.29 64.8303 88.67 64.4903 88.97C64.1703 89.27 63.7703 89.42 63.2903 89.42ZM62.0303 92.42H64.4903V107H62.0303V92.42ZM68.3631 110.66C69.2031 110.28 69.8631 109.78 70.3431 109.16C70.8231 108.54 71.0631 107.82 71.0631 107C71.0031 107.02 70.9031 107.03 70.7631 107.03C70.2831 107.03 69.8631 106.89 69.5031 106.61C69.1631 106.31 68.9931 105.88 68.9931 105.32C68.9931 104.78 69.1731 104.36 69.5331 104.06C69.8931 103.74 70.3231 103.58 70.8231 103.58C71.4631 103.58 71.9631 103.84 72.3231 104.36C72.7031 104.88 72.8931 105.59 72.8931 106.49C72.8931 107.79 72.5431 108.92 71.8431 109.88C71.1431 110.84 70.1831 111.58 68.9631 112.1L68.3631 110.66ZM41.656 133.426C42.076 133.87 42.568 134.23 43.132 134.506C43.708 134.77 44.302 134.902 44.914 134.902C45.694 134.902 46.3 134.728 46.732 134.38C47.164 134.02 47.38 133.552 47.38 132.976C47.38 132.676 47.326 132.424 47.218 132.22C47.122 132.004 46.984 131.824 46.804 131.68C46.636 131.524 46.432 131.386 46.192 131.266C45.952 131.146 45.694 131.02 45.418 130.888L43.726 130.15C43.45 130.03 43.168 129.886 42.88 129.718C42.592 129.55 42.334 129.346 42.106 129.106C41.878 128.866 41.692 128.584 41.548 128.26C41.404 127.924 41.332 127.54 41.332 127.108C41.332 126.664 41.422 126.25 41.602 125.866C41.794 125.482 42.052 125.152 42.376 124.876C42.712 124.588 43.102 124.366 43.546 124.21C44.002 124.054 44.5 123.976 45.04 123.976C45.748 123.976 46.402 124.114 47.002 124.39C47.602 124.654 48.112 125.002 48.532 125.434L47.722 126.406C47.362 126.058 46.96 125.788 46.516 125.596C46.084 125.392 45.592 125.29 45.04 125.29C44.38 125.29 43.846 125.446 43.438 125.758C43.042 126.058 42.844 126.478 42.844 127.018C42.844 127.306 42.898 127.552 43.006 127.756C43.126 127.948 43.282 128.122 43.474 128.278C43.666 128.422 43.876 128.554 44.104 128.674C44.332 128.782 44.566 128.884 44.806 128.98L46.48 129.7C46.816 129.844 47.134 130.012 47.434 130.204C47.734 130.384 47.992 130.6 48.208 130.852C48.424 131.092 48.592 131.38 48.712 131.716C48.844 132.04 48.91 132.418 48.91 132.85C48.91 133.318 48.814 133.756 48.622 134.164C48.442 134.572 48.178 134.932 47.83 135.244C47.482 135.544 47.062 135.784 46.57 135.964C46.078 136.132 45.52 136.216 44.896 136.216C44.068 136.216 43.3 136.06 42.592 135.748C41.884 135.436 41.272 135.01 40.756 134.47L41.656 133.426ZM51.8472 125.452C51.5592 125.452 51.3132 125.362 51.1092 125.182C50.9172 125.002 50.8212 124.774 50.8212 124.498C50.8212 124.21 50.9172 123.982 51.1092 123.814C51.3132 123.634 51.5592 123.544 51.8472 123.544C52.1352 123.544 52.3752 123.634 52.5672 123.814C52.7712 123.982 52.8732 124.21 52.8732 124.498C52.8732 124.774 52.7712 125.002 52.5672 125.182C52.3752 125.362 52.1352 125.452 51.8472 125.452ZM51.0912 127.252H52.5672V136H51.0912V127.252ZM56.1509 137.476C56.1509 137.944 56.3729 138.316 56.8169 138.592C57.2729 138.868 57.8969 139.006 58.6889 139.006C59.1089 139.006 59.4869 138.952 59.8229 138.844C60.1709 138.748 60.4649 138.616 60.7049 138.448C60.9449 138.292 61.1309 138.106 61.2629 137.89C61.3949 137.674 61.4609 137.452 61.4609 137.224C61.4609 136.816 61.3109 136.534 61.0109 136.378C60.7109 136.222 60.2729 136.144 59.6969 136.144H58.1849C58.0169 136.144 57.8309 136.132 57.6269 136.108C57.4349 136.096 57.2429 136.06 57.0509 136C56.7389 136.228 56.5109 136.468 56.3669 136.72C56.2229 136.972 56.1509 137.224 56.1509 137.476ZM54.8549 137.674C54.8549 137.302 54.9689 136.948 55.1969 136.612C55.4249 136.276 55.7369 135.97 56.1329 135.694V135.622C55.9169 135.49 55.7309 135.31 55.5749 135.082C55.4309 134.842 55.3589 134.548 55.3589 134.2C55.3589 133.828 55.4609 133.504 55.6649 133.228C55.8689 132.952 56.0849 132.736 56.3129 132.58V132.508C56.0249 132.268 55.7609 131.95 55.5209 131.554C55.2929 131.146 55.1789 130.678 55.1789 130.15C55.1789 129.67 55.2629 129.238 55.4309 128.854C55.6109 128.47 55.8509 128.146 56.1509 127.882C56.4509 127.606 56.7989 127.396 57.1949 127.252C57.6029 127.108 58.0289 127.036 58.4729 127.036C58.7129 127.036 58.9349 127.06 59.1389 127.108C59.3549 127.144 59.5469 127.192 59.7149 127.252H62.7569V128.386H60.9569C61.1609 128.59 61.3289 128.848 61.4609 129.16C61.6049 129.472 61.6769 129.814 61.6769 130.186C61.6769 130.654 61.5929 131.08 61.4249 131.464C61.2569 131.836 61.0289 132.154 60.7409 132.418C60.4529 132.67 60.1109 132.868 59.7149 133.012C59.3309 133.156 58.9169 133.228 58.4729 133.228C58.2569 133.228 58.0349 133.204 57.8069 133.156C57.5789 133.096 57.3629 133.018 57.1589 132.922C57.0029 133.054 56.8709 133.204 56.7629 133.372C56.6549 133.528 56.6009 133.726 56.6009 133.966C56.6009 134.242 56.7089 134.47 56.9249 134.65C57.1409 134.83 57.5489 134.92 58.1489 134.92H59.8409C60.8609 134.92 61.6229 135.088 62.1269 135.424C62.6429 135.748 62.9009 136.276 62.9009 137.008C62.9009 137.416 62.7989 137.8 62.5949 138.16C62.3909 138.532 62.0969 138.856 61.7129 139.132C61.3289 139.408 60.8609 139.624 60.3089 139.78C59.7689 139.948 59.1569 140.032 58.4729 140.032C57.9329 140.032 57.4409 139.978 56.9969 139.87C56.5529 139.774 56.1689 139.624 55.8449 139.42C55.5329 139.216 55.2869 138.97 55.1069 138.682C54.9389 138.394 54.8549 138.058 54.8549 137.674ZM58.4729 132.238C58.7249 132.238 58.9589 132.19 59.1749 132.094C59.4029 131.998 59.6009 131.86 59.7689 131.68C59.9489 131.5 60.0869 131.284 60.1829 131.032C60.2789 130.768 60.3269 130.474 60.3269 130.15C60.3269 129.502 60.1469 129.004 59.7869 128.656C59.4269 128.296 58.9889 128.116 58.4729 128.116C57.9569 128.116 57.5189 128.296 57.1589 128.656C56.7989 129.004 56.6189 129.502 56.6189 130.15C56.6189 130.474 56.6669 130.768 56.7629 131.032C56.8589 131.284 56.9909 131.5 57.1589 131.68C57.3389 131.86 57.5369 131.998 57.7529 132.094C57.9809 132.19 58.2209 132.238 58.4729 132.238ZM64.5912 127.252H65.8152L65.9412 128.512H65.9952C66.4152 128.092 66.8532 127.744 67.3092 127.468C67.7772 127.18 68.3172 127.036 68.9292 127.036C69.8532 127.036 70.5252 127.324 70.9452 127.9C71.3772 128.476 71.5932 129.328 71.5932 130.456V136H70.1172V130.654C70.1172 129.826 69.9852 129.232 69.7212 128.872C69.4572 128.5 69.0372 128.314 68.4612 128.314C68.0052 128.314 67.6032 128.428 67.2552 128.656C66.9072 128.884 66.5112 129.22 66.0672 129.664V136H64.5912V127.252ZM77.9477 127.252H79.4417V132.598C79.4417 133.426 79.5677 134.026 79.8197 134.398C80.0837 134.758 80.5037 134.938 81.0797 134.938C81.5357 134.938 81.9377 134.824 82.2857 134.596C82.6337 134.356 83.0177 133.978 83.4377 133.462V127.252H84.9137V136H83.6897L83.5637 134.632H83.5097C83.1017 135.112 82.6697 135.496 82.2137 135.784C81.7697 136.072 81.2417 136.216 80.6297 136.216C79.6937 136.216 79.0097 135.928 78.5777 135.352C78.1577 134.776 77.9477 133.924 77.9477 132.796V127.252ZM89.3407 136.738V139.69H87.8647V127.252H89.0887L89.2147 128.26H89.2687C89.6647 127.924 90.0967 127.636 90.5647 127.396C91.0447 127.156 91.5427 127.036 92.0587 127.036C92.6227 127.036 93.1207 127.144 93.5527 127.36C93.9847 127.564 94.3447 127.864 94.6327 128.26C94.9207 128.644 95.1367 129.112 95.2807 129.664C95.4367 130.204 95.5147 130.816 95.5147 131.5C95.5147 132.244 95.4127 132.91 95.2087 133.498C95.0047 134.074 94.7287 134.566 94.3807 134.974C94.0327 135.382 93.6307 135.694 93.1747 135.91C92.7187 136.114 92.2387 136.216 91.7347 136.216C91.3267 136.216 90.9187 136.126 90.5107 135.946C90.1147 135.766 89.7127 135.52 89.3047 135.208L89.3407 136.738ZM89.3407 134.056C89.7367 134.392 90.1207 134.632 90.4927 134.776C90.8647 134.908 91.1947 134.974 91.4827 134.974C91.8427 134.974 92.1727 134.896 92.4727 134.74C92.7847 134.572 93.0487 134.344 93.2647 134.056C93.4927 133.756 93.6667 133.39 93.7867 132.958C93.9187 132.526 93.9847 132.04 93.9847 131.5C93.9847 131.02 93.9427 130.582 93.8587 130.186C93.7747 129.79 93.6367 129.454 93.4447 129.178C93.2647 128.89 93.0247 128.668 92.7247 128.512C92.4367 128.356 92.0887 128.278 91.6807 128.278C91.3087 128.278 90.9307 128.38 90.5467 128.584C90.1747 128.788 89.7727 129.082 89.3407 129.466V134.056ZM101.74 128.458H100.444V127.342L101.812 127.252L101.992 124.804H103.234V127.252H105.592V128.458H103.234V133.318C103.234 133.858 103.33 134.278 103.522 134.578C103.726 134.866 104.08 135.01 104.584 135.01C104.74 135.01 104.908 134.986 105.088 134.938C105.268 134.89 105.43 134.836 105.574 134.776L105.862 135.892C105.622 135.976 105.358 136.048 105.07 136.108C104.794 136.18 104.518 136.216 104.242 136.216C103.774 136.216 103.378 136.144 103.054 136C102.742 135.856 102.484 135.658 102.28 135.406C102.088 135.154 101.95 134.848 101.866 134.488C101.782 134.128 101.74 133.732 101.74 133.3V128.458ZM106.746 131.644C106.746 130.912 106.854 130.264 107.07 129.7C107.298 129.124 107.598 128.638 107.97 128.242C108.342 127.846 108.768 127.546 109.248 127.342C109.74 127.138 110.256 127.036 110.796 127.036C111.336 127.036 111.846 127.138 112.326 127.342C112.818 127.546 113.25 127.846 113.622 128.242C113.994 128.638 114.288 129.124 114.504 129.7C114.732 130.264 114.846 130.912 114.846 131.644C114.846 132.364 114.732 133.012 114.504 133.588C114.288 134.152 113.994 134.632 113.622 135.028C113.25 135.412 112.818 135.706 112.326 135.91C111.846 136.114 111.336 136.216 110.796 136.216C110.256 136.216 109.74 136.114 109.248 135.91C108.768 135.706 108.342 135.412 107.97 135.028C107.598 134.632 107.298 134.152 107.07 133.588C106.854 133.012 106.746 132.364 106.746 131.644ZM108.276 131.644C108.276 132.148 108.336 132.604 108.456 133.012C108.576 133.42 108.744 133.774 108.96 134.074C109.188 134.362 109.458 134.59 109.77 134.758C110.082 134.914 110.424 134.992 110.796 134.992C111.168 134.992 111.51 134.914 111.822 134.758C112.134 134.59 112.398 134.362 112.614 134.074C112.842 133.774 113.016 133.42 113.136 133.012C113.256 132.604 113.316 132.148 113.316 131.644C113.316 131.14 113.256 130.684 113.136 130.276C113.016 129.856 112.842 129.496 112.614 129.196C112.398 128.896 112.134 128.668 111.822 128.512C111.51 128.344 111.168 128.26 110.796 128.26C110.424 128.26 110.082 128.344 109.77 128.512C109.458 128.668 109.188 128.896 108.96 129.196C108.744 129.496 108.576 129.856 108.456 130.276C108.336 130.684 108.276 131.14 108.276 131.644ZM123.381 125.452H119.817V124.192H128.457V125.452H124.893V136H123.381V125.452ZM129.613 127.252H130.837L130.963 128.836H131.017C131.317 128.284 131.677 127.846 132.097 127.522C132.529 127.198 132.997 127.036 133.501 127.036C133.849 127.036 134.161 127.096 134.437 127.216L134.149 128.512C134.005 128.464 133.873 128.428 133.753 128.404C133.633 128.38 133.483 128.368 133.303 128.368C132.931 128.368 132.541 128.518 132.133 128.818C131.737 129.118 131.389 129.64 131.089 130.384V136H129.613V127.252ZM134.964 133.732C134.964 132.772 135.39 132.04 136.242 131.536C137.106 131.02 138.474 130.66 140.346 130.456C140.346 130.18 140.316 129.91 140.256 129.646C140.208 129.382 140.112 129.148 139.968 128.944C139.836 128.74 139.656 128.578 139.428 128.458C139.2 128.326 138.906 128.26 138.546 128.26C138.03 128.26 137.55 128.356 137.106 128.548C136.674 128.74 136.284 128.956 135.936 129.196L135.342 128.17C135.75 127.906 136.248 127.654 136.836 127.414C137.424 127.162 138.072 127.036 138.78 127.036C139.848 127.036 140.622 127.366 141.102 128.026C141.582 128.674 141.822 129.544 141.822 130.636V136H140.598L140.472 134.956H140.436C140.016 135.304 139.56 135.604 139.068 135.856C138.588 136.096 138.078 136.216 137.538 136.216C136.794 136.216 136.176 136 135.684 135.568C135.204 135.136 134.964 134.524 134.964 133.732ZM136.422 133.624C136.422 134.128 136.566 134.488 136.854 134.704C137.154 134.92 137.52 135.028 137.952 135.028C138.372 135.028 138.768 134.932 139.14 134.74C139.524 134.536 139.926 134.242 140.346 133.858V131.428C139.614 131.524 138.996 131.638 138.492 131.77C137.988 131.902 137.58 132.058 137.268 132.238C136.968 132.418 136.752 132.628 136.62 132.868C136.488 133.096 136.422 133.348 136.422 133.624ZM143.959 131.644C143.959 130.912 144.073 130.264 144.301 129.7C144.529 129.124 144.835 128.638 145.219 128.242C145.603 127.846 146.047 127.546 146.551 127.342C147.067 127.138 147.607 127.036 148.171 127.036C148.747 127.036 149.239 127.144 149.647 127.36C150.067 127.564 150.427 127.804 150.727 128.08L149.989 129.034C149.725 128.806 149.449 128.62 149.161 128.476C148.885 128.332 148.573 128.26 148.225 128.26C147.829 128.26 147.463 128.344 147.127 128.512C146.791 128.668 146.503 128.896 146.263 129.196C146.023 129.496 145.831 129.856 145.687 130.276C145.555 130.684 145.489 131.14 145.489 131.644C145.489 132.148 145.555 132.604 145.687 133.012C145.819 133.42 145.999 133.774 146.227 134.074C146.467 134.362 146.755 134.59 147.091 134.758C147.427 134.914 147.793 134.992 148.189 134.992C148.609 134.992 148.987 134.908 149.323 134.74C149.671 134.56 149.977 134.35 150.241 134.11L150.907 135.082C150.511 135.43 150.067 135.706 149.575 135.91C149.095 136.114 148.591 136.216 148.063 136.216C147.487 136.216 146.947 136.114 146.443 135.91C145.939 135.706 145.501 135.412 145.129 135.028C144.769 134.632 144.481 134.152 144.265 133.588C144.061 133.012 143.959 132.364 143.959 131.644ZM152.327 138.412C152.423 138.436 152.531 138.46 152.651 138.484C152.771 138.52 152.885 138.538 152.993 138.538C153.497 138.538 153.905 138.358 154.217 137.998C154.541 137.65 154.793 137.206 154.973 136.666L155.171 136.018L151.661 127.252H153.191L154.973 132.094C155.105 132.478 155.243 132.886 155.387 133.318C155.543 133.738 155.687 134.152 155.819 134.56H155.891C156.023 134.164 156.149 133.75 156.269 133.318C156.389 132.886 156.509 132.478 156.629 132.094L158.195 127.252H159.635L156.341 136.72C156.185 137.152 156.011 137.554 155.819 137.926C155.627 138.298 155.399 138.616 155.135 138.88C154.871 139.156 154.571 139.372 154.235 139.528C153.899 139.684 153.509 139.762 153.065 139.762C152.861 139.762 152.675 139.744 152.507 139.708C152.339 139.684 152.183 139.642 152.039 139.582L152.327 138.412Z" fill="white"/>
<path d="M77.7636 468.128L77.2676 469.728H80.4196L79.9236 468.128C79.7316 467.541 79.5503 466.96 79.3796 466.384C79.209 465.797 79.0383 465.2 78.8676 464.592H78.8036C78.6436 465.2 78.4783 465.797 78.3076 466.384C78.137 466.96 77.9556 467.541 77.7636 468.128ZM74.5636 474L78.1156 463.504H79.6196L83.1716 474H81.7476L80.7556 470.8H76.9316L75.9236 474H74.5636ZM85.9228 474.192C85.4214 474.192 85.0641 474.043 84.8508 473.744C84.6374 473.445 84.5308 473.008 84.5308 472.432V462.608H85.8428V472.528C85.8428 472.741 85.8801 472.891 85.9548 472.976C86.0294 473.061 86.1148 473.104 86.2108 473.104C86.2534 473.104 86.2908 473.104 86.3228 473.104C86.3654 473.104 86.4241 473.093 86.4988 473.072L86.6748 474.064C86.5894 474.107 86.4881 474.139 86.3708 474.16C86.2534 474.181 86.1041 474.192 85.9228 474.192ZM88.6089 474V466.224H89.6969L89.8089 467.632H89.8569C90.1235 467.141 90.4435 466.752 90.8169 466.464C91.2009 466.176 91.6169 466.032 92.0649 466.032C92.3742 466.032 92.6515 466.085 92.8969 466.192L92.6409 467.344C92.5129 467.301 92.3955 467.269 92.2889 467.248C92.1822 467.227 92.0489 467.216 91.8889 467.216C91.5582 467.216 91.2115 467.349 90.8489 467.616C90.4969 467.883 90.1875 468.347 89.9209 469.008V474H88.6089ZM97.1515 474.192C96.6288 474.192 96.1382 474.101 95.6795 473.92C95.2315 473.728 94.8368 473.461 94.4955 473.12C94.1648 472.768 93.9035 472.341 93.7115 471.84C93.5195 471.339 93.4235 470.768 93.4235 470.128C93.4235 469.488 93.5195 468.917 93.7115 468.416C93.9142 467.904 94.1755 467.472 94.4955 467.12C94.8262 466.768 95.1995 466.501 95.6155 466.32C96.0315 466.128 96.4635 466.032 96.9115 466.032C97.4022 466.032 97.8395 466.117 98.2235 466.288C98.6182 466.459 98.9435 466.704 99.1995 467.024C99.4662 467.344 99.6688 467.728 99.8075 468.176C99.9462 468.624 100.016 469.125 100.016 469.68C100.016 469.819 100.01 469.957 99.9995 470.096C99.9995 470.224 99.9888 470.336 99.9675 470.432H94.7195C94.7728 471.264 95.0288 471.925 95.4875 472.416C95.9568 472.896 96.5648 473.136 97.3115 473.136C97.6848 473.136 98.0262 473.083 98.3355 472.976C98.6555 472.859 98.9595 472.709 99.2475 472.528L99.7115 473.392C99.3702 473.605 98.9915 473.792 98.5755 473.952C98.1595 474.112 97.6848 474.192 97.1515 474.192ZM94.7035 469.488H98.8635C98.8635 468.699 98.6928 468.101 98.3515 467.696C98.0208 467.28 97.5515 467.072 96.9435 467.072C96.6662 467.072 96.3995 467.125 96.1435 467.232C95.8982 467.339 95.6742 467.499 95.4715 467.712C95.2688 467.915 95.0982 468.165 94.9595 468.464C94.8315 468.763 94.7462 469.104 94.7035 469.488ZM103.51 474.192C102.86 474.192 102.316 474 101.878 473.616C101.452 473.232 101.238 472.688 101.238 471.984C101.238 471.131 101.617 470.48 102.374 470.032C103.132 469.573 104.342 469.253 106.006 469.072C106.006 468.827 105.98 468.587 105.926 468.352C105.884 468.117 105.804 467.909 105.686 467.728C105.569 467.547 105.404 467.403 105.19 467.296C104.988 467.179 104.726 467.12 104.406 467.12C103.958 467.12 103.537 467.205 103.142 467.376C102.748 467.547 102.396 467.739 102.086 467.952L101.574 467.04C101.937 466.805 102.38 466.581 102.902 466.368C103.425 466.144 104.001 466.032 104.63 466.032C105.58 466.032 106.268 466.325 106.694 466.912C107.121 467.488 107.334 468.261 107.334 469.232V474H106.246L106.134 473.072H106.086C105.713 473.381 105.313 473.648 104.886 473.872C104.46 474.085 104.001 474.192 103.51 474.192ZM103.894 473.136C104.268 473.136 104.62 473.051 104.95 472.88C105.281 472.699 105.633 472.437 106.006 472.096V469.936C105.356 470.021 104.806 470.123 104.358 470.24C103.921 470.357 103.564 470.496 103.286 470.656C103.02 470.816 102.822 471.003 102.694 471.216C102.577 471.419 102.518 471.643 102.518 471.888C102.518 472.336 102.652 472.656 102.918 472.848C103.185 473.04 103.51 473.136 103.894 473.136ZM112.437 474.192C111.455 474.192 110.671 473.84 110.085 473.136C109.509 472.432 109.221 471.429 109.221 470.128C109.221 469.499 109.311 468.933 109.493 468.432C109.685 467.92 109.935 467.488 110.245 467.136C110.554 466.784 110.911 466.512 111.317 466.32C111.722 466.128 112.149 466.032 112.597 466.032C113.045 466.032 113.434 466.112 113.765 466.272C114.095 466.432 114.431 466.651 114.773 466.928L114.709 465.6V462.608H116.037V474H114.949L114.837 473.088H114.789C114.479 473.387 114.122 473.648 113.717 473.872C113.322 474.085 112.895 474.192 112.437 474.192ZM112.725 473.088C113.087 473.088 113.429 473.003 113.749 472.832C114.069 472.651 114.389 472.379 114.709 472.016V467.952C114.378 467.653 114.058 467.445 113.749 467.328C113.45 467.2 113.141 467.136 112.821 467.136C112.511 467.136 112.218 467.211 111.941 467.36C111.674 467.499 111.439 467.701 111.237 467.968C111.034 468.224 110.874 468.533 110.757 468.896C110.639 469.259 110.581 469.664 110.581 470.112C110.581 471.051 110.767 471.781 111.141 472.304C111.514 472.827 112.042 473.088 112.725 473.088ZM118.784 477.344C118.602 477.344 118.437 477.328 118.288 477.296C118.138 477.275 118 477.237 117.872 477.184L118.128 476.144C118.213 476.165 118.309 476.187 118.416 476.208C118.522 476.24 118.624 476.256 118.72 476.256C119.168 476.256 119.53 476.096 119.808 475.776C120.096 475.467 120.32 475.072 120.48 474.592L120.656 474.016L117.536 466.224H118.896L120.48 470.528C120.597 470.869 120.72 471.232 120.848 471.616C120.986 471.989 121.114 472.357 121.232 472.72H121.296C121.413 472.368 121.525 472 121.632 471.616C121.738 471.232 121.845 470.869 121.952 470.528L123.344 466.224H124.624L121.696 474.64C121.557 475.024 121.402 475.381 121.232 475.712C121.061 476.043 120.858 476.325 120.624 476.56C120.389 476.805 120.122 476.997 119.824 477.136C119.525 477.275 119.178 477.344 118.784 477.344ZM129.328 474V462.608H130.64V465.712L130.592 467.312C130.965 466.96 131.354 466.661 131.76 466.416C132.165 466.16 132.64 466.032 133.184 466.032C134.005 466.032 134.602 466.288 134.976 466.8C135.36 467.312 135.552 468.069 135.552 469.072V474H134.24V469.248C134.24 468.512 134.122 467.984 133.888 467.664C133.653 467.333 133.28 467.168 132.768 467.168C132.362 467.168 132.005 467.269 131.696 467.472C131.386 467.675 131.034 467.973 130.64 468.368V474H129.328ZM139.823 474.192C139.172 474.192 138.628 474 138.191 473.616C137.764 473.232 137.551 472.688 137.551 471.984C137.551 471.131 137.929 470.48 138.687 470.032C139.444 469.573 140.655 469.253 142.319 469.072C142.319 468.827 142.292 468.587 142.239 468.352C142.196 468.117 142.116 467.909 141.999 467.728C141.881 467.547 141.716 467.403 141.503 467.296C141.3 467.179 141.039 467.12 140.719 467.12C140.271 467.12 139.849 467.205 139.455 467.376C139.06 467.547 138.708 467.739 138.399 467.952L137.887 467.04C138.249 466.805 138.692 466.581 139.215 466.368C139.737 466.144 140.313 466.032 140.943 466.032C141.892 466.032 142.58 466.325 143.007 466.912C143.433 467.488 143.647 468.261 143.647 469.232V474H142.559L142.447 473.072H142.399C142.025 473.381 141.625 473.648 141.199 473.872C140.772 474.085 140.313 474.192 139.823 474.192ZM140.207 473.136C140.58 473.136 140.932 473.051 141.263 472.88C141.593 472.699 141.945 472.437 142.319 472.096V469.936C141.668 470.021 141.119 470.123 140.671 470.24C140.233 470.357 139.876 470.496 139.599 470.656C139.332 470.816 139.135 471.003 139.007 471.216C138.889 471.419 138.831 471.643 138.831 471.888C138.831 472.336 138.964 472.656 139.231 472.848C139.497 473.04 139.823 473.136 140.207 473.136ZM147.773 474L144.973 466.224H146.333L147.805 470.64C147.923 471.024 148.04 471.408 148.157 471.792C148.285 472.176 148.408 472.555 148.525 472.928H148.589C148.707 472.555 148.824 472.176 148.941 471.792C149.059 471.408 149.176 471.024 149.293 470.64L150.765 466.224H152.061L149.309 474H147.773ZM156.652 474.192C156.129 474.192 155.638 474.101 155.18 473.92C154.732 473.728 154.337 473.461 153.996 473.12C153.665 472.768 153.404 472.341 153.212 471.84C153.02 471.339 152.924 470.768 152.924 470.128C152.924 469.488 153.02 468.917 153.212 468.416C153.414 467.904 153.676 467.472 153.996 467.12C154.326 466.768 154.7 466.501 155.116 466.32C155.532 466.128 155.964 466.032 156.411 466.032C156.902 466.032 157.34 466.117 157.724 466.288C158.118 466.459 158.444 466.704 158.7 467.024C158.966 467.344 159.169 467.728 159.308 468.176C159.446 468.624 159.516 469.125 159.516 469.68C159.516 469.819 159.51 469.957 159.5 470.096C159.5 470.224 159.489 470.336 159.468 470.432H154.22C154.273 471.264 154.529 471.925 154.988 472.416C155.457 472.896 156.065 473.136 156.812 473.136C157.185 473.136 157.526 473.083 157.836 472.976C158.156 472.859 158.46 472.709 158.748 472.528L159.212 473.392C158.87 473.605 158.492 473.792 158.076 473.952C157.66 474.112 157.185 474.192 156.652 474.192ZM154.204 469.488H158.364C158.364 468.699 158.193 468.101 157.852 467.696C157.521 467.28 157.052 467.072 156.444 467.072C156.166 467.072 155.9 467.125 155.644 467.232C155.398 467.339 155.174 467.499 154.972 467.712C154.769 467.915 154.598 468.165 154.46 468.464C154.332 468.763 154.246 469.104 154.204 469.488ZM166.432 474.192C165.781 474.192 165.237 474 164.8 473.616C164.373 473.232 164.16 472.688 164.16 471.984C164.16 471.131 164.539 470.48 165.296 470.032C166.053 469.573 167.264 469.253 168.928 469.072C168.928 468.827 168.901 468.587 168.848 468.352C168.805 468.117 168.725 467.909 168.608 467.728C168.491 467.547 168.325 467.403 168.112 467.296C167.909 467.179 167.648 467.12 167.328 467.12C166.88 467.12 166.459 467.205 166.064 467.376C165.669 467.547 165.317 467.739 165.008 467.952L164.496 467.04C164.859 466.805 165.301 466.581 165.824 466.368C166.347 466.144 166.923 466.032 167.552 466.032C168.501 466.032 169.189 466.325 169.616 466.912C170.043 467.488 170.256 468.261 170.256 469.232V474H169.168L169.056 473.072H169.008C168.635 473.381 168.235 473.648 167.808 473.872C167.381 474.085 166.923 474.192 166.432 474.192ZM166.816 473.136C167.189 473.136 167.541 473.051 167.872 472.88C168.203 472.699 168.555 472.437 168.928 472.096V469.936C168.277 470.021 167.728 470.123 167.28 470.24C166.843 470.357 166.485 470.496 166.208 470.656C165.941 470.816 165.744 471.003 165.616 471.216C165.499 471.419 165.44 471.643 165.44 471.888C165.44 472.336 165.573 472.656 165.84 472.848C166.107 473.04 166.432 473.136 166.816 473.136ZM172.703 474V466.224H173.791L173.903 467.344H173.951C174.324 466.971 174.713 466.661 175.119 466.416C175.535 466.16 176.015 466.032 176.559 466.032C177.38 466.032 177.977 466.288 178.351 466.8C178.735 467.312 178.927 468.069 178.927 469.072V474H177.615V469.248C177.615 468.512 177.497 467.984 177.263 467.664C177.028 467.333 176.655 467.168 176.143 467.168C175.737 467.168 175.38 467.269 175.071 467.472C174.761 467.675 174.409 467.973 174.015 468.368V474H172.703ZM186.448 474.192C185.797 474.192 185.253 474 184.816 473.616C184.389 473.232 184.176 472.688 184.176 471.984C184.176 471.131 184.554 470.48 185.312 470.032C186.069 469.573 187.28 469.253 188.944 469.072C188.944 468.827 188.917 468.587 188.864 468.352C188.821 468.117 188.741 467.909 188.624 467.728C188.506 467.547 188.341 467.403 188.128 467.296C187.925 467.179 187.664 467.12 187.344 467.12C186.896 467.12 186.474 467.205 186.08 467.376C185.685 467.547 185.333 467.739 185.024 467.952L184.512 467.04C184.874 466.805 185.317 466.581 185.84 466.368C186.362 466.144 186.938 466.032 187.568 466.032C188.517 466.032 189.205 466.325 189.632 466.912C190.058 467.488 190.272 468.261 190.272 469.232V474H189.184L189.072 473.072H189.024C188.65 473.381 188.25 473.648 187.824 473.872C187.397 474.085 186.938 474.192 186.448 474.192ZM186.832 473.136C187.205 473.136 187.557 473.051 187.888 472.88C188.218 472.699 188.57 472.437 188.944 472.096V469.936C188.293 470.021 187.744 470.123 187.296 470.24C186.858 470.357 186.501 470.496 186.224 470.656C185.957 470.816 185.76 471.003 185.632 471.216C185.514 471.419 185.456 471.643 185.456 471.888C185.456 472.336 185.589 472.656 185.856 472.848C186.122 473.04 186.448 473.136 186.832 473.136ZM195.79 474.192C195.278 474.192 194.798 474.101 194.35 473.92C193.902 473.739 193.513 473.477 193.182 473.136C192.862 472.784 192.606 472.357 192.414 471.856C192.233 471.344 192.142 470.768 192.142 470.128C192.142 469.477 192.244 468.901 192.446 468.4C192.649 467.888 192.921 467.456 193.262 467.104C193.604 466.752 193.998 466.485 194.446 466.304C194.905 466.123 195.385 466.032 195.886 466.032C196.398 466.032 196.836 466.123 197.198 466.304C197.561 466.485 197.881 466.699 198.158 466.944L197.486 467.808C197.262 467.605 197.022 467.44 196.766 467.312C196.521 467.184 196.244 467.12 195.934 467.12C195.582 467.12 195.257 467.195 194.958 467.344C194.66 467.483 194.404 467.685 194.19 467.952C193.977 468.219 193.806 468.539 193.678 468.912C193.561 469.275 193.502 469.68 193.502 470.128C193.502 470.576 193.561 470.981 193.678 471.344C193.796 471.707 193.956 472.021 194.158 472.288C194.372 472.544 194.628 472.747 194.926 472.896C195.225 473.035 195.55 473.104 195.902 473.104C196.265 473.104 196.596 473.029 196.894 472.88C197.204 472.72 197.481 472.533 197.726 472.32L198.302 473.2C197.95 473.509 197.561 473.755 197.134 473.936C196.708 474.107 196.26 474.192 195.79 474.192ZM202.743 474.192C202.231 474.192 201.751 474.101 201.303 473.92C200.855 473.739 200.466 473.477 200.135 473.136C199.815 472.784 199.559 472.357 199.367 471.856C199.186 471.344 199.095 470.768 199.095 470.128C199.095 469.477 199.197 468.901 199.399 468.4C199.602 467.888 199.874 467.456 200.215 467.104C200.557 466.752 200.951 466.485 201.399 466.304C201.858 466.123 202.338 466.032 202.839 466.032C203.351 466.032 203.789 466.123 204.151 466.304C204.514 466.485 204.834 466.699 205.111 466.944L204.439 467.808C204.215 467.605 203.975 467.44 203.719 467.312C203.474 467.184 203.197 467.12 202.887 467.12C202.535 467.12 202.21 467.195 201.911 467.344C201.613 467.483 201.357 467.685 201.143 467.952C200.93 468.219 200.759 468.539 200.631 468.912C200.514 469.275 200.455 469.68 200.455 470.128C200.455 470.576 200.514 470.981 200.631 471.344C200.749 471.707 200.909 472.021 201.111 472.288C201.325 472.544 201.581 472.747 201.879 472.896C202.178 473.035 202.503 473.104 202.855 473.104C203.218 473.104 203.549 473.029 203.847 472.88C204.157 472.72 204.434 472.533 204.679 472.32L205.255 473.2C204.903 473.509 204.514 473.755 204.087 473.936C203.661 474.107 203.213 474.192 202.743 474.192ZM209.649 474.192C209.169 474.192 208.71 474.101 208.273 473.92C207.846 473.739 207.467 473.477 207.137 473.136C206.806 472.784 206.539 472.357 206.337 471.856C206.145 471.344 206.049 470.768 206.049 470.128C206.049 469.477 206.145 468.901 206.337 468.4C206.539 467.888 206.806 467.456 207.137 467.104C207.467 466.752 207.846 466.485 208.273 466.304C208.71 466.123 209.169 466.032 209.649 466.032C210.129 466.032 210.582 466.123 211.009 466.304C211.446 466.485 211.83 466.752 212.161 467.104C212.491 467.456 212.753 467.888 212.945 468.4C213.147 468.901 213.249 469.477 213.249 470.128C213.249 470.768 213.147 471.344 212.945 471.856C212.753 472.357 212.491 472.784 212.161 473.136C211.83 473.477 211.446 473.739 211.009 473.92C210.582 474.101 210.129 474.192 209.649 474.192ZM209.649 473.104C209.979 473.104 210.283 473.035 210.561 472.896C210.838 472.747 211.073 472.544 211.265 472.288C211.467 472.021 211.622 471.707 211.729 471.344C211.835 470.981 211.889 470.576 211.889 470.128C211.889 469.68 211.835 469.275 211.729 468.912C211.622 468.539 211.467 468.219 211.265 467.952C211.073 467.685 210.838 467.483 210.561 467.344C210.283 467.195 209.979 467.12 209.649 467.12C209.318 467.12 209.014 467.195 208.737 467.344C208.459 467.483 208.219 467.685 208.017 467.952C207.825 468.219 207.675 468.539 207.569 468.912C207.462 469.275 207.409 469.68 207.409 470.128C207.409 470.576 207.462 470.981 207.569 471.344C207.675 471.707 207.825 472.021 208.017 472.288C208.219 472.544 208.459 472.747 208.737 472.896C209.014 473.035 209.318 473.104 209.649 473.104ZM217.568 474.192C216.736 474.192 216.128 473.936 215.744 473.424C215.371 472.912 215.184 472.155 215.184 471.152V466.224H216.512V470.976C216.512 471.712 216.624 472.245 216.848 472.576C217.083 472.896 217.456 473.056 217.968 473.056C218.374 473.056 218.731 472.955 219.04 472.752C219.35 472.539 219.691 472.203 220.064 471.744V466.224H221.376V474H220.288L220.176 472.784H220.128C219.766 473.211 219.382 473.552 218.976 473.808C218.582 474.064 218.112 474.192 217.568 474.192ZM224 474V466.224H225.088L225.2 467.344H225.248C225.621 466.971 226.01 466.661 226.416 466.416C226.832 466.16 227.312 466.032 227.856 466.032C228.677 466.032 229.274 466.288 229.648 466.8C230.032 467.312 230.224 468.069 230.224 469.072V474H228.912V469.248C228.912 468.512 228.794 467.984 228.56 467.664C228.325 467.333 227.952 467.168 227.44 467.168C227.034 467.168 226.677 467.269 226.368 467.472C226.058 467.675 225.706 467.973 225.312 468.368V474H224ZM235.198 474.192C234.782 474.192 234.43 474.128 234.142 474C233.864 473.872 233.635 473.696 233.454 473.472C233.283 473.248 233.16 472.976 233.086 472.656C233.011 472.336 232.974 471.984 232.974 471.6V467.296H231.822V466.304L233.038 466.224L233.198 464.048H234.302V466.224H236.398V467.296H234.302V471.616C234.302 472.096 234.387 472.469 234.558 472.736C234.739 472.992 235.054 473.12 235.502 473.12C235.64 473.12 235.79 473.099 235.95 473.056C236.11 473.013 236.254 472.965 236.382 472.912L236.638 473.904C236.424 473.979 236.19 474.043 235.934 474.096C235.688 474.16 235.443 474.192 235.198 474.192ZM238.982 470.832C238.918 470.416 238.929 470.043 239.014 469.712C239.11 469.371 239.238 469.061 239.398 468.784C239.558 468.496 239.739 468.229 239.942 467.984C240.155 467.739 240.353 467.499 240.534 467.264C240.715 467.019 240.865 466.773 240.982 466.528C241.11 466.283 241.174 466.016 241.174 465.728C241.174 465.301 241.041 464.939 240.774 464.64C240.518 464.331 240.134 464.176 239.622 464.176C239.27 464.176 238.934 464.261 238.614 464.432C238.305 464.592 238.027 464.816 237.782 465.104L237.03 464.416C237.371 464.032 237.766 463.717 238.214 463.472C238.673 463.216 239.195 463.088 239.782 463.088C240.593 463.088 241.238 463.317 241.718 463.776C242.209 464.224 242.454 464.848 242.454 465.648C242.454 466 242.39 466.32 242.262 466.608C242.134 466.896 241.974 467.168 241.782 467.424C241.601 467.68 241.403 467.936 241.19 468.192C240.987 468.437 240.795 468.693 240.614 468.96C240.443 469.227 240.31 469.515 240.214 469.824C240.118 470.123 240.091 470.459 240.134 470.832H238.982ZM239.59 474.192C239.323 474.192 239.099 474.101 238.918 473.92C238.737 473.728 238.646 473.488 238.646 473.2C238.646 472.891 238.737 472.645 238.918 472.464C239.099 472.272 239.323 472.176 239.59 472.176C239.857 472.176 240.081 472.272 240.262 472.464C240.454 472.645 240.55 472.891 240.55 473.2C240.55 473.488 240.454 473.728 240.262 473.92C240.081 474.101 239.857 474.192 239.59 474.192ZM247.654 474V463.568H250.006V472.016H254.134V474H247.654ZM258.932 474.192C258.431 474.192 257.946 474.101 257.476 473.92C257.007 473.728 256.591 473.456 256.228 473.104C255.876 472.752 255.594 472.32 255.38 471.808C255.167 471.285 255.06 470.693 255.06 470.032C255.06 469.371 255.167 468.784 255.38 468.272C255.594 467.749 255.876 467.312 256.228 466.96C256.591 466.608 257.007 466.341 257.476 466.16C257.946 465.968 258.431 465.872 258.932 465.872C259.434 465.872 259.914 465.968 260.372 466.16C260.842 466.341 261.252 466.608 261.604 466.96C261.967 467.312 262.255 467.749 262.468 468.272C262.682 468.784 262.788 469.371 262.788 470.032C262.788 470.693 262.682 471.285 262.468 471.808C262.255 472.32 261.967 472.752 261.604 473.104C261.252 473.456 260.842 473.728 260.372 473.92C259.914 474.101 259.434 474.192 258.932 474.192ZM258.932 472.288C259.412 472.288 259.775 472.085 260.02 471.68C260.266 471.275 260.388 470.725 260.388 470.032C260.388 469.339 260.266 468.789 260.02 468.384C259.775 467.979 259.412 467.776 258.932 467.776C258.442 467.776 258.074 467.979 257.828 468.384C257.594 468.789 257.476 469.339 257.476 470.032C257.476 470.725 257.594 471.275 257.828 471.68C258.074 472.085 258.442 472.288 258.932 472.288ZM267.231 477.376C266.762 477.376 266.325 477.333 265.919 477.248C265.525 477.173 265.173 477.056 264.863 476.896C264.565 476.736 264.33 476.528 264.159 476.272C263.989 476.016 263.903 475.712 263.903 475.36C263.903 474.72 264.282 474.187 265.039 473.76V473.696C264.826 473.557 264.65 473.381 264.511 473.168C264.373 472.955 264.303 472.683 264.303 472.352C264.303 472.064 264.389 471.792 264.559 471.536C264.73 471.269 264.943 471.045 265.199 470.864V470.8C264.922 470.608 264.671 470.336 264.447 469.984C264.234 469.621 264.127 469.205 264.127 468.736C264.127 468.256 264.218 467.84 264.399 467.488C264.581 467.125 264.821 466.827 265.119 466.592C265.429 466.347 265.781 466.165 266.175 466.048C266.57 465.931 266.981 465.872 267.407 465.872C267.877 465.872 268.287 465.936 268.639 466.064H271.535V467.776H270.271C270.346 467.893 270.405 468.043 270.447 468.224C270.501 468.405 270.527 468.603 270.527 468.816C270.527 469.275 270.447 469.675 270.287 470.016C270.127 470.347 269.903 470.624 269.615 470.848C269.338 471.061 269.007 471.221 268.623 471.328C268.25 471.435 267.845 471.488 267.407 471.488C267.098 471.488 266.778 471.435 266.447 471.328C266.341 471.413 266.266 471.499 266.223 471.584C266.181 471.669 266.159 471.781 266.159 471.92C266.159 472.123 266.245 472.272 266.415 472.368C266.597 472.464 266.911 472.512 267.359 472.512H268.639C269.621 472.512 270.367 472.672 270.879 472.992C271.402 473.301 271.663 473.813 271.663 474.528C271.663 474.944 271.557 475.323 271.343 475.664C271.141 476.016 270.847 476.315 270.463 476.56C270.079 476.816 269.615 477.013 269.071 477.152C268.527 477.301 267.914 477.376 267.231 477.376ZM267.407 470.064C267.717 470.064 267.973 469.957 268.175 469.744C268.389 469.52 268.495 469.184 268.495 468.736C268.495 468.32 268.389 468.005 268.175 467.792C267.973 467.568 267.717 467.456 267.407 467.456C267.098 467.456 266.837 467.563 266.623 467.776C266.421 467.989 266.319 468.309 266.319 468.736C266.319 469.184 266.421 469.52 266.623 469.744C266.837 469.957 267.098 470.064 267.407 470.064ZM267.599 475.904C268.133 475.904 268.57 475.808 268.911 475.616C269.253 475.435 269.423 475.205 269.423 474.928C269.423 474.683 269.317 474.517 269.103 474.432C268.901 474.347 268.602 474.304 268.207 474.304H267.391C267.114 474.304 266.89 474.293 266.719 474.272C266.549 474.261 266.399 474.24 266.271 474.208C265.983 474.464 265.839 474.725 265.839 474.992C265.839 475.291 265.999 475.515 266.319 475.664C266.639 475.824 267.066 475.904 267.599 475.904ZM272.946 474V466.064H275.298V474H272.946ZM274.114 464.896C273.72 464.896 273.394 464.784 273.138 464.56C272.882 464.325 272.754 464.027 272.754 463.664C272.754 463.301 272.882 463.008 273.138 462.784C273.394 462.56 273.72 462.448 274.114 462.448C274.52 462.448 274.845 462.56 275.09 462.784C275.346 463.008 275.474 463.301 275.474 463.664C275.474 464.027 275.346 464.325 275.09 464.56C274.845 464.784 274.52 464.896 274.114 464.896ZM277.368 474V466.064H279.288L279.448 467.072H279.512C279.853 466.752 280.227 466.475 280.632 466.24C281.037 465.995 281.512 465.872 282.056 465.872C282.92 465.872 283.544 466.155 283.928 466.72C284.323 467.285 284.52 468.069 284.52 469.072V474H282.168V469.376C282.168 468.8 282.088 468.405 281.928 468.192C281.779 467.979 281.533 467.872 281.192 467.872C280.893 467.872 280.637 467.941 280.424 468.08C280.211 468.208 279.976 468.395 279.72 468.64V474H277.368Z" fill="white"/>
<path d="M246.422 475.6H263.364V476.4H246.422V475.6ZM271.906 475.6H285.48V476.4H271.906V475.6Z" fill="white"/>
<path d="M40 216L320 216" stroke="white" stroke-linecap="round"/>
<path d="M40.924 164.176H42.796L44.104 167.692L44.572 169.06H44.62L45.088 167.692L46.36 164.176H48.22V172H46.576V169.132C46.576 168.94 46.584 168.728 46.6 168.496C46.616 168.264 46.636 168.032 46.66 167.8C46.684 167.56 46.708 167.328 46.732 167.104C46.756 166.872 46.78 166.66 46.804 166.468H46.756L46.108 168.28L44.908 171.316H44.2L43 168.28L42.376 166.468H42.328C42.352 166.66 42.376 166.872 42.4 167.104C42.424 167.328 42.444 167.56 42.46 167.8C42.484 168.032 42.504 168.264 42.52 168.496C42.536 168.728 42.544 168.94 42.544 169.132V172H40.924V164.176ZM53.2446 172.144C52.7166 172.144 52.2326 172.052 51.7926 171.868C51.3606 171.676 50.9886 171.404 50.6766 171.052C50.3646 170.7 50.1206 170.272 49.9446 169.768C49.7766 169.264 49.6926 168.692 49.6926 168.052C49.6926 167.412 49.7766 166.844 49.9446 166.348C50.1206 165.844 50.3646 165.424 50.6766 165.088C50.9886 164.744 51.3606 164.484 51.7926 164.308C52.2326 164.124 52.7166 164.032 53.2446 164.032C53.7726 164.032 54.2526 164.124 54.6846 164.308C55.1246 164.484 55.5006 164.744 55.8126 165.088C56.1246 165.432 56.3646 165.856 56.5326 166.36C56.7086 166.856 56.7966 167.42 56.7966 168.052C56.7966 168.692 56.7086 169.264 56.5326 169.768C56.3646 170.272 56.1246 170.7 55.8126 171.052C55.5006 171.404 55.1246 171.676 54.6846 171.868C54.2526 172.052 53.7726 172.144 53.2446 172.144ZM53.2446 170.62C53.7806 170.62 54.2046 170.392 54.5166 169.936C54.8286 169.472 54.9846 168.844 54.9846 168.052C54.9846 167.268 54.8286 166.656 54.5166 166.216C54.2046 165.776 53.7806 165.556 53.2446 165.556C52.7086 165.556 52.2846 165.776 51.9726 166.216C51.6606 166.656 51.5046 167.268 51.5046 168.052C51.5046 168.844 51.6606 169.472 51.9726 169.936C52.2846 170.392 52.7086 170.62 53.2446 170.62ZM58.2678 164.176H60.9438C61.3518 164.176 61.7278 164.208 62.0718 164.272C62.4238 164.328 62.7278 164.432 62.9838 164.584C63.2478 164.736 63.4518 164.936 63.5958 165.184C63.7478 165.432 63.8238 165.744 63.8238 166.12C63.8238 166.296 63.7958 166.472 63.7398 166.648C63.6918 166.824 63.6158 166.988 63.5117 167.14C63.4078 167.292 63.2718 167.428 63.1038 167.548C62.9358 167.668 62.7398 167.756 62.5158 167.812V167.86C63.0758 167.964 63.4958 168.164 63.7758 168.46C64.0638 168.756 64.2078 169.168 64.2078 169.696C64.2078 170.096 64.1278 170.44 63.9678 170.728C63.8158 171.016 63.5998 171.256 63.3198 171.448C63.0478 171.632 62.7278 171.772 62.3598 171.868C61.9918 171.956 61.5958 172 61.1718 172H58.2678V164.176ZM60.8598 167.332C61.2918 167.332 61.6038 167.248 61.7958 167.08C61.9958 166.904 62.0958 166.668 62.0958 166.372C62.0958 166.076 61.9958 165.864 61.7958 165.736C61.5958 165.608 61.2878 165.544 60.8717 165.544H60.0318V167.332H60.8598ZM61.0278 170.632C61.9958 170.632 62.4798 170.276 62.4798 169.564C62.4798 169.22 62.3598 168.972 62.1198 168.82C61.8798 168.66 61.5158 168.58 61.0278 168.58H60.0318V170.632H61.0278ZM65.5334 164.176H67.2974V172H65.5334V164.176ZM69.1428 164.176H70.9068V170.512H74.0028V172H69.1428V164.176ZM75.3537 164.176H80.2497V165.664H77.1177V167.236H79.7817V168.712H77.1177V170.512H80.3697V172H75.3537V164.176ZM84.424 164.176H86.236L88.276 168.064L89.044 169.792H89.092C89.052 169.376 89.004 168.912 88.948 168.4C88.9 167.888 88.876 167.4 88.876 166.936V164.176H90.556V172H88.744L86.704 168.1L85.936 166.396H85.888C85.928 166.828 85.972 167.292 86.02 167.788C86.076 168.284 86.104 168.764 86.104 169.228V172H84.424V164.176ZM92.3565 164.176H94.1325V168.556C94.1325 169.324 94.2485 169.86 94.4805 170.164C94.7125 170.468 95.0485 170.62 95.4885 170.62C95.9285 170.62 96.2685 170.468 96.5085 170.164C96.7485 169.86 96.8685 169.324 96.8685 168.556V164.176H98.5725V168.376C98.5725 169.688 98.3085 170.644 97.7805 171.244C97.2605 171.844 96.4965 172.144 95.4885 172.144C94.4725 172.144 93.6965 171.844 93.1605 171.244C92.6245 170.644 92.3565 169.688 92.3565 168.376V164.176ZM100.385 164.176H102.257L103.565 167.692L104.033 169.06H104.081L104.549 167.692L105.821 164.176H107.681V172H106.037V169.132C106.037 168.94 106.045 168.728 106.061 168.496C106.077 168.264 106.097 168.032 106.121 167.8C106.145 167.56 106.169 167.328 106.193 167.104C106.217 166.872 106.241 166.66 106.265 166.468H106.217L105.569 168.28L104.369 171.316H103.661L102.461 168.28L101.837 166.468H101.789C101.813 166.66 101.837 166.872 101.861 167.104C101.885 167.328 101.905 167.56 101.921 167.8C101.945 168.032 101.965 168.264 101.981 168.496C101.997 168.728 102.005 168.94 102.005 169.132V172H100.385V164.176ZM109.526 164.176H112.202C112.61 164.176 112.986 164.208 113.33 164.272C113.682 164.328 113.986 164.432 114.242 164.584C114.506 164.736 114.71 164.936 114.854 165.184C115.006 165.432 115.082 165.744 115.082 166.12C115.082 166.296 115.054 166.472 114.998 166.648C114.95 166.824 114.874 166.988 114.77 167.14C114.666 167.292 114.53 167.428 114.362 167.548C114.194 167.668 113.998 167.756 113.774 167.812V167.86C114.334 167.964 114.754 168.164 115.034 168.46C115.322 168.756 115.466 169.168 115.466 169.696C115.466 170.096 115.386 170.44 115.226 170.728C115.074 171.016 114.858 171.256 114.578 171.448C114.306 171.632 113.986 171.772 113.618 171.868C113.25 171.956 112.854 172 112.43 172H109.526V164.176ZM112.118 167.332C112.55 167.332 112.862 167.248 113.054 167.08C113.254 166.904 113.354 166.668 113.354 166.372C113.354 166.076 113.254 165.864 113.054 165.736C112.854 165.608 112.546 165.544 112.13 165.544H111.29V167.332H112.118ZM112.286 170.632C113.254 170.632 113.738 170.276 113.738 169.564C113.738 169.22 113.618 168.972 113.378 168.82C113.138 168.66 112.774 168.58 112.286 168.58H111.29V170.632H112.286ZM116.791 164.176H121.687V165.664H118.555V167.236H121.219V168.712H118.555V170.512H121.807V172H116.791V164.176ZM125.129 167.776H126.041C126.505 167.776 126.857 167.68 127.097 167.488C127.345 167.288 127.469 166.996 127.469 166.612C127.469 166.228 127.345 165.96 127.097 165.808C126.857 165.656 126.505 165.58 126.041 165.58H125.129V167.776ZM127.601 172L126.101 169.18H125.129V172H123.365V164.176H126.185C126.601 164.176 126.989 164.216 127.349 164.296C127.717 164.376 128.037 164.512 128.309 164.704C128.581 164.888 128.797 165.136 128.957 165.448C129.117 165.76 129.197 166.148 129.197 166.612C129.197 167.188 129.069 167.664 128.813 168.04C128.565 168.408 128.229 168.684 127.805 168.868L129.581 172H127.601Z" fill="#193F78"/>
<rect x="40" y="188" width="1" height="20" fill="white"/>
<path d="M44.6744 193.504H46.2424L48.2744 199.136L49.0424 201.28H49.1064L49.8424 199.136L51.8584 193.504H53.4264V204H52.1624V198.224C52.1624 197.755 52.1784 197.237 52.2104 196.672C52.253 196.107 52.2957 195.589 52.3384 195.12H52.2744L51.4264 197.456L49.4104 202.944H48.6584L46.6264 197.456L45.7944 195.12H45.7304C45.7624 195.589 45.7997 196.107 45.8424 196.672C45.885 197.237 45.9064 197.755 45.9064 198.224V204H44.6744V193.504ZM55.5954 200.128C55.5954 199.477 55.6914 198.901 55.8834 198.4C56.086 197.888 56.3527 197.456 56.6834 197.104C57.014 196.752 57.3927 196.485 57.8194 196.304C58.2567 196.123 58.7154 196.032 59.1954 196.032C59.6754 196.032 60.1287 196.123 60.5554 196.304C60.9927 196.485 61.3767 196.752 61.7074 197.104C62.038 197.456 62.2994 197.888 62.4914 198.4C62.694 198.901 62.7954 199.477 62.7954 200.128C62.7954 200.768 62.694 201.344 62.4914 201.856C62.2994 202.357 62.038 202.784 61.7074 203.136C61.3767 203.477 60.9927 203.739 60.5554 203.92C60.1287 204.101 59.6754 204.192 59.1954 204.192C58.7154 204.192 58.2567 204.101 57.8194 203.92C57.3927 203.739 57.014 203.477 56.6834 203.136C56.3527 202.784 56.086 202.357 55.8834 201.856C55.6914 201.344 55.5954 200.768 55.5954 200.128ZM56.9554 200.128C56.9554 200.576 57.0087 200.981 57.1154 201.344C57.222 201.707 57.3714 202.021 57.5634 202.288C57.766 202.544 58.006 202.747 58.2834 202.896C58.5607 203.035 58.8647 203.104 59.1954 203.104C59.526 203.104 59.83 203.035 60.1074 202.896C60.3847 202.747 60.6194 202.544 60.8114 202.288C61.014 202.021 61.1687 201.707 61.2754 201.344C61.382 200.981 61.4354 200.576 61.4354 200.128C61.4354 199.68 61.382 199.275 61.2754 198.912C61.1687 198.539 61.014 198.219 60.8114 197.952C60.6194 197.685 60.3847 197.483 60.1074 197.344C59.83 197.195 59.526 197.12 59.1954 197.12C58.8647 197.12 58.5607 197.195 58.2834 197.344C58.006 197.483 57.766 197.685 57.5634 197.952C57.3714 198.219 57.222 198.539 57.1154 198.912C57.0087 199.275 56.9554 199.68 56.9554 200.128ZM64.8433 192.608H66.1553V195.712L66.1233 197.12C66.4753 196.811 66.8593 196.555 67.2753 196.352C67.6913 196.139 68.1179 196.032 68.5553 196.032C69.0566 196.032 69.4993 196.128 69.8833 196.32C70.2673 196.501 70.5873 196.768 70.8433 197.12C71.1099 197.461 71.3073 197.877 71.4353 198.368C71.5739 198.848 71.6433 199.387 71.6433 199.984C71.6433 200.645 71.5526 201.237 71.3713 201.76C71.1899 202.283 70.9446 202.725 70.6353 203.088C70.3259 203.451 69.9686 203.728 69.5633 203.92C69.1579 204.101 68.7313 204.192 68.2833 204.192C67.9206 204.192 67.5419 204.112 67.1473 203.952C66.7633 203.781 66.4006 203.541 66.0593 203.232H66.0113L65.8993 204H64.8433V192.608ZM66.1553 202.272C66.4966 202.571 66.8326 202.784 67.1633 202.912C67.5046 203.029 67.8033 203.088 68.0593 203.088C68.3793 203.088 68.6726 203.019 68.9393 202.88C69.2166 202.731 69.4513 202.528 69.6433 202.272C69.8459 202.005 70.0006 201.68 70.1073 201.296C70.2246 200.912 70.2833 200.48 70.2833 200C70.2833 199.573 70.2459 199.184 70.1713 198.832C70.0966 198.48 69.9739 198.181 69.8033 197.936C69.6433 197.68 69.4299 197.483 69.1633 197.344C68.9073 197.205 68.5979 197.136 68.2352 197.136C67.6059 197.136 66.9126 197.488 66.1553 198.192V202.272ZM74.3903 194.624C74.1343 194.624 73.9156 194.544 73.7343 194.384C73.5636 194.224 73.4783 194.021 73.4783 193.776C73.4783 193.52 73.5636 193.317 73.7343 193.168C73.9156 193.008 74.1343 192.928 74.3903 192.928C74.6463 192.928 74.8596 193.008 75.0303 193.168C75.2116 193.317 75.3023 193.52 75.3023 193.776C75.3023 194.021 75.2116 194.224 75.0303 194.384C74.8596 194.544 74.6463 194.624 74.3903 194.624ZM73.7183 196.224H75.0303V204H73.7183V196.224ZM77.6558 192.608H78.9678V202.528C78.9678 202.741 79.0051 202.891 79.0798 202.976C79.1544 203.061 79.2398 203.104 79.3358 203.104C79.3784 203.104 79.4158 203.104 79.4478 203.104C79.4904 203.104 79.5491 203.093 79.6238 203.072L79.7998 204.064C79.7144 204.107 79.6131 204.139 79.4958 204.16C79.3784 204.181 79.2291 204.192 79.0478 204.192C78.5464 204.192 78.1891 204.043 77.9758 203.744C77.7624 203.445 77.6558 203.008 77.6558 202.432V192.608ZM81.1579 200.128C81.1579 199.488 81.2539 198.917 81.4459 198.416C81.6485 197.904 81.9099 197.472 82.2299 197.12C82.5605 196.768 82.9339 196.501 83.3499 196.32C83.7659 196.128 84.1979 196.032 84.6459 196.032C85.1365 196.032 85.5739 196.117 85.9579 196.288C86.3525 196.459 86.6779 196.704 86.9339 197.024C87.2005 197.344 87.4032 197.728 87.5419 198.176C87.6805 198.624 87.7499 199.125 87.7499 199.68C87.7499 199.968 87.7339 200.208 87.7019 200.4H82.4539C82.5072 201.243 82.7632 201.909 83.2219 202.4C83.6912 202.891 84.2992 203.136 85.0459 203.136C85.4192 203.136 85.7605 203.083 86.0699 202.976C86.3899 202.859 86.6939 202.709 86.9819 202.528L87.4459 203.392C87.1045 203.605 86.7259 203.792 86.3099 203.952C85.8939 204.112 85.4192 204.192 84.8859 204.192C84.3632 204.192 83.8725 204.101 83.4139 203.92C82.9659 203.728 82.5712 203.461 82.2299 203.12C81.8992 202.768 81.6379 202.341 81.4459 201.84C81.2539 201.339 81.1579 200.768 81.1579 200.128ZM86.5979 199.536C86.5979 198.736 86.4272 198.128 86.0859 197.712C85.7552 197.285 85.2859 197.072 84.6779 197.072C84.4005 197.072 84.1339 197.131 83.8779 197.248C83.6325 197.355 83.4085 197.515 83.2059 197.728C83.0032 197.931 82.8325 198.187 82.6939 198.496C82.5659 198.795 82.4805 199.141 82.4379 199.536H86.5979ZM92.9058 196.224H93.9938L94.1058 197.344H94.1538C94.5271 196.971 94.9164 196.661 95.3218 196.416C95.7378 196.16 96.2178 196.032 96.7618 196.032C97.5831 196.032 98.1804 196.288 98.5538 196.8C98.9378 197.312 99.1298 198.069 99.1298 199.072V204H97.8178V199.248C97.8178 198.512 97.7004 197.984 97.4658 197.664C97.2311 197.333 96.8578 197.168 96.3458 197.168C95.9404 197.168 95.5831 197.269 95.2738 197.472C94.9644 197.675 94.6124 197.973 94.2178 198.368V204H92.9058V196.224ZM101.544 196.224H102.872V200.976C102.872 201.712 102.984 202.245 103.208 202.576C103.442 202.896 103.816 203.056 104.328 203.056C104.733 203.056 105.09 202.955 105.4 202.752C105.709 202.539 106.05 202.203 106.424 201.744V196.224H107.736V204H106.648L106.536 202.784H106.488C106.125 203.211 105.741 203.552 105.336 203.808C104.941 204.064 104.472 204.192 103.928 204.192C103.096 204.192 102.488 203.936 102.104 203.424C101.73 202.912 101.544 202.155 101.544 201.152V196.224ZM110.359 196.224H111.447L111.559 197.344H111.607C111.948 196.971 112.316 196.661 112.711 196.416C113.116 196.16 113.554 196.032 114.023 196.032C114.62 196.032 115.084 196.165 115.415 196.432C115.756 196.688 116.007 197.051 116.167 197.52C116.572 197.072 116.978 196.715 117.383 196.448C117.799 196.171 118.247 196.032 118.727 196.032C119.527 196.032 120.119 196.288 120.503 196.8C120.898 197.312 121.095 198.069 121.095 199.072V204H119.783V199.248C119.783 198.512 119.666 197.984 119.431 197.664C119.196 197.333 118.834 197.168 118.343 197.168C117.756 197.168 117.106 197.568 116.391 198.368V204H115.079V199.248C115.079 198.512 114.962 197.984 114.727 197.664C114.492 197.333 114.124 197.168 113.623 197.168C113.036 197.168 112.386 197.568 111.671 198.368V204H110.359V196.224ZM123.625 192.608H124.937V195.712L124.905 197.12C125.257 196.811 125.641 196.555 126.057 196.352C126.473 196.139 126.899 196.032 127.337 196.032C127.838 196.032 128.281 196.128 128.665 196.32C129.049 196.501 129.369 196.768 129.625 197.12C129.891 197.461 130.089 197.877 130.217 198.368C130.355 198.848 130.425 199.387 130.425 199.984C130.425 200.645 130.334 201.237 130.153 201.76C129.971 202.283 129.726 202.725 129.417 203.088C129.107 203.451 128.75 203.728 128.345 203.92C127.939 204.101 127.513 204.192 127.065 204.192C126.702 204.192 126.323 204.112 125.929 203.952C125.545 203.781 125.182 203.541 124.841 203.232H124.793L124.681 204H123.625V192.608ZM124.937 202.272C125.278 202.571 125.614 202.784 125.945 202.912C126.286 203.029 126.585 203.088 126.841 203.088C127.161 203.088 127.454 203.019 127.721 202.88C127.998 202.731 128.233 202.528 128.425 202.272C128.627 202.005 128.782 201.68 128.889 201.296C129.006 200.912 129.065 200.48 129.065 200C129.065 199.573 129.027 199.184 128.953 198.832C128.878 198.48 128.755 198.181 128.585 197.936C128.425 197.68 128.211 197.483 127.945 197.344C127.689 197.205 127.379 197.136 127.016 197.136C126.387 197.136 125.694 197.488 124.937 198.192V202.272ZM131.924 200.128C131.924 199.488 132.02 198.917 132.212 198.416C132.414 197.904 132.676 197.472 132.996 197.12C133.326 196.768 133.7 196.501 134.116 196.32C134.532 196.128 134.964 196.032 135.411 196.032C135.902 196.032 136.34 196.117 136.724 196.288C137.118 196.459 137.444 196.704 137.7 197.024C137.966 197.344 138.169 197.728 138.308 198.176C138.446 198.624 138.516 199.125 138.516 199.68C138.516 199.968 138.5 200.208 138.468 200.4H133.22C133.273 201.243 133.529 201.909 133.988 202.4C134.457 202.891 135.065 203.136 135.812 203.136C136.185 203.136 136.526 203.083 136.836 202.976C137.156 202.859 137.46 202.709 137.748 202.528L138.212 203.392C137.87 203.605 137.492 203.792 137.076 203.952C136.66 204.112 136.185 204.192 135.652 204.192C135.129 204.192 134.638 204.101 134.18 203.92C133.732 203.728 133.337 203.461 132.996 203.12C132.665 202.768 132.404 202.341 132.212 201.84C132.02 201.339 131.924 200.768 131.924 200.128ZM137.364 199.536C137.364 198.736 137.193 198.128 136.852 197.712C136.521 197.285 136.052 197.072 135.444 197.072C135.166 197.072 134.9 197.131 134.644 197.248C134.398 197.355 134.174 197.515 133.972 197.728C133.769 197.931 133.598 198.187 133.46 198.496C133.332 198.795 133.246 199.141 133.204 199.536H137.364ZM140.437 196.224H141.525L141.637 197.632H141.685C141.952 197.141 142.272 196.752 142.645 196.464C143.029 196.176 143.445 196.032 143.893 196.032C144.202 196.032 144.48 196.085 144.725 196.192L144.469 197.344C144.341 197.301 144.224 197.269 144.117 197.248C144.01 197.227 143.877 197.216 143.717 197.216C143.386 197.216 143.04 197.349 142.677 197.616C142.325 197.883 142.016 198.347 141.749 199.008V204H140.437V196.224Z" fill="white" fill-opacity="0.5"/>
<path d="M303 196L308 201L313 196H303Z" fill="#193F78"/>
<path d="M40 288L320 288" stroke="white" stroke-opacity="0.1" stroke-linecap="round"/>
<path d="M40.924 236.176H42.736L44.776 240.064L45.544 241.792H45.592C45.552 241.376 45.504 240.912 45.448 240.4C45.4 239.888 45.376 239.4 45.376 238.936V236.176H47.056V244H45.244L43.204 240.1L42.436 238.396H42.388C42.428 238.828 42.472 239.292 42.52 239.788C42.576 240.284 42.604 240.764 42.604 241.228V244H40.924V236.176ZM52.2165 240.76L52.0365 240.04C51.9245 239.648 51.8165 239.232 51.7125 238.792C51.6085 238.352 51.5045 237.928 51.4005 237.52H51.3525C51.2565 237.936 51.1565 238.364 51.0525 238.804C50.9565 239.236 50.8525 239.648 50.7405 240.04L50.5485 240.76H52.2165ZM52.5765 242.14H50.1885L49.7085 244H47.9085L50.3565 236.176H52.4805L54.9285 244H53.0565L52.5765 242.14ZM55.7834 236.176H57.6554L58.9634 239.692L59.4314 241.06H59.4794L59.9474 239.692L61.2194 236.176H63.0794V244H61.4354V241.132C61.4354 240.94 61.4434 240.728 61.4594 240.496C61.4754 240.264 61.4954 240.032 61.5194 239.8C61.5434 239.56 61.5674 239.328 61.5914 239.104C61.6154 238.872 61.6394 238.66 61.6634 238.468H61.6154L60.9674 240.28L59.7674 243.316H59.0594L57.8594 240.28L57.2354 238.468H57.1874C57.2114 238.66 57.2354 238.872 57.2594 239.104C57.2834 239.328 57.3034 239.56 57.3194 239.8C57.3434 240.032 57.3634 240.264 57.3794 240.496C57.3954 240.728 57.4034 240.94 57.4034 241.132V244H55.7834V236.176ZM64.924 236.176H69.82V237.664H66.688V239.236H69.352V240.712H66.688V242.512H69.94V244H64.924V236.176ZM73.9943 236.176H75.8063L77.8463 240.064L78.6143 241.792H78.6623C78.6223 241.376 78.5743 240.912 78.5183 240.4C78.4703 239.888 78.4463 239.4 78.4463 238.936V236.176H80.1263V244H78.3143L76.2743 240.1L75.5063 238.396H75.4583C75.4983 238.828 75.5423 239.292 75.5903 239.788C75.6463 240.284 75.6743 240.764 75.6743 241.228V244H73.9943V236.176ZM81.9268 236.176H83.7028V240.556C83.7028 241.324 83.8188 241.86 84.0508 242.164C84.2828 242.468 84.6188 242.62 85.0588 242.62C85.4988 242.62 85.8388 242.468 86.0788 242.164C86.3188 241.86 86.4388 241.324 86.4388 240.556V236.176H88.1428V240.376C88.1428 241.688 87.8788 242.644 87.3508 243.244C86.8308 243.844 86.0668 244.144 85.0588 244.144C84.0428 244.144 83.2668 243.844 82.7308 243.244C82.1948 242.644 81.9268 241.688 81.9268 240.376V236.176ZM89.9553 236.176H91.8273L93.1353 239.692L93.6033 241.06H93.6513L94.1193 239.692L95.3913 236.176H97.2513V244H95.6073V241.132C95.6073 240.94 95.6153 240.728 95.6313 240.496C95.6473 240.264 95.6673 240.032 95.6913 239.8C95.7153 239.56 95.7393 239.328 95.7633 239.104C95.7873 238.872 95.8113 238.66 95.8353 238.468H95.7873L95.1393 240.28L93.9393 243.316H93.2313L92.0312 240.28L91.4073 238.468H91.3593C91.3833 238.66 91.4073 238.872 91.4313 239.104C91.4553 239.328 91.4753 239.56 91.4913 239.8C91.5153 240.032 91.5353 240.264 91.5513 240.496C91.5673 240.728 91.5753 240.94 91.5753 241.132V244H89.9553V236.176ZM99.0959 236.176H101.772C102.18 236.176 102.556 236.208 102.9 236.272C103.252 236.328 103.556 236.432 103.812 236.584C104.076 236.736 104.28 236.936 104.424 237.184C104.576 237.432 104.652 237.744 104.652 238.12C104.652 238.296 104.624 238.472 104.568 238.648C104.52 238.824 104.444 238.988 104.34 239.14C104.236 239.292 104.1 239.428 103.932 239.548C103.764 239.668 103.568 239.756 103.344 239.812V239.86C103.904 239.964 104.324 240.164 104.604 240.46C104.892 240.756 105.036 241.168 105.036 241.696C105.036 242.096 104.956 242.44 104.796 242.728C104.644 243.016 104.428 243.256 104.148 243.448C103.876 243.632 103.556 243.772 103.188 243.868C102.82 243.956 102.424 244 102 244H99.0959V236.176ZM101.688 239.332C102.12 239.332 102.432 239.248 102.624 239.08C102.824 238.904 102.924 238.668 102.924 238.372C102.924 238.076 102.824 237.864 102.624 237.736C102.424 237.608 102.116 237.544 101.7 237.544H100.86V239.332H101.688ZM101.856 242.632C102.824 242.632 103.308 242.276 103.308 241.564C103.308 241.22 103.188 240.972 102.948 240.82C102.708 240.66 102.344 240.58 101.856 240.58H100.86V242.632H101.856ZM106.362 236.176H111.258V237.664H108.126V239.236H110.79V240.712H108.126V242.512H111.378V244H106.362V236.176ZM114.7 239.776H115.612C116.076 239.776 116.428 239.68 116.668 239.488C116.916 239.288 117.04 238.996 117.04 238.612C117.04 238.228 116.916 237.96 116.668 237.808C116.428 237.656 116.076 237.58 115.612 237.58H114.7V239.776ZM117.172 244L115.672 241.18H114.7V244H112.936V236.176H115.756C116.172 236.176 116.56 236.216 116.92 236.296C117.288 236.376 117.608 236.512 117.88 236.704C118.152 236.888 118.368 237.136 118.528 237.448C118.688 237.76 118.768 238.148 118.768 238.612C118.768 239.188 118.64 239.664 118.384 240.04C118.136 240.408 117.8 240.684 117.376 240.868L119.152 244H117.172Z" fill="#193F78"/>
<path d="M41.44 265.504H42.816L46.608 272.096L47.744 274.272H47.808C47.776 273.739 47.7387 273.189 47.696 272.624C47.664 272.048 47.648 271.483 47.648 270.928V265.504H48.912V276H47.536L43.728 269.392L42.592 267.232H42.528C42.5707 267.765 42.608 268.309 42.64 268.864C42.6827 269.408 42.704 269.957 42.704 270.512V276H41.44V265.504ZM51.2874 273.984C51.2874 273.131 51.666 272.48 52.4234 272.032C53.1914 271.573 54.4074 271.253 56.0714 271.072C56.0714 270.827 56.0447 270.587 55.9914 270.352C55.9487 270.117 55.8634 269.909 55.7354 269.728C55.618 269.547 55.458 269.403 55.2554 269.296C55.0527 269.179 54.7914 269.12 54.4714 269.12C54.0127 269.12 53.586 269.205 53.1914 269.376C52.8074 269.547 52.4607 269.739 52.1514 269.952L51.6234 269.04C51.986 268.805 52.4287 268.581 52.9514 268.368C53.474 268.144 54.05 268.032 54.6794 268.032C55.6287 268.032 56.3167 268.325 56.7434 268.912C57.17 269.488 57.3834 270.261 57.3834 271.232V276H56.2954L56.1834 275.072H56.1514C55.778 275.381 55.3727 275.648 54.9354 275.872C54.5087 276.085 54.0554 276.192 53.5754 276.192C52.914 276.192 52.3647 276 51.9274 275.616C51.5007 275.232 51.2874 274.688 51.2874 273.984ZM52.5834 273.888C52.5834 274.336 52.7114 274.656 52.9674 274.848C53.234 275.04 53.5594 275.136 53.9434 275.136C54.3167 275.136 54.6687 275.051 54.9994 274.88C55.3407 274.699 55.698 274.437 56.0714 274.096V271.936C55.4207 272.021 54.8714 272.123 54.4234 272.24C53.9754 272.357 53.6127 272.496 53.3354 272.656C53.0687 272.816 52.8767 273.003 52.7594 273.216C52.642 273.419 52.5834 273.643 52.5834 273.888ZM59.8589 268.224H60.9469L61.0589 269.344H61.1069C61.4482 268.971 61.8162 268.661 62.2109 268.416C62.6162 268.16 63.0535 268.032 63.5229 268.032C64.1202 268.032 64.5842 268.165 64.9149 268.432C65.2562 268.688 65.5069 269.051 65.6669 269.52C66.0722 269.072 66.4775 268.715 66.8829 268.448C67.2989 268.171 67.7469 268.032 68.2269 268.032C69.0269 268.032 69.6189 268.288 70.0029 268.8C70.3975 269.312 70.5949 270.069 70.5949 271.072V276H69.2829V271.248C69.2829 270.512 69.1655 269.984 68.9309 269.664C68.6962 269.333 68.3335 269.168 67.8429 269.168C67.2562 269.168 66.6055 269.568 65.8909 270.368V276H64.5789V271.248C64.5789 270.512 64.4615 269.984 64.2269 269.664C63.9922 269.333 63.6242 269.168 63.1229 269.168C62.5362 269.168 61.8855 269.568 61.1709 270.368V276H59.8589V268.224ZM72.5485 272.128C72.5485 271.488 72.6445 270.917 72.8365 270.416C73.0392 269.904 73.3005 269.472 73.6205 269.12C73.9512 268.768 74.3245 268.501 74.7405 268.32C75.1565 268.128 75.5885 268.032 76.0365 268.032C76.5272 268.032 76.9645 268.117 77.3485 268.288C77.7432 268.459 78.0685 268.704 78.3245 269.024C78.5912 269.344 78.7938 269.728 78.9325 270.176C79.0712 270.624 79.1405 271.125 79.1405 271.68C79.1405 271.968 79.1245 272.208 79.0925 272.4H73.8445C73.8978 273.243 74.1538 273.909 74.6125 274.4C75.0818 274.891 75.6898 275.136 76.4365 275.136C76.8098 275.136 77.1512 275.083 77.4605 274.976C77.7805 274.859 78.0845 274.709 78.3725 274.528L78.8365 275.392C78.4952 275.605 78.1165 275.792 77.7005 275.952C77.2845 276.112 76.8098 276.192 76.2765 276.192C75.7538 276.192 75.2632 276.101 74.8045 275.92C74.3565 275.728 73.9618 275.461 73.6205 275.12C73.2898 274.768 73.0285 274.341 72.8365 273.84C72.6445 273.339 72.5485 272.768 72.5485 272.128ZM77.9885 271.536C77.9885 270.736 77.8178 270.128 77.4765 269.712C77.1458 269.285 76.6765 269.072 76.0685 269.072C75.7912 269.072 75.5245 269.131 75.2685 269.248C75.0232 269.355 74.7992 269.515 74.5965 269.728C74.3938 269.931 74.2232 270.187 74.0845 270.496C73.9565 270.795 73.8712 271.141 73.8285 271.536H77.9885Z" fill="white" fill-opacity="0.5"/>
<path d="M303 268L308 273L313 268H303Z" fill="#193F78"/>
<path d="M40 360L320 360" stroke="white" stroke-opacity="0.2" stroke-linecap="round"/>
<path d="M40.924 308.176H45.82V309.664H42.688V311.236H45.352V312.712H42.688V314.512H45.94V316H40.924V308.176ZM47.4982 308.176H49.3702L50.6782 311.692L51.1462 313.06H51.1942L51.6622 311.692L52.9342 308.176H54.7942V316H53.1502V313.132C53.1502 312.94 53.1582 312.728 53.1742 312.496C53.1902 312.264 53.2102 312.032 53.2342 311.8C53.2582 311.56 53.2822 311.328 53.3062 311.104C53.3302 310.872 53.3542 310.66 53.3782 310.468H53.3302L52.6822 312.28L51.4822 315.316H50.7742L49.5742 312.28L48.9502 310.468H48.9022C48.9262 310.66 48.9502 310.872 48.9742 311.104C48.9982 311.328 49.0182 311.56 49.0342 311.8C49.0582 312.032 49.0782 312.264 49.0942 312.496C49.1102 312.728 49.1182 312.94 49.1182 313.132V316H47.4982V308.176ZM59.9508 312.76L59.7708 312.04C59.6588 311.648 59.5508 311.232 59.4468 310.792C59.3428 310.352 59.2388 309.928 59.1348 309.52H59.0868C58.9908 309.936 58.8908 310.364 58.7868 310.804C58.6908 311.236 58.5868 311.648 58.4748 312.04L58.2828 312.76H59.9508ZM60.3108 314.14H57.9228L57.4428 316H55.6428L58.0908 308.176H60.2148L62.6628 316H60.7908L60.3108 314.14ZM63.5178 308.176H65.2818V316H63.5178V308.176ZM67.1271 308.176H68.8911V314.512H71.9871V316H67.1271V308.176Z" fill="#193F78"/>
<path d="M41.44 337.504H47.488V338.624H42.768V341.92H46.752V343.056H42.768V346.864H47.648V348H41.44V337.504ZM49.7495 340.224H50.8375L50.9495 341.344H50.9975C51.3388 340.971 51.7068 340.661 52.1015 340.416C52.5068 340.16 52.9442 340.032 53.4135 340.032C54.0108 340.032 54.4748 340.165 54.8055 340.432C55.1468 340.688 55.3975 341.051 55.5575 341.52C55.9628 341.072 56.3682 340.715 56.7735 340.448C57.1895 340.171 57.6375 340.032 58.1175 340.032C58.9175 340.032 59.5095 340.288 59.8935 340.8C60.2882 341.312 60.4855 342.069 60.4855 343.072V348H59.1735V343.248C59.1735 342.512 59.0562 341.984 58.8215 341.664C58.5868 341.333 58.2242 341.168 57.7335 341.168C57.1468 341.168 56.4962 341.568 55.7815 342.368V348H54.4695V343.248C54.4695 342.512 54.3522 341.984 54.1175 341.664C53.8828 341.333 53.5148 341.168 53.0135 341.168C52.4268 341.168 51.7762 341.568 51.0615 342.368V348H49.7495V340.224ZM62.6311 345.984C62.6311 345.131 63.0098 344.48 63.7671 344.032C64.5351 343.573 65.7511 343.253 67.4151 343.072C67.4151 342.827 67.3885 342.587 67.3351 342.352C67.2925 342.117 67.2071 341.909 67.0791 341.728C66.9618 341.547 66.8018 341.403 66.5991 341.296C66.3965 341.179 66.1351 341.12 65.8151 341.12C65.3565 341.12 64.9298 341.205 64.5351 341.376C64.1511 341.547 63.8045 341.739 63.4951 341.952L62.9671 341.04C63.3298 340.805 63.7725 340.581 64.2951 340.368C64.8178 340.144 65.3938 340.032 66.0231 340.032C66.9725 340.032 67.6605 340.325 68.0871 340.912C68.5138 341.488 68.7271 342.261 68.7271 343.232V348H67.6391L67.5271 347.072H67.4951C67.1218 347.381 66.7165 347.648 66.2791 347.872C65.8525 348.085 65.3991 348.192 64.9191 348.192C64.2578 348.192 63.7085 348 63.2711 347.616C62.8445 347.232 62.6311 346.688 62.6311 345.984ZM63.9271 345.888C63.9271 346.336 64.0551 346.656 64.3111 346.848C64.5778 347.04 64.9031 347.136 65.2871 347.136C65.6605 347.136 66.0125 347.051 66.3431 346.88C66.6845 346.699 67.0418 346.437 67.4151 346.096V343.936C66.7645 344.021 66.2151 344.123 65.7671 344.24C65.3191 344.357 64.9565 344.496 64.6791 344.656C64.4125 344.816 64.2205 345.003 64.1031 345.216C63.9858 345.419 63.9271 345.643 63.9271 345.888ZM71.8746 338.624C71.6186 338.624 71.4 338.544 71.2186 338.384C71.048 338.224 70.9626 338.021 70.9626 337.776C70.9626 337.52 71.048 337.317 71.2186 337.168C71.4 337.008 71.6186 336.928 71.8746 336.928C72.1306 336.928 72.344 337.008 72.5146 337.168C72.696 337.317 72.7866 337.52 72.7866 337.776C72.7866 338.021 72.696 338.224 72.5146 338.384C72.344 338.544 72.1306 338.624 71.8746 338.624ZM71.2026 340.224H72.5146V348H71.2026V340.224ZM75.1401 336.608H76.4521V346.528C76.4521 346.741 76.4895 346.891 76.5641 346.976C76.6388 347.061 76.7241 347.104 76.8201 347.104C76.8628 347.104 76.9001 347.104 76.9321 347.104C76.9748 347.104 77.0335 347.093 77.1081 347.072L77.2841 348.064C77.1988 348.107 77.0975 348.139 76.9801 348.16C76.8628 348.181 76.7135 348.192 76.5321 348.192C76.0308 348.192 75.6735 348.043 75.4601 347.744C75.2468 347.445 75.1401 347.008 75.1401 346.432V336.608Z" fill="white" fill-opacity="0.5"/>
<path d="M303 340L308 345L313 340H303Z" fill="#193F78"/>
<mask id="mask0" mask-type="alpha" maskUnits="userSpaceOnUse" x="250" y="6" width="16" height="12">
<path fill-rule="evenodd" clip-rule="evenodd" d="M250 6L258 18L266 6H250Z" fill="white"/>
</mask>
<g mask="url(#mask0)">
<path fill-rule="evenodd" clip-rule="evenodd" d="M258 6C251.4 6 246 11.4 246 18C246 24.6 251.4 30 258 30C264.6 30 270 24.6 270 18C270 11.4 264.6 6 258 6ZM258 27C253 27 249 23 249 18C249 13 253 9 258 9C263 9 267 13 267 18C267 23 263 27 258 27Z" fill="white" fill-opacity="0.3"/>
<path fill-rule="evenodd" clip-rule="evenodd" d="M258 9C253 9 249 13 249 18C249 23 253 27 258 27C263 27 267 23 267 18C267 13 263 9 258 9ZM258 24C254.7 24 252 21.3 252 18C252 14.7 254.7 12 258 12C261.3 12 264 14.7 264 18C264 21.3 261.3 24 258 24Z" fill="white" fill-opacity="0.9"/>
<path fill-rule="evenodd" clip-rule="evenodd" d="M258 12C254.7 12 252 14.7 252 18C252 21.3 254.7 24 258 24C261.3 24 264 21.3 264 18C264 14.7 261.3 12 258 12ZM258 21C256.3 21 255 19.7 255 18C255 16.3 256.3 15 258 15C259.7 15 261 16.3 261 18C261 19.7 259.7 21 258 21Z" fill="white" fill-opacity="0.9"/>
<path fill-rule="evenodd" clip-rule="evenodd" d="M258 21C259.657 21 261 19.6569 261 18C261 16.3431 259.657 15 258 15C256.343 15 255 16.3431 255 18C255 19.6569 256.343 21 258 21Z" fill="white" fill-opacity="0.9"/>
</g>
<mask id="mask1" mask-type="alpha" maskUnits="userSpaceOnUse" x="276" y="6" width="12" height="12">
<path fill-rule="evenodd" clip-rule="evenodd" d="M288 18V6L276 18H288Z" fill="white"/>
</mask>
<g mask="url(#mask1)">
<path fill-rule="evenodd" clip-rule="evenodd" d="M285 6V18H288V6H285Z" fill="white" fill-opacity="0.3"/>
<path fill-rule="evenodd" clip-rule="evenodd" d="M282 6V18H285V6H282Z" fill="white" fill-opacity="0.3"/>
<path fill-rule="evenodd" clip-rule="evenodd" d="M279 6V18H282V6H279Z" fill="white" fill-opacity="0.9"/>
<path fill-rule="evenodd" clip-rule="evenodd" d="M276 6V18H279V6H276Z" fill="white" fill-opacity="0.9"/>
</g>
<mask id="mask2" mask-type="alpha" maskUnits="userSpaceOnUse" x="302" y="5" width="8" height="13">
<path fill-rule="evenodd" clip-rule="evenodd" d="M309 6H308V5H304V6H303C302.4 6 302 6.4 302 7V17C302 17.6 302.4 18 303 18H309C309.6 18 310 17.6 310 17V7C310 6.4 309.6 6 309 6Z" fill="white"/>
</mask>
<g mask="url(#mask2)">
<path fill-rule="evenodd" clip-rule="evenodd" d="M302 15V18H310V15H302Z" fill="white" fill-opacity="0.9"/>
<path fill-rule="evenodd" clip-rule="evenodd" d="M302 12V15H310V12H302Z" fill="white" fill-opacity="0.9"/>
<path fill-rule="evenodd" clip-rule="evenodd" d="M302 9V12H310V9H302Z" fill="white" fill-opacity="0.3"/>
<path fill-rule="evenodd" clip-rule="evenodd" d="M302 6V9H310V6H302Z" fill="white" fill-opacity="0.3"/>
<path fill-rule="evenodd" clip-rule="evenodd" d="M304 5V6H308V5H304Z" fill="white" fill-opacity="0.3"/>
</g>
<g opacity="0.9">
<path d="M323.627 17.0605H322.447V9.23389L320.079 10.1035V9.03711L323.443 7.77393H323.627V17.0605ZM333.124 17.0605H327.068V16.2163L330.267 12.6616C330.741 12.1242 331.067 11.6883 331.245 11.354C331.427 11.0155 331.518 10.6663 331.518 10.3066C331.518 9.82422 331.372 9.42855 331.08 9.11963C330.788 8.81071 330.398 8.65625 329.912 8.65625C329.328 8.65625 328.873 8.82341 328.547 9.15771C328.225 9.48779 328.064 9.94906 328.064 10.5415H326.89C326.89 9.69092 327.163 9.00326 327.709 8.47852C328.259 7.95378 328.993 7.69141 329.912 7.69141C330.771 7.69141 331.45 7.91781 331.949 8.37061C332.449 8.81917 332.698 9.41797 332.698 10.167C332.698 11.0768 332.118 12.1602 330.959 13.417L328.483 16.1021H333.124V17.0605ZM334.45 16.4448C334.45 16.2417 334.509 16.0724 334.628 15.937C334.751 15.8016 334.933 15.7339 335.174 15.7339C335.415 15.7339 335.597 15.8016 335.72 15.937C335.847 16.0724 335.91 16.2417 335.91 16.4448C335.91 16.6395 335.847 16.8024 335.72 16.9336C335.597 17.0648 335.415 17.1304 335.174 17.1304C334.933 17.1304 334.751 17.0648 334.628 16.9336C334.509 16.8024 334.45 16.6395 334.45 16.4448ZM334.457 10.8398C334.457 10.6367 334.516 10.4674 334.634 10.332C334.757 10.1966 334.939 10.1289 335.18 10.1289C335.421 10.1289 335.603 10.1966 335.726 10.332C335.853 10.4674 335.917 10.6367 335.917 10.8398C335.917 11.0345 335.853 11.1974 335.726 11.3286C335.603 11.4598 335.421 11.5254 335.18 11.5254C334.939 11.5254 334.757 11.4598 334.634 11.3286C334.516 11.1974 334.457 11.0345 334.457 10.8398ZM339.224 11.8682H340.106C340.66 11.8597 341.096 11.7137 341.414 11.4302C341.731 11.1466 341.89 10.7637 341.89 10.2812C341.89 9.19792 341.35 8.65625 340.271 8.65625C339.763 8.65625 339.357 8.80225 339.052 9.09424C338.752 9.382 338.602 9.76497 338.602 10.2432H337.427C337.427 9.51107 337.694 8.90381 338.227 8.42139C338.764 7.93473 339.446 7.69141 340.271 7.69141C341.143 7.69141 341.826 7.92204 342.321 8.3833C342.816 8.84456 343.064 9.48568 343.064 10.3066C343.064 10.7087 342.933 11.098 342.67 11.4746C342.412 11.8512 342.059 12.1326 341.61 12.3188C342.118 12.4797 342.51 12.7463 342.785 13.1187C343.064 13.491 343.204 13.946 343.204 14.4834C343.204 15.3128 342.933 15.9709 342.391 16.4575C341.849 16.9442 341.145 17.1875 340.277 17.1875C339.41 17.1875 338.703 16.9526 338.157 16.4829C337.616 16.0132 337.345 15.3932 337.345 14.623H338.525C338.525 15.1097 338.684 15.499 339.001 15.791C339.319 16.083 339.744 16.229 340.277 16.229C340.844 16.229 341.278 16.0809 341.579 15.7847C341.879 15.4884 342.029 15.0632 342.029 14.5088C342.029 13.9714 341.864 13.5588 341.534 13.271C341.204 12.9832 340.728 12.8351 340.106 12.8267H339.224V11.8682ZM350.611 13.1187C350.611 14.494 350.376 15.516 349.907 16.1846C349.437 16.8532 348.703 17.1875 347.704 17.1875C346.718 17.1875 345.988 16.8617 345.514 16.21C345.04 15.554 344.795 14.5765 344.778 13.2773V11.7095C344.778 10.3511 345.013 9.3418 345.482 8.68164C345.952 8.02148 346.688 7.69141 347.691 7.69141C348.686 7.69141 349.418 8.01091 349.888 8.6499C350.357 9.28467 350.599 10.2664 350.611 11.5952V13.1187ZM349.437 11.5127C349.437 10.5182 349.297 9.7946 349.018 9.3418C348.739 8.88477 348.297 8.65625 347.691 8.65625C347.09 8.65625 346.653 8.88265 346.377 9.33545C346.102 9.78825 345.961 10.4844 345.952 11.4238V13.3027C345.952 14.3014 346.096 15.0399 346.384 15.5181C346.676 15.992 347.116 16.229 347.704 16.229C348.284 16.229 348.713 16.0047 348.993 15.5562C349.276 15.1076 349.424 14.4009 349.437 13.436V11.5127Z" fill="white"/>
</g>
<path d="M281.392 56.2979C280.88 56.7882 279.788 57.2779 278.607 57.2779C276.758 57.2779 276.023 56.2308 276 54.582V45.334C276 45.1335 276.133 45 276.334 45H277.537C277.716 45 277.871 45.1335 277.871 45.334V47.6737H280.367C280.546 47.6737 280.701 47.8293 280.701 48.0527V48.8328C280.701 49.0555 280.546 49.1897 280.367 49.1897H277.872V54.203C277.872 54.961 277.961 55.7626 278.986 55.7626C279.387 55.7626 279.989 55.607 280.524 55.0724C280.635 54.961 280.881 54.9161 281.014 55.1166L281.459 55.8968C281.526 56.0302 281.526 56.1637 281.392 56.2979Z" fill="#2ED88E"/>
<path d="M289.58 48.5652L289.022 49.4788C288.933 49.6122 288.777 49.6572 288.621 49.568C288.331 49.3232 287.73 48.9884 286.972 48.9884C285.947 48.9884 284.855 49.7521 284.855 51.3081V56.7654C284.855 56.966 284.7 57.0994 284.521 57.0994H283.318C283.117 57.0994 282.984 56.966 282.984 56.7654V48.0527C282.984 47.83 283.117 47.6737 283.318 47.6737H284.053C284.276 47.6737 284.41 47.8521 284.499 48.0527L284.632 48.4096C285.167 47.875 285.991 47.496 287.105 47.496C288.309 47.496 289.022 47.875 289.467 48.1648C289.647 48.2754 289.669 48.4538 289.58 48.5652Z" fill="#2ED88E"/>
<path d="M300.612 52.4201C300.612 49.6793 302.93 47.496 305.603 47.496C307.118 47.496 308.5 48.0977 309.391 49.1676C309.48 49.301 309.48 49.4573 309.369 49.5908L308.678 50.3038C308.545 50.4373 308.344 50.4373 308.233 50.281C307.765 49.6572 306.985 49.0113 305.648 49.0113C303.888 49.0113 302.439 50.4594 302.439 52.4201C302.439 54.2694 303.888 55.7854 305.648 55.7854C307.164 55.7854 308.055 54.8269 308.323 54.4486C308.389 54.3372 308.612 54.248 308.79 54.4036L309.414 55.0274C309.547 55.1609 309.547 55.3172 309.459 55.4507C308.612 56.6091 307.231 57.2779 305.604 57.2779C302.93 57.2779 300.612 55.1166 300.612 52.4201Z" fill="#2ED88E"/>
<path d="M319.97 48.1419L314.506 58.9566C314.461 59.0458 314.35 59.1351 314.216 59.1351H313.102C312.901 59.1351 312.679 58.9345 312.812 58.6668L313.865 56.5649L309.965 48.1419C309.876 47.9635 309.988 47.6744 310.255 47.6744H311.457C311.636 47.6744 311.747 47.7858 311.836 48.0085L314.8 54.6934L318.254 47.875C318.298 47.7637 318.409 47.6744 318.566 47.6744H319.658C319.858 47.6744 320.082 47.875 319.97 48.1419Z" fill="#2ED88E"/>
<path d="M299.936 55.876L298.721 54.8597C299.91 52.8391 299.5 50.1982 297.642 48.6451C295.574 46.9171 292.497 47.1926 290.769 49.2603C289.041 51.3281 289.316 54.4057 291.384 56.1337C293.242 57.6861 295.914 57.6204 297.691 56.0916L298.907 57.1073C299.077 57.2493 299.329 57.2264 299.472 57.0566L299.987 56.4392C300.128 56.2707 300.106 56.0181 299.936 55.876ZM297.98 52.6521L297.112 53.0575C296.976 53.121 296.922 53.2844 296.992 53.4165L297.443 54.2623C297.547 54.4557 297.379 54.6827 297.163 54.6405L296.223 54.4578C296.076 54.4293 295.935 54.5299 295.915 54.6777L295.783 55.6269C295.753 55.8446 295.484 55.9296 295.334 55.769L294.68 55.0681C294.578 54.9589 294.405 54.9575 294.302 55.0652L293.637 55.7561C293.485 55.9139 293.218 55.8247 293.191 55.607L293.073 54.6555C293.055 54.5071 292.916 54.4043 292.769 54.4307L291.826 54.5984C291.61 54.637 291.446 54.4072 291.552 54.2152L292.017 53.3765C292.089 53.2459 292.037 53.081 291.903 53.0161L291.041 52.5971C290.843 52.5015 290.846 52.2195 291.044 52.1267L291.913 51.7213C292.049 51.6578 292.103 51.4944 292.033 51.3623L291.581 50.5172C291.478 50.3238 291.645 50.0968 291.861 50.139L292.802 50.3217C292.949 50.3502 293.089 50.2496 293.109 50.1018L293.241 49.1526C293.271 48.9349 293.54 48.8499 293.69 49.0105L294.344 49.7114C294.446 49.8206 294.619 49.8221 294.722 49.7143L295.387 49.0241C295.539 48.8656 295.806 48.9556 295.834 49.1733L295.951 50.1247C295.969 50.2731 296.108 50.3759 296.255 50.3495L297.198 50.1818C297.414 50.1432 297.578 50.3731 297.472 50.5651L297.007 51.4037C296.935 51.5343 296.987 51.6992 297.121 51.7642L297.983 52.1831C298.182 52.2773 298.18 52.5593 297.98 52.6521Z" fill="#2ED88E"/>
</svg>
