<svg width="360" height="640" viewBox="0 0 360 640" fill="none" xmlns="http://www.w3.org/2000/svg">
<rect width="360" height="640" fill="#D6EBFE"/>
<rect x="24" y="230" width="312" height="312" rx="8" fill="white"/>
<path fill-rule="evenodd" clip-rule="evenodd" d="M0 0V24H360V0H0Z" fill="#193F78"/>
<mask id="mask0" mask-type="alpha" maskUnits="userSpaceOnUse" x="250" y="6" width="16" height="12">
<path fill-rule="evenodd" clip-rule="evenodd" d="M250 6L258 18L266 6H250Z" fill="white"/>
</mask>
<g mask="url(#mask0)">
<path fill-rule="evenodd" clip-rule="evenodd" d="M258 6C251.4 6 246 11.4 246 18C246 24.6 251.4 30 258 30C264.6 30 270 24.6 270 18C270 11.4 264.6 6 258 6ZM258 27C253 27 249 23 249 18C249 13 253 9 258 9C263 9 267 13 267 18C267 23 263 27 258 27Z" fill="white" fill-opacity="0.3"/>
<path fill-rule="evenodd" clip-rule="evenodd" d="M258 9C253 9 249 13 249 18C249 23 253 27 258 27C263 27 267 23 267 18C267 13 263 9 258 9ZM258 24C254.7 24 252 21.3 252 18C252 14.7 254.7 12 258 12C261.3 12 264 14.7 264 18C264 21.3 261.3 24 258 24Z" fill="white" fill-opacity="0.9"/>
<path fill-rule="evenodd" clip-rule="evenodd" d="M258 12C254.7 12 252 14.7 252 18C252 21.3 254.7 24 258 24C261.3 24 264 21.3 264 18C264 14.7 261.3 12 258 12ZM258 21C256.3 21 255 19.7 255 18C255 16.3 256.3 15 258 15C259.7 15 261 16.3 261 18C261 19.7 259.7 21 258 21Z" fill="white" fill-opacity="0.9"/>
<path fill-rule="evenodd" clip-rule="evenodd" d="M258 21C259.657 21 261 19.6569 261 18C261 16.3431 259.657 15 258 15C256.343 15 255 16.3431 255 18C255 19.6569 256.343 21 258 21Z" fill="white" fill-opacity="0.9"/>
</g>
<mask id="mask1" mask-type="alpha" maskUnits="userSpaceOnUse" x="276" y="6" width="12" height="12">
<path fill-rule="evenodd" clip-rule="evenodd" d="M288 18V6L276 18H288Z" fill="white"/>
</mask>
<g mask="url(#mask1)">
<path fill-rule="evenodd" clip-rule="evenodd" d="M285 6V18H288V6H285Z" fill="white" fill-opacity="0.3"/>
<path fill-rule="evenodd" clip-rule="evenodd" d="M282 6V18H285V6H282Z" fill="white" fill-opacity="0.3"/>
<path fill-rule="evenodd" clip-rule="evenodd" d="M279 6V18H282V6H279Z" fill="white" fill-opacity="0.9"/>
<path fill-rule="evenodd" clip-rule="evenodd" d="M276 6V18H279V6H276Z" fill="white" fill-opacity="0.9"/>
</g>
<mask id="mask2" mask-type="alpha" maskUnits="userSpaceOnUse" x="302" y="5" width="8" height="13">
<path fill-rule="evenodd" clip-rule="evenodd" d="M309 6H308V5H304V6H303C302.4 6 302 6.4 302 7V17C302 17.6 302.4 18 303 18H309C309.6 18 310 17.6 310 17V7C310 6.4 309.6 6 309 6Z" fill="white"/>
</mask>
<g mask="url(#mask2)">
<path fill-rule="evenodd" clip-rule="evenodd" d="M302 15V18H310V15H302Z" fill="white" fill-opacity="0.9"/>
<path fill-rule="evenodd" clip-rule="evenodd" d="M302 12V15H310V12H302Z" fill="white" fill-opacity="0.9"/>
<path fill-rule="evenodd" clip-rule="evenodd" d="M302 9V12H310V9H302Z" fill="white" fill-opacity="0.3"/>
<path fill-rule="evenodd" clip-rule="evenodd" d="M302 6V9H310V6H302Z" fill="white" fill-opacity="0.3"/>
<path fill-rule="evenodd" clip-rule="evenodd" d="M304 5V6H308V5H304Z" fill="white" fill-opacity="0.3"/>
</g>
<g opacity="0.9">
<path d="M323.627 17.0605H322.447V9.23389L320.079 10.1035V9.03711L323.443 7.77393H323.627V17.0605ZM333.124 17.0605H327.068V16.2163L330.267 12.6616C330.741 12.1242 331.067 11.6883 331.245 11.354C331.427 11.0155 331.518 10.6663 331.518 10.3066C331.518 9.82422 331.372 9.42855 331.08 9.11963C330.788 8.81071 330.398 8.65625 329.912 8.65625C329.328 8.65625 328.873 8.82341 328.547 9.15771C328.225 9.48779 328.064 9.94906 328.064 10.5415H326.89C326.89 9.69092 327.163 9.00326 327.709 8.47852C328.259 7.95378 328.993 7.69141 329.912 7.69141C330.771 7.69141 331.45 7.91781 331.949 8.37061C332.449 8.81917 332.698 9.41797 332.698 10.167C332.698 11.0768 332.118 12.1602 330.959 13.417L328.483 16.1021H333.124V17.0605ZM334.45 16.4448C334.45 16.2417 334.509 16.0724 334.628 15.937C334.751 15.8016 334.933 15.7339 335.174 15.7339C335.415 15.7339 335.597 15.8016 335.72 15.937C335.847 16.0724 335.91 16.2417 335.91 16.4448C335.91 16.6395 335.847 16.8024 335.72 16.9336C335.597 17.0648 335.415 17.1304 335.174 17.1304C334.933 17.1304 334.751 17.0648 334.628 16.9336C334.509 16.8024 334.45 16.6395 334.45 16.4448ZM334.457 10.8398C334.457 10.6367 334.516 10.4674 334.634 10.332C334.757 10.1966 334.939 10.1289 335.18 10.1289C335.421 10.1289 335.603 10.1966 335.726 10.332C335.853 10.4674 335.917 10.6367 335.917 10.8398C335.917 11.0345 335.853 11.1974 335.726 11.3286C335.603 11.4598 335.421 11.5254 335.18 11.5254C334.939 11.5254 334.757 11.4598 334.634 11.3286C334.516 11.1974 334.457 11.0345 334.457 10.8398ZM339.224 11.8682H340.106C340.66 11.8597 341.096 11.7137 341.414 11.4302C341.731 11.1466 341.89 10.7637 341.89 10.2812C341.89 9.19792 341.35 8.65625 340.271 8.65625C339.763 8.65625 339.357 8.80225 339.052 9.09424C338.752 9.382 338.602 9.76497 338.602 10.2432H337.427C337.427 9.51107 337.694 8.90381 338.227 8.42139C338.764 7.93473 339.446 7.69141 340.271 7.69141C341.143 7.69141 341.826 7.92204 342.321 8.3833C342.816 8.84456 343.064 9.48568 343.064 10.3066C343.064 10.7087 342.933 11.098 342.67 11.4746C342.412 11.8512 342.059 12.1326 341.61 12.3188C342.118 12.4797 342.51 12.7463 342.785 13.1187C343.064 13.491 343.204 13.946 343.204 14.4834C343.204 15.3128 342.933 15.9709 342.391 16.4575C341.849 16.9442 341.145 17.1875 340.277 17.1875C339.41 17.1875 338.703 16.9526 338.157 16.4829C337.616 16.0132 337.345 15.3932 337.345 14.623H338.525C338.525 15.1097 338.684 15.499 339.001 15.791C339.319 16.083 339.744 16.229 340.277 16.229C340.844 16.229 341.278 16.0809 341.579 15.7847C341.879 15.4884 342.029 15.0632 342.029 14.5088C342.029 13.9714 341.864 13.5588 341.534 13.271C341.204 12.9832 340.728 12.8351 340.106 12.8267H339.224V11.8682ZM350.611 13.1187C350.611 14.494 350.376 15.516 349.907 16.1846C349.437 16.8532 348.703 17.1875 347.704 17.1875C346.718 17.1875 345.988 16.8617 345.514 16.21C345.04 15.554 344.795 14.5765 344.778 13.2773V11.7095C344.778 10.3511 345.013 9.3418 345.482 8.68164C345.952 8.02148 346.688 7.69141 347.691 7.69141C348.686 7.69141 349.418 8.01091 349.888 8.6499C350.357 9.28467 350.599 10.2664 350.611 11.5952V13.1187ZM349.437 11.5127C349.437 10.5182 349.297 9.7946 349.018 9.3418C348.739 8.88477 348.297 8.65625 347.691 8.65625C347.09 8.65625 346.653 8.88265 346.377 9.33545C346.102 9.78825 345.961 10.4844 345.952 11.4238V13.3027C345.952 14.3014 346.096 15.0399 346.384 15.5181C346.676 15.992 347.116 16.229 347.704 16.229C348.284 16.229 348.713 16.0047 348.993 15.5562C349.276 15.1076 349.424 14.4009 349.437 13.436V11.5127Z" fill="white"/>
</g>
<path d="M51.279 175.426C51.699 175.87 52.191 176.23 52.755 176.506C53.331 176.77 53.925 176.902 54.537 176.902C55.317 176.902 55.923 176.728 56.355 176.38C56.787 176.02 57.003 175.552 57.003 174.976C57.003 174.676 56.949 174.424 56.841 174.22C56.745 174.004 56.607 173.824 56.427 173.68C56.259 173.524 56.055 173.386 55.815 173.266C55.575 173.146 55.317 173.02 55.041 172.888L53.349 172.15C53.073 172.03 52.791 171.886 52.503 171.718C52.215 171.55 51.957 171.346 51.729 171.106C51.501 170.866 51.315 170.584 51.171 170.26C51.027 169.924 50.955 169.54 50.955 169.108C50.955 168.664 51.045 168.25 51.225 167.866C51.417 167.482 51.675 167.152 51.999 166.876C52.335 166.588 52.725 166.366 53.169 166.21C53.625 166.054 54.123 165.976 54.663 165.976C55.371 165.976 56.025 166.114 56.625 166.39C57.225 166.654 57.735 167.002 58.155 167.434L57.345 168.406C56.985 168.058 56.583 167.788 56.139 167.596C55.707 167.392 55.215 167.29 54.663 167.29C54.003 167.29 53.469 167.446 53.061 167.758C52.665 168.058 52.467 168.478 52.467 169.018C52.467 169.306 52.521 169.552 52.629 169.756C52.749 169.948 52.905 170.122 53.097 170.278C53.289 170.422 53.499 170.554 53.727 170.674C53.955 170.782 54.189 170.884 54.429 170.98L56.103 171.7C56.439 171.844 56.757 172.012 57.057 172.204C57.357 172.384 57.615 172.6 57.831 172.852C58.047 173.092 58.215 173.38 58.335 173.716C58.467 174.04 58.533 174.418 58.533 174.85C58.533 175.318 58.437 175.756 58.245 176.164C58.065 176.572 57.801 176.932 57.453 177.244C57.105 177.544 56.685 177.784 56.193 177.964C55.701 178.132 55.143 178.216 54.519 178.216C53.691 178.216 52.923 178.06 52.215 177.748C51.507 177.436 50.895 177.01 50.379 176.47L51.279 175.426ZM60.7143 165.184H62.1903V168.676L62.1363 170.476C62.5563 170.08 62.9943 169.744 63.4503 169.468C63.9063 169.18 64.4403 169.036 65.0523 169.036C65.9763 169.036 66.6483 169.324 67.0683 169.9C67.5003 170.476 67.7163 171.328 67.7163 172.456V178H66.2403V172.654C66.2403 171.826 66.1083 171.232 65.8443 170.872C65.5803 170.5 65.1603 170.314 64.5843 170.314C64.1283 170.314 63.7263 170.428 63.3783 170.656C63.0303 170.884 62.6343 171.22 62.1903 171.664V178H60.7143V165.184ZM69.8573 173.644C69.8573 172.912 69.9653 172.264 70.1813 171.7C70.4093 171.124 70.7093 170.638 71.0813 170.242C71.4533 169.846 71.8793 169.546 72.3593 169.342C72.8513 169.138 73.3673 169.036 73.9073 169.036C74.4473 169.036 74.9573 169.138 75.4373 169.342C75.9293 169.546 76.3613 169.846 76.7333 170.242C77.1053 170.638 77.3993 171.124 77.6153 171.7C77.8433 172.264 77.9573 172.912 77.9573 173.644C77.9573 174.364 77.8433 175.012 77.6153 175.588C77.3993 176.152 77.1053 176.632 76.7333 177.028C76.3613 177.412 75.9293 177.706 75.4373 177.91C74.9573 178.114 74.4473 178.216 73.9073 178.216C73.3673 178.216 72.8513 178.114 72.3593 177.91C71.8793 177.706 71.4533 177.412 71.0813 177.028C70.7093 176.632 70.4093 176.152 70.1813 175.588C69.9653 175.012 69.8573 174.364 69.8573 173.644ZM71.3873 173.644C71.3873 174.148 71.4473 174.604 71.5673 175.012C71.6873 175.42 71.8553 175.774 72.0713 176.074C72.2993 176.362 72.5693 176.59 72.8813 176.758C73.1933 176.914 73.5353 176.992 73.9073 176.992C74.2793 176.992 74.6213 176.914 74.9333 176.758C75.2453 176.59 75.5093 176.362 75.7253 176.074C75.9533 175.774 76.1273 175.42 76.2473 175.012C76.3673 174.604 76.4273 174.148 76.4273 173.644C76.4273 173.14 76.3673 172.684 76.2473 172.276C76.1273 171.856 75.9533 171.496 75.7253 171.196C75.5093 170.896 75.2453 170.668 74.9333 170.512C74.6213 170.344 74.2793 170.26 73.9073 170.26C73.5353 170.26 73.1933 170.344 72.8813 170.512C72.5693 170.668 72.2993 170.896 72.0713 171.196C71.8553 171.496 71.6873 171.856 71.5673 172.276C71.4473 172.684 71.3873 173.14 71.3873 173.644ZM79.1468 169.252H80.6588L81.9548 174.31C82.0508 174.73 82.1408 175.138 82.2248 175.534C82.3088 175.93 82.3928 176.332 82.4768 176.74H82.5488C82.6448 176.332 82.7408 175.93 82.8368 175.534C82.9328 175.126 83.0348 174.718 83.1428 174.31L84.4928 169.252H85.9328L87.3008 174.31C87.4088 174.73 87.5108 175.138 87.6068 175.534C87.7148 175.93 87.8168 176.332 87.9128 176.74H87.9848C88.0808 176.332 88.1708 175.93 88.2548 175.534C88.3388 175.138 88.4288 174.73 88.5248 174.31L89.8028 169.252H91.2068L88.8668 178H87.0668L85.8068 173.302C85.6988 172.882 85.5968 172.468 85.5008 172.06C85.4168 171.652 85.3208 171.226 85.2128 170.782H85.1408C85.0448 171.226 84.9488 171.658 84.8528 172.078C84.7568 172.486 84.6488 172.9 84.5288 173.32L83.3048 178H81.5768L79.1468 169.252ZM97.0014 170.458H95.7054V169.342L97.0734 169.252L97.2534 166.804H98.4954V169.252H100.853V170.458H98.4954V175.318C98.4954 175.858 98.5914 176.278 98.7834 176.578C98.9874 176.866 99.3414 177.01 99.8454 177.01C100.001 177.01 100.169 176.986 100.349 176.938C100.529 176.89 100.691 176.836 100.835 176.776L101.123 177.892C100.883 177.976 100.619 178.048 100.331 178.108C100.055 178.18 99.7794 178.216 99.5034 178.216C99.0354 178.216 98.6394 178.144 98.3154 178C98.0034 177.856 97.7454 177.658 97.5414 177.406C97.3494 177.154 97.2114 176.848 97.1274 176.488C97.0434 176.128 97.0014 175.732 97.0014 175.3V170.458ZM102.831 165.184H104.307V168.676L104.253 170.476C104.673 170.08 105.111 169.744 105.567 169.468C106.023 169.18 106.557 169.036 107.169 169.036C108.093 169.036 108.765 169.324 109.185 169.9C109.617 170.476 109.833 171.328 109.833 172.456V178H108.357V172.654C108.357 171.826 108.225 171.232 107.961 170.872C107.697 170.5 107.277 170.314 106.701 170.314C106.245 170.314 105.843 170.428 105.495 170.656C105.147 170.884 104.751 171.22 104.307 171.664V178H102.831V165.184ZM113.378 167.452C113.09 167.452 112.844 167.362 112.64 167.182C112.448 167.002 112.352 166.774 112.352 166.498C112.352 166.21 112.448 165.982 112.64 165.814C112.844 165.634 113.09 165.544 113.378 165.544C113.666 165.544 113.906 165.634 114.098 165.814C114.302 165.982 114.404 166.21 114.404 166.498C114.404 166.774 114.302 167.002 114.098 167.182C113.906 167.362 113.666 167.452 113.378 167.452ZM112.622 169.252H114.098V178H112.622V169.252ZM116.818 176.02C117.202 176.332 117.592 176.584 117.988 176.776C118.396 176.968 118.864 177.064 119.392 177.064C119.968 177.064 120.4 176.932 120.688 176.668C120.976 176.404 121.12 176.08 121.12 175.696C121.12 175.468 121.06 175.27 120.94 175.102C120.82 174.934 120.664 174.79 120.472 174.67C120.292 174.538 120.082 174.424 119.842 174.328C119.602 174.232 119.362 174.136 119.122 174.04C118.81 173.932 118.498 173.812 118.186 173.68C117.874 173.536 117.592 173.368 117.34 173.176C117.1 172.972 116.902 172.738 116.746 172.474C116.59 172.21 116.512 171.892 116.512 171.52C116.512 171.172 116.578 170.848 116.71 170.548C116.854 170.236 117.052 169.972 117.304 169.756C117.568 169.528 117.886 169.354 118.258 169.234C118.63 169.102 119.05 169.036 119.518 169.036C120.07 169.036 120.574 169.132 121.03 169.324C121.498 169.516 121.9 169.75 122.236 170.026L121.534 170.962C121.234 170.734 120.922 170.548 120.598 170.404C120.274 170.26 119.92 170.188 119.536 170.188C118.984 170.188 118.576 170.314 118.312 170.566C118.06 170.818 117.934 171.112 117.934 171.448C117.934 171.652 117.988 171.832 118.096 171.988C118.204 172.132 118.348 172.264 118.528 172.384C118.708 172.492 118.912 172.594 119.14 172.69C119.38 172.774 119.626 172.864 119.878 172.96C120.19 173.08 120.502 173.206 120.814 173.338C121.138 173.47 121.426 173.638 121.678 173.842C121.93 174.034 122.134 174.274 122.29 174.562C122.458 174.85 122.542 175.198 122.542 175.606C122.542 175.966 122.47 176.302 122.326 176.614C122.194 176.926 121.99 177.202 121.714 177.442C121.45 177.682 121.114 177.868 120.706 178C120.31 178.144 119.854 178.216 119.338 178.216C118.714 178.216 118.12 178.102 117.556 177.874C116.992 177.646 116.5 177.358 116.08 177.01L116.818 176.02ZM128.484 170.458H127.188V169.342L128.556 169.252L128.736 166.804H129.978V169.252H132.336V170.458H129.978V175.318C129.978 175.858 130.074 176.278 130.266 176.578C130.47 176.866 130.824 177.01 131.328 177.01C131.484 177.01 131.652 176.986 131.832 176.938C132.012 176.89 132.174 176.836 132.318 176.776L132.606 177.892C132.366 177.976 132.102 178.048 131.814 178.108C131.538 178.18 131.262 178.216 130.986 178.216C130.518 178.216 130.122 178.144 129.798 178C129.486 177.856 129.228 177.658 129.024 177.406C128.832 177.154 128.694 176.848 128.61 176.488C128.526 176.128 128.484 175.732 128.484 175.3V170.458ZM133.49 173.644C133.49 172.912 133.598 172.264 133.814 171.7C134.042 171.124 134.342 170.638 134.714 170.242C135.086 169.846 135.512 169.546 135.992 169.342C136.484 169.138 137 169.036 137.54 169.036C138.08 169.036 138.59 169.138 139.07 169.342C139.562 169.546 139.994 169.846 140.366 170.242C140.738 170.638 141.032 171.124 141.248 171.7C141.476 172.264 141.59 172.912 141.59 173.644C141.59 174.364 141.476 175.012 141.248 175.588C141.032 176.152 140.738 176.632 140.366 177.028C139.994 177.412 139.562 177.706 139.07 177.91C138.59 178.114 138.08 178.216 137.54 178.216C137 178.216 136.484 178.114 135.992 177.91C135.512 177.706 135.086 177.412 134.714 177.028C134.342 176.632 134.042 176.152 133.814 175.588C133.598 175.012 133.49 174.364 133.49 173.644ZM135.02 173.644C135.02 174.148 135.08 174.604 135.2 175.012C135.32 175.42 135.488 175.774 135.704 176.074C135.932 176.362 136.202 176.59 136.514 176.758C136.826 176.914 137.168 176.992 137.54 176.992C137.912 176.992 138.254 176.914 138.566 176.758C138.878 176.59 139.142 176.362 139.358 176.074C139.586 175.774 139.76 175.42 139.88 175.012C140 174.604 140.06 174.148 140.06 173.644C140.06 173.14 140 172.684 139.88 172.276C139.76 171.856 139.586 171.496 139.358 171.196C139.142 170.896 138.878 170.668 138.566 170.512C138.254 170.344 137.912 170.26 137.54 170.26C137.168 170.26 136.826 170.344 136.514 170.512C136.202 170.668 135.932 170.896 135.704 171.196C135.488 171.496 135.32 171.856 135.2 172.276C135.08 172.684 135.02 173.14 135.02 173.644ZM147.101 175.732C147.101 174.772 147.527 174.04 148.379 173.536C149.243 173.02 150.611 172.66 152.483 172.456C152.483 172.18 152.453 171.91 152.393 171.646C152.345 171.382 152.249 171.148 152.105 170.944C151.973 170.74 151.793 170.578 151.565 170.458C151.337 170.326 151.043 170.26 150.683 170.26C150.167 170.26 149.687 170.356 149.243 170.548C148.811 170.74 148.421 170.956 148.073 171.196L147.479 170.17C147.887 169.906 148.385 169.654 148.973 169.414C149.561 169.162 150.209 169.036 150.917 169.036C151.985 169.036 152.759 169.366 153.239 170.026C153.719 170.674 153.959 171.544 153.959 172.636V178H152.735L152.609 176.956H152.573C152.153 177.304 151.697 177.604 151.205 177.856C150.725 178.096 150.215 178.216 149.675 178.216C148.931 178.216 148.313 178 147.821 177.568C147.341 177.136 147.101 176.524 147.101 175.732ZM148.559 175.624C148.559 176.128 148.703 176.488 148.991 176.704C149.291 176.92 149.657 177.028 150.089 177.028C150.509 177.028 150.905 176.932 151.277 176.74C151.661 176.536 152.063 176.242 152.483 175.858V173.428C151.751 173.524 151.133 173.638 150.629 173.77C150.125 173.902 149.717 174.058 149.405 174.238C149.105 174.418 148.889 174.628 148.757 174.868C148.625 175.096 148.559 175.348 148.559 175.624ZM156.744 169.252H157.968L158.094 170.512H158.148C158.568 170.092 159.006 169.744 159.462 169.468C159.93 169.18 160.47 169.036 161.082 169.036C162.006 169.036 162.678 169.324 163.098 169.9C163.53 170.476 163.746 171.328 163.746 172.456V178H162.27V172.654C162.27 171.826 162.138 171.232 161.874 170.872C161.61 170.5 161.19 170.314 160.614 170.314C160.158 170.314 159.756 170.428 159.408 170.656C159.06 170.884 158.664 171.22 158.22 171.664V178H156.744V169.252ZM165.993 180.412C166.089 180.436 166.197 180.46 166.317 180.484C166.437 180.52 166.551 180.538 166.659 180.538C167.163 180.538 167.571 180.358 167.883 179.998C168.207 179.65 168.459 179.206 168.639 178.666L168.837 178.018L165.327 169.252H166.857L168.639 174.094C168.771 174.478 168.909 174.886 169.053 175.318C169.209 175.738 169.353 176.152 169.485 176.56H169.557C169.689 176.164 169.815 175.75 169.935 175.318C170.055 174.886 170.175 174.478 170.295 174.094L171.861 169.252H173.301L170.007 178.72C169.851 179.152 169.677 179.554 169.485 179.926C169.293 180.298 169.065 180.616 168.801 180.88C168.537 181.156 168.237 181.372 167.901 181.528C167.565 181.684 167.175 181.762 166.731 181.762C166.527 181.762 166.341 181.744 166.173 181.708C166.005 181.684 165.849 181.642 165.705 181.582L165.993 180.412ZM177.998 173.644C177.998 172.936 178.1 172.3 178.304 171.736C178.52 171.16 178.802 170.674 179.15 170.278C179.498 169.882 179.9 169.576 180.356 169.36C180.812 169.144 181.292 169.036 181.796 169.036C182.3 169.036 182.738 169.126 183.11 169.306C183.482 169.486 183.86 169.732 184.244 170.044L184.172 168.55V165.184H185.666V178H184.442L184.316 176.974H184.262C183.914 177.31 183.512 177.604 183.056 177.856C182.612 178.096 182.132 178.216 181.616 178.216C180.512 178.216 179.63 177.82 178.97 177.028C178.322 176.236 177.998 175.108 177.998 173.644ZM179.528 173.626C179.528 174.682 179.738 175.504 180.158 176.092C180.578 176.68 181.172 176.974 181.94 176.974C182.348 176.974 182.732 176.878 183.092 176.686C183.452 176.482 183.812 176.176 184.172 175.768V171.196C183.8 170.86 183.44 170.626 183.092 170.494C182.756 170.35 182.408 170.278 182.048 170.278C181.7 170.278 181.37 170.362 181.058 170.53C180.758 170.686 180.494 170.914 180.266 171.214C180.038 171.502 179.858 171.85 179.726 172.258C179.594 172.666 179.528 173.122 179.528 173.626ZM187.965 173.644C187.965 172.912 188.073 172.264 188.289 171.7C188.517 171.124 188.817 170.638 189.189 170.242C189.561 169.846 189.987 169.546 190.467 169.342C190.959 169.138 191.475 169.036 192.015 169.036C192.555 169.036 193.065 169.138 193.545 169.342C194.037 169.546 194.469 169.846 194.841 170.242C195.213 170.638 195.507 171.124 195.723 171.7C195.951 172.264 196.065 172.912 196.065 173.644C196.065 174.364 195.951 175.012 195.723 175.588C195.507 176.152 195.213 176.632 194.841 177.028C194.469 177.412 194.037 177.706 193.545 177.91C193.065 178.114 192.555 178.216 192.015 178.216C191.475 178.216 190.959 178.114 190.467 177.91C189.987 177.706 189.561 177.412 189.189 177.028C188.817 176.632 188.517 176.152 188.289 175.588C188.073 175.012 187.965 174.364 187.965 173.644ZM189.495 173.644C189.495 174.148 189.555 174.604 189.675 175.012C189.795 175.42 189.963 175.774 190.179 176.074C190.407 176.362 190.677 176.59 190.989 176.758C191.301 176.914 191.643 176.992 192.015 176.992C192.387 176.992 192.729 176.914 193.041 176.758C193.353 176.59 193.617 176.362 193.833 176.074C194.061 175.774 194.235 175.42 194.355 175.012C194.475 174.604 194.535 174.148 194.535 173.644C194.535 173.14 194.475 172.684 194.355 172.276C194.235 171.856 194.061 171.496 193.833 171.196C193.617 170.896 193.353 170.668 193.041 170.512C192.729 170.344 192.387 170.26 192.015 170.26C191.643 170.26 191.301 170.344 190.989 170.512C190.677 170.668 190.407 170.896 190.179 171.196C189.963 171.496 189.795 171.856 189.675 172.276C189.555 172.684 189.495 173.14 189.495 173.644ZM197.721 173.644C197.721 172.912 197.835 172.264 198.063 171.7C198.291 171.124 198.597 170.638 198.981 170.242C199.365 169.846 199.809 169.546 200.313 169.342C200.829 169.138 201.369 169.036 201.933 169.036C202.509 169.036 203.001 169.144 203.409 169.36C203.829 169.564 204.189 169.804 204.489 170.08L203.751 171.034C203.487 170.806 203.211 170.62 202.923 170.476C202.647 170.332 202.335 170.26 201.987 170.26C201.591 170.26 201.225 170.344 200.889 170.512C200.553 170.668 200.265 170.896 200.025 171.196C199.785 171.496 199.593 171.856 199.449 172.276C199.317 172.684 199.251 173.14 199.251 173.644C199.251 174.148 199.317 174.604 199.449 175.012C199.581 175.42 199.761 175.774 199.989 176.074C200.229 176.362 200.517 176.59 200.853 176.758C201.189 176.914 201.555 176.992 201.951 176.992C202.371 176.992 202.749 176.908 203.085 176.74C203.433 176.56 203.739 176.35 204.003 176.11L204.669 177.082C204.273 177.43 203.829 177.706 203.337 177.91C202.857 178.114 202.353 178.216 201.825 178.216C201.249 178.216 200.709 178.114 200.205 177.91C199.701 177.706 199.263 177.412 198.891 177.028C198.531 176.632 198.243 176.152 198.027 175.588C197.823 175.012 197.721 174.364 197.721 173.644ZM206.83 170.458H205.534V169.342L206.902 169.252L207.082 166.804H208.324V169.252H210.682V170.458H208.324V175.318C208.324 175.858 208.42 176.278 208.612 176.578C208.816 176.866 209.17 177.01 209.674 177.01C209.83 177.01 209.998 176.986 210.178 176.938C210.358 176.89 210.52 176.836 210.664 176.776L210.952 177.892C210.712 177.976 210.448 178.048 210.16 178.108C209.884 178.18 209.608 178.216 209.332 178.216C208.864 178.216 208.468 178.144 208.144 178C207.832 177.856 207.574 177.658 207.37 177.406C207.178 177.154 207.04 176.848 206.956 176.488C206.872 176.128 206.83 175.732 206.83 175.3V170.458ZM211.836 173.644C211.836 172.912 211.944 172.264 212.16 171.7C212.388 171.124 212.688 170.638 213.06 170.242C213.432 169.846 213.858 169.546 214.338 169.342C214.83 169.138 215.346 169.036 215.886 169.036C216.426 169.036 216.936 169.138 217.416 169.342C217.908 169.546 218.34 169.846 218.712 170.242C219.084 170.638 219.378 171.124 219.594 171.7C219.822 172.264 219.936 172.912 219.936 173.644C219.936 174.364 219.822 175.012 219.594 175.588C219.378 176.152 219.084 176.632 218.712 177.028C218.34 177.412 217.908 177.706 217.416 177.91C216.936 178.114 216.426 178.216 215.886 178.216C215.346 178.216 214.83 178.114 214.338 177.91C213.858 177.706 213.432 177.412 213.06 177.028C212.688 176.632 212.388 176.152 212.16 175.588C211.944 175.012 211.836 174.364 211.836 173.644ZM213.366 173.644C213.366 174.148 213.426 174.604 213.546 175.012C213.666 175.42 213.834 175.774 214.05 176.074C214.278 176.362 214.548 176.59 214.86 176.758C215.172 176.914 215.514 176.992 215.886 176.992C216.258 176.992 216.6 176.914 216.912 176.758C217.224 176.59 217.488 176.362 217.704 176.074C217.932 175.774 218.106 175.42 218.226 175.012C218.346 174.604 218.406 174.148 218.406 173.644C218.406 173.14 218.346 172.684 218.226 172.276C218.106 171.856 217.932 171.496 217.704 171.196C217.488 170.896 217.224 170.668 216.912 170.512C216.6 170.344 216.258 170.26 215.886 170.26C215.514 170.26 215.172 170.344 214.86 170.512C214.548 170.668 214.278 170.896 214.05 171.196C213.834 171.496 213.666 171.856 213.546 172.276C213.426 172.684 213.366 173.14 213.366 173.644ZM222.24 169.252H223.464L223.59 170.836H223.644C223.944 170.284 224.304 169.846 224.724 169.522C225.156 169.198 225.624 169.036 226.128 169.036C226.476 169.036 226.788 169.096 227.064 169.216L226.776 170.512C226.632 170.464 226.5 170.428 226.38 170.404C226.26 170.38 226.11 170.368 225.93 170.368C225.558 170.368 225.168 170.518 224.76 170.818C224.364 171.118 224.016 171.64 223.716 172.384V178H222.24V169.252ZM231.471 173.644C231.471 172.912 231.579 172.264 231.795 171.7C232.023 171.124 232.323 170.638 232.695 170.242C233.067 169.846 233.493 169.546 233.973 169.342C234.465 169.138 234.981 169.036 235.521 169.036C236.061 169.036 236.571 169.138 237.051 169.342C237.543 169.546 237.975 169.846 238.347 170.242C238.719 170.638 239.013 171.124 239.229 171.7C239.457 172.264 239.571 172.912 239.571 173.644C239.571 174.364 239.457 175.012 239.229 175.588C239.013 176.152 238.719 176.632 238.347 177.028C237.975 177.412 237.543 177.706 237.051 177.91C236.571 178.114 236.061 178.216 235.521 178.216C234.981 178.216 234.465 178.114 233.973 177.91C233.493 177.706 233.067 177.412 232.695 177.028C232.323 176.632 232.023 176.152 231.795 175.588C231.579 175.012 231.471 174.364 231.471 173.644ZM233.001 173.644C233.001 174.148 233.061 174.604 233.181 175.012C233.301 175.42 233.469 175.774 233.685 176.074C233.913 176.362 234.183 176.59 234.495 176.758C234.807 176.914 235.149 176.992 235.521 176.992C235.893 176.992 236.235 176.914 236.547 176.758C236.859 176.59 237.123 176.362 237.339 176.074C237.567 175.774 237.741 175.42 237.861 175.012C237.981 174.604 238.041 174.148 238.041 173.644C238.041 173.14 237.981 172.684 237.861 172.276C237.741 171.856 237.567 171.496 237.339 171.196C237.123 170.896 236.859 170.668 236.547 170.512C236.235 170.344 235.893 170.26 235.521 170.26C235.149 170.26 234.807 170.344 234.495 170.512C234.183 170.668 233.913 170.896 233.685 171.196C233.469 171.496 233.301 171.856 233.181 172.276C233.061 172.684 233.001 173.14 233.001 173.644ZM241.874 169.252H243.098L243.224 170.836H243.278C243.578 170.284 243.938 169.846 244.358 169.522C244.79 169.198 245.258 169.036 245.762 169.036C246.11 169.036 246.422 169.096 246.698 169.216L246.41 170.512C246.266 170.464 246.134 170.428 246.014 170.404C245.894 170.38 245.744 170.368 245.564 170.368C245.192 170.368 244.802 170.518 244.394 170.818C243.998 171.118 243.65 171.64 243.35 172.384V178H241.874V169.252ZM251.753 169.252H252.977L253.103 170.512H253.157C253.541 170.092 253.955 169.744 254.399 169.468C254.855 169.18 255.347 169.036 255.875 169.036C256.547 169.036 257.069 169.186 257.441 169.486C257.825 169.774 258.107 170.182 258.287 170.71C258.743 170.206 259.199 169.804 259.655 169.504C260.123 169.192 260.627 169.036 261.167 169.036C262.067 169.036 262.733 169.324 263.165 169.9C263.609 170.476 263.831 171.328 263.831 172.456V178H262.355V172.654C262.355 171.826 262.223 171.232 261.959 170.872C261.695 170.5 261.287 170.314 260.735 170.314C260.075 170.314 259.343 170.764 258.539 171.664V178H257.063V172.654C257.063 171.826 256.931 171.232 256.667 170.872C256.403 170.5 255.989 170.314 255.425 170.314C254.765 170.314 254.033 170.764 253.229 171.664V178H251.753V169.252ZM266.029 173.644C266.029 172.924 266.137 172.282 266.353 171.718C266.581 171.142 266.875 170.656 267.235 170.26C267.607 169.864 268.027 169.564 268.495 169.36C268.963 169.144 269.449 169.036 269.953 169.036C270.505 169.036 270.997 169.132 271.429 169.324C271.873 169.516 272.239 169.792 272.527 170.152C272.827 170.512 273.055 170.944 273.211 171.448C273.367 171.952 273.445 172.516 273.445 173.14C273.445 173.464 273.427 173.734 273.391 173.95H267.487C267.547 174.898 267.835 175.648 268.351 176.2C268.879 176.752 269.563 177.028 270.403 177.028C270.823 177.028 271.207 176.968 271.555 176.848C271.915 176.716 272.257 176.548 272.581 176.344L273.103 177.316C272.719 177.556 272.293 177.766 271.825 177.946C271.357 178.126 270.823 178.216 270.223 178.216C269.635 178.216 269.083 178.114 268.567 177.91C268.063 177.694 267.619 177.394 267.235 177.01C266.863 176.614 266.569 176.134 266.353 175.57C266.137 175.006 266.029 174.364 266.029 173.644ZM272.149 172.978C272.149 172.078 271.957 171.394 271.573 170.926C271.201 170.446 270.673 170.206 269.989 170.206C269.677 170.206 269.377 170.272 269.089 170.404C268.813 170.524 268.561 170.704 268.333 170.944C268.105 171.172 267.913 171.46 267.757 171.808C267.613 172.144 267.517 172.534 267.469 172.978H272.149ZM274.977 173.644C274.977 172.936 275.079 172.3 275.283 171.736C275.499 171.16 275.781 170.674 276.129 170.278C276.477 169.882 276.879 169.576 277.335 169.36C277.791 169.144 278.271 169.036 278.775 169.036C279.279 169.036 279.717 169.126 280.089 169.306C280.461 169.486 280.839 169.732 281.223 170.044L281.151 168.55V165.184H282.645V178H281.421L281.295 176.974H281.241C280.893 177.31 280.491 177.604 280.035 177.856C279.591 178.096 279.111 178.216 278.595 178.216C277.491 178.216 276.609 177.82 275.949 177.028C275.301 176.236 274.977 175.108 274.977 173.644ZM276.507 173.626C276.507 174.682 276.717 175.504 277.137 176.092C277.557 176.68 278.151 176.974 278.919 176.974C279.327 176.974 279.711 176.878 280.071 176.686C280.431 176.482 280.791 176.176 281.151 175.768V171.196C280.779 170.86 280.419 170.626 280.071 170.494C279.735 170.35 279.387 170.278 279.027 170.278C278.679 170.278 278.349 170.362 278.037 170.53C277.737 170.686 277.473 170.914 277.245 171.214C277.017 171.502 276.837 171.85 276.705 172.258C276.573 172.666 276.507 173.122 276.507 173.626ZM286.347 167.452C286.059 167.452 285.813 167.362 285.609 167.182C285.417 167.002 285.321 166.774 285.321 166.498C285.321 166.21 285.417 165.982 285.609 165.814C285.813 165.634 286.059 165.544 286.347 165.544C286.635 165.544 286.875 165.634 287.067 165.814C287.271 165.982 287.373 166.21 287.373 166.498C287.373 166.774 287.271 167.002 287.067 167.182C286.875 167.362 286.635 167.452 286.347 167.452ZM285.591 169.252H287.067V178H285.591V169.252ZM289.373 173.644C289.373 172.912 289.487 172.264 289.715 171.7C289.943 171.124 290.249 170.638 290.633 170.242C291.017 169.846 291.461 169.546 291.965 169.342C292.481 169.138 293.021 169.036 293.585 169.036C294.161 169.036 294.653 169.144 295.061 169.36C295.481 169.564 295.841 169.804 296.141 170.08L295.403 171.034C295.139 170.806 294.863 170.62 294.575 170.476C294.299 170.332 293.987 170.26 293.639 170.26C293.243 170.26 292.877 170.344 292.541 170.512C292.205 170.668 291.917 170.896 291.677 171.196C291.437 171.496 291.245 171.856 291.101 172.276C290.969 172.684 290.903 173.14 290.903 173.644C290.903 174.148 290.969 174.604 291.101 175.012C291.233 175.42 291.413 175.774 291.641 176.074C291.881 176.362 292.169 176.59 292.505 176.758C292.841 176.914 293.207 176.992 293.603 176.992C294.023 176.992 294.401 176.908 294.737 176.74C295.085 176.56 295.391 176.35 295.655 176.11L296.321 177.082C295.925 177.43 295.481 177.706 294.989 177.91C294.509 178.114 294.005 178.216 293.477 178.216C292.901 178.216 292.361 178.114 291.857 177.91C291.353 177.706 290.915 177.412 290.543 177.028C290.183 176.632 289.895 176.152 289.679 175.588C289.475 175.012 289.373 174.364 289.373 173.644ZM297.622 175.732C297.622 174.772 298.048 174.04 298.9 173.536C299.764 173.02 301.132 172.66 303.004 172.456C303.004 172.18 302.974 171.91 302.914 171.646C302.866 171.382 302.77 171.148 302.626 170.944C302.494 170.74 302.314 170.578 302.086 170.458C301.858 170.326 301.564 170.26 301.204 170.26C300.688 170.26 300.208 170.356 299.764 170.548C299.332 170.74 298.942 170.956 298.594 171.196L298 170.17C298.408 169.906 298.906 169.654 299.494 169.414C300.082 169.162 300.73 169.036 301.438 169.036C302.506 169.036 303.28 169.366 303.76 170.026C304.24 170.674 304.48 171.544 304.48 172.636V178H303.256L303.13 176.956H303.094C302.674 177.304 302.218 177.604 301.726 177.856C301.246 178.096 300.736 178.216 300.196 178.216C299.452 178.216 298.834 178 298.342 177.568C297.862 177.136 297.622 176.524 297.622 175.732ZM299.08 175.624C299.08 176.128 299.224 176.488 299.512 176.704C299.812 176.92 300.178 177.028 300.61 177.028C301.03 177.028 301.426 176.932 301.798 176.74C302.182 176.536 302.584 176.242 303.004 175.858V173.428C302.272 173.524 301.654 173.638 301.15 173.77C300.646 173.902 300.238 174.058 299.926 174.238C299.626 174.418 299.41 174.628 299.278 174.868C299.146 175.096 299.08 175.348 299.08 175.624ZM307.265 165.184H308.741V176.344C308.741 176.584 308.783 176.752 308.867 176.848C308.951 176.944 309.047 176.992 309.155 176.992C309.203 176.992 309.245 176.992 309.281 176.992C309.329 176.992 309.395 176.98 309.479 176.956L309.677 178.072C309.581 178.12 309.467 178.156 309.335 178.18C309.203 178.204 309.035 178.216 308.831 178.216C308.267 178.216 307.865 178.048 307.625 177.712C307.385 177.376 307.265 176.884 307.265 176.236V165.184ZM73.8627 192.252H75.0867L75.2127 193.836H75.2667C75.5667 193.284 75.9267 192.846 76.3467 192.522C76.7787 192.198 77.2467 192.036 77.7507 192.036C78.0987 192.036 78.4107 192.096 78.6867 192.216L78.3987 193.512C78.2547 193.464 78.1227 193.428 78.0027 193.404C77.8827 193.38 77.7327 193.368 77.5527 193.368C77.1807 193.368 76.7907 193.518 76.3827 193.818C75.9867 194.118 75.6387 194.64 75.3387 195.384V201H73.8627V192.252ZM79.2792 196.644C79.2792 195.924 79.3872 195.282 79.6032 194.718C79.8312 194.142 80.1252 193.656 80.4852 193.26C80.8572 192.864 81.2772 192.564 81.7452 192.36C82.2132 192.144 82.6992 192.036 83.2032 192.036C83.7552 192.036 84.2472 192.132 84.6792 192.324C85.1232 192.516 85.4892 192.792 85.7772 193.152C86.0772 193.512 86.3052 193.944 86.4612 194.448C86.6172 194.952 86.6952 195.516 86.6952 196.14C86.6952 196.464 86.6772 196.734 86.6412 196.95H80.7372C80.7972 197.898 81.0852 198.648 81.6012 199.2C82.1292 199.752 82.8132 200.028 83.6532 200.028C84.0732 200.028 84.4572 199.968 84.8052 199.848C85.1652 199.716 85.5072 199.548 85.8312 199.344L86.3532 200.316C85.9692 200.556 85.5432 200.766 85.0752 200.946C84.6072 201.126 84.0732 201.216 83.4732 201.216C82.8852 201.216 82.3332 201.114 81.8172 200.91C81.3132 200.694 80.8692 200.394 80.4852 200.01C80.1132 199.614 79.8192 199.134 79.6032 198.57C79.3872 198.006 79.2792 197.364 79.2792 196.644ZM85.3992 195.978C85.3992 195.078 85.2072 194.394 84.8232 193.926C84.4512 193.446 83.9232 193.206 83.2392 193.206C82.9272 193.206 82.6272 193.272 82.3392 193.404C82.0632 193.524 81.8112 193.704 81.5832 193.944C81.3552 194.172 81.1632 194.46 81.0072 194.808C80.8632 195.144 80.7672 195.534 80.7192 195.978H85.3992ZM90.3329 201.738V204.69H88.8569V192.252H90.0809L90.2069 193.26H90.2609C90.6569 192.924 91.0889 192.636 91.5569 192.396C92.0369 192.156 92.5349 192.036 93.0509 192.036C93.6149 192.036 94.1129 192.144 94.5449 192.36C94.9769 192.564 95.3369 192.864 95.6249 193.26C95.9129 193.644 96.1289 194.112 96.2729 194.664C96.4289 195.204 96.5069 195.816 96.5069 196.5C96.5069 197.244 96.4049 197.91 96.2009 198.498C95.9969 199.074 95.7209 199.566 95.3729 199.974C95.0249 200.382 94.6229 200.694 94.1669 200.91C93.7109 201.114 93.2309 201.216 92.7269 201.216C92.3189 201.216 91.9109 201.126 91.5029 200.946C91.1069 200.766 90.7049 200.52 90.2969 200.208L90.3329 201.738ZM90.3329 199.056C90.7289 199.392 91.1129 199.632 91.4849 199.776C91.8569 199.908 92.1869 199.974 92.4749 199.974C92.8349 199.974 93.1649 199.896 93.4649 199.74C93.7769 199.572 94.0409 199.344 94.2569 199.056C94.4849 198.756 94.6589 198.39 94.7789 197.958C94.9109 197.526 94.9769 197.04 94.9769 196.5C94.9769 196.02 94.9349 195.582 94.8509 195.186C94.7669 194.79 94.6289 194.454 94.4369 194.178C94.2569 193.89 94.0169 193.668 93.7169 193.512C93.4289 193.356 93.0809 193.278 92.6729 193.278C92.3009 193.278 91.9229 193.38 91.5389 193.584C91.1669 193.788 90.7649 194.082 90.3329 194.466V199.056ZM98.8412 192.252H100.065L100.191 193.836H100.245C100.545 193.284 100.905 192.846 101.325 192.522C101.757 192.198 102.225 192.036 102.729 192.036C103.077 192.036 103.389 192.096 103.665 192.216L103.377 193.512C103.233 193.464 103.101 193.428 102.981 193.404C102.861 193.38 102.711 193.368 102.531 193.368C102.159 193.368 101.769 193.518 101.361 193.818C100.965 194.118 100.617 194.64 100.317 195.384V201H98.8412V192.252ZM104.258 196.644C104.258 195.924 104.366 195.282 104.582 194.718C104.81 194.142 105.104 193.656 105.464 193.26C105.836 192.864 106.256 192.564 106.724 192.36C107.192 192.144 107.678 192.036 108.182 192.036C108.734 192.036 109.226 192.132 109.658 192.324C110.102 192.516 110.468 192.792 110.756 193.152C111.056 193.512 111.284 193.944 111.44 194.448C111.596 194.952 111.674 195.516 111.674 196.14C111.674 196.464 111.656 196.734 111.62 196.95H105.716C105.776 197.898 106.064 198.648 106.58 199.2C107.108 199.752 107.792 200.028 108.632 200.028C109.052 200.028 109.436 199.968 109.784 199.848C110.144 199.716 110.486 199.548 110.81 199.344L111.332 200.316C110.948 200.556 110.522 200.766 110.054 200.946C109.586 201.126 109.052 201.216 108.452 201.216C107.864 201.216 107.312 201.114 106.796 200.91C106.292 200.694 105.848 200.394 105.464 200.01C105.092 199.614 104.798 199.134 104.582 198.57C104.366 198.006 104.258 197.364 104.258 196.644ZM110.378 195.978C110.378 195.078 110.186 194.394 109.802 193.926C109.43 193.446 108.902 193.206 108.218 193.206C107.906 193.206 107.606 193.272 107.318 193.404C107.042 193.524 106.79 193.704 106.562 193.944C106.334 194.172 106.142 194.46 105.986 194.808C105.842 195.144 105.746 195.534 105.698 195.978H110.378ZM113.601 199.02C113.985 199.332 114.375 199.584 114.771 199.776C115.179 199.968 115.647 200.064 116.175 200.064C116.751 200.064 117.183 199.932 117.471 199.668C117.759 199.404 117.903 199.08 117.903 198.696C117.903 198.468 117.843 198.27 117.723 198.102C117.603 197.934 117.447 197.79 117.255 197.67C117.075 197.538 116.865 197.424 116.625 197.328C116.385 197.232 116.145 197.136 115.905 197.04C115.593 196.932 115.281 196.812 114.969 196.68C114.657 196.536 114.375 196.368 114.123 196.176C113.883 195.972 113.685 195.738 113.529 195.474C113.373 195.21 113.295 194.892 113.295 194.52C113.295 194.172 113.361 193.848 113.493 193.548C113.637 193.236 113.835 192.972 114.087 192.756C114.351 192.528 114.669 192.354 115.041 192.234C115.413 192.102 115.833 192.036 116.301 192.036C116.853 192.036 117.357 192.132 117.813 192.324C118.281 192.516 118.683 192.75 119.019 193.026L118.317 193.962C118.017 193.734 117.705 193.548 117.381 193.404C117.057 193.26 116.703 193.188 116.319 193.188C115.767 193.188 115.359 193.314 115.095 193.566C114.843 193.818 114.717 194.112 114.717 194.448C114.717 194.652 114.771 194.832 114.879 194.988C114.987 195.132 115.131 195.264 115.311 195.384C115.491 195.492 115.695 195.594 115.923 195.69C116.163 195.774 116.409 195.864 116.661 195.96C116.973 196.08 117.285 196.206 117.597 196.338C117.921 196.47 118.209 196.638 118.461 196.842C118.713 197.034 118.917 197.274 119.073 197.562C119.241 197.85 119.325 198.198 119.325 198.606C119.325 198.966 119.253 199.302 119.109 199.614C118.977 199.926 118.773 200.202 118.497 200.442C118.233 200.682 117.897 200.868 117.489 201C117.093 201.144 116.637 201.216 116.121 201.216C115.497 201.216 114.903 201.102 114.339 200.874C113.775 200.646 113.283 200.358 112.863 200.01L113.601 199.02ZM120.728 196.644C120.728 195.924 120.836 195.282 121.052 194.718C121.28 194.142 121.574 193.656 121.934 193.26C122.306 192.864 122.726 192.564 123.194 192.36C123.662 192.144 124.148 192.036 124.652 192.036C125.204 192.036 125.696 192.132 126.128 192.324C126.572 192.516 126.938 192.792 127.226 193.152C127.526 193.512 127.754 193.944 127.91 194.448C128.066 194.952 128.144 195.516 128.144 196.14C128.144 196.464 128.126 196.734 128.09 196.95H122.186C122.246 197.898 122.534 198.648 123.05 199.2C123.578 199.752 124.262 200.028 125.102 200.028C125.522 200.028 125.906 199.968 126.254 199.848C126.614 199.716 126.956 199.548 127.28 199.344L127.802 200.316C127.418 200.556 126.992 200.766 126.524 200.946C126.056 201.126 125.522 201.216 124.922 201.216C124.334 201.216 123.782 201.114 123.266 200.91C122.762 200.694 122.318 200.394 121.934 200.01C121.562 199.614 121.268 199.134 121.052 198.57C120.836 198.006 120.728 197.364 120.728 196.644ZM126.848 195.978C126.848 195.078 126.656 194.394 126.272 193.926C125.9 193.446 125.372 193.206 124.688 193.206C124.376 193.206 124.076 193.272 123.788 193.404C123.512 193.524 123.26 193.704 123.032 193.944C122.804 194.172 122.612 194.46 122.456 194.808C122.312 195.144 122.216 195.534 122.168 195.978H126.848ZM130.306 192.252H131.53L131.656 193.512H131.71C132.13 193.092 132.568 192.744 133.024 192.468C133.492 192.18 134.032 192.036 134.644 192.036C135.568 192.036 136.24 192.324 136.66 192.9C137.092 193.476 137.308 194.328 137.308 195.456V201H135.832V195.654C135.832 194.826 135.7 194.232 135.436 193.872C135.172 193.5 134.752 193.314 134.176 193.314C133.72 193.314 133.318 193.428 132.97 193.656C132.622 193.884 132.226 194.22 131.782 194.664V201H130.306V192.252ZM140.402 193.458H139.106V192.342L140.474 192.252L140.654 189.804H141.896V192.252H144.254V193.458H141.896V198.318C141.896 198.858 141.992 199.278 142.184 199.578C142.388 199.866 142.742 200.01 143.246 200.01C143.402 200.01 143.57 199.986 143.75 199.938C143.93 199.89 144.092 199.836 144.236 199.776L144.524 200.892C144.284 200.976 144.02 201.048 143.732 201.108C143.456 201.18 143.18 201.216 142.904 201.216C142.436 201.216 142.04 201.144 141.716 201C141.404 200.856 141.146 200.658 140.942 200.406C140.75 200.154 140.612 199.848 140.528 199.488C140.444 199.128 140.402 198.732 140.402 198.3V193.458ZM145.483 198.732C145.483 197.772 145.909 197.04 146.761 196.536C147.625 196.02 148.993 195.66 150.865 195.456C150.865 195.18 150.835 194.91 150.775 194.646C150.727 194.382 150.631 194.148 150.487 193.944C150.355 193.74 150.175 193.578 149.947 193.458C149.719 193.326 149.425 193.26 149.065 193.26C148.549 193.26 148.069 193.356 147.625 193.548C147.193 193.74 146.803 193.956 146.455 194.196L145.861 193.17C146.269 192.906 146.767 192.654 147.355 192.414C147.943 192.162 148.591 192.036 149.299 192.036C150.367 192.036 151.141 192.366 151.621 193.026C152.101 193.674 152.341 194.544 152.341 195.636V201H151.117L150.991 199.956H150.955C150.535 200.304 150.079 200.604 149.587 200.856C149.107 201.096 148.597 201.216 148.057 201.216C147.313 201.216 146.695 201 146.203 200.568C145.723 200.136 145.483 199.524 145.483 198.732ZM146.941 198.624C146.941 199.128 147.085 199.488 147.373 199.704C147.673 199.92 148.039 200.028 148.471 200.028C148.891 200.028 149.287 199.932 149.659 199.74C150.043 199.536 150.445 199.242 150.865 198.858V196.428C150.133 196.524 149.515 196.638 149.011 196.77C148.507 196.902 148.099 197.058 147.787 197.238C147.487 197.418 147.271 197.628 147.139 197.868C147.007 198.096 146.941 198.348 146.941 198.624ZM155.378 193.458H154.082V192.342L155.45 192.252L155.63 189.804H156.872V192.252H159.23V193.458H156.872V198.318C156.872 198.858 156.968 199.278 157.16 199.578C157.364 199.866 157.718 200.01 158.222 200.01C158.378 200.01 158.546 199.986 158.726 199.938C158.906 199.89 159.068 199.836 159.212 199.776L159.5 200.892C159.26 200.976 158.996 201.048 158.708 201.108C158.432 201.18 158.156 201.216 157.88 201.216C157.412 201.216 157.016 201.144 156.692 201C156.38 200.856 156.122 200.658 155.918 200.406C155.726 200.154 155.588 199.848 155.504 199.488C155.42 199.128 155.378 198.732 155.378 198.3V193.458ZM161.964 190.452C161.676 190.452 161.43 190.362 161.226 190.182C161.034 190.002 160.938 189.774 160.938 189.498C160.938 189.21 161.034 188.982 161.226 188.814C161.43 188.634 161.676 188.544 161.964 188.544C162.252 188.544 162.492 188.634 162.684 188.814C162.888 188.982 162.99 189.21 162.99 189.498C162.99 189.774 162.888 190.002 162.684 190.182C162.492 190.362 162.252 190.452 161.964 190.452ZM161.208 192.252H162.684V201H161.208V192.252ZM164.378 192.252H165.908L167.564 197.22C167.696 197.652 167.828 198.084 167.96 198.516C168.104 198.948 168.242 199.374 168.374 199.794H168.446C168.578 199.374 168.71 198.948 168.842 198.516C168.974 198.084 169.106 197.652 169.238 197.22L170.894 192.252H172.352L169.256 201H167.528L164.378 192.252ZM173.322 196.644C173.322 195.924 173.43 195.282 173.646 194.718C173.874 194.142 174.168 193.656 174.528 193.26C174.9 192.864 175.32 192.564 175.788 192.36C176.256 192.144 176.742 192.036 177.246 192.036C177.798 192.036 178.29 192.132 178.722 192.324C179.166 192.516 179.532 192.792 179.82 193.152C180.12 193.512 180.348 193.944 180.504 194.448C180.66 194.952 180.738 195.516 180.738 196.14C180.738 196.464 180.72 196.734 180.684 196.95H174.78C174.84 197.898 175.128 198.648 175.644 199.2C176.172 199.752 176.856 200.028 177.696 200.028C178.116 200.028 178.5 199.968 178.848 199.848C179.208 199.716 179.55 199.548 179.874 199.344L180.396 200.316C180.012 200.556 179.586 200.766 179.118 200.946C178.65 201.126 178.116 201.216 177.516 201.216C176.928 201.216 176.376 201.114 175.86 200.91C175.356 200.694 174.912 200.394 174.528 200.01C174.156 199.614 173.862 199.134 173.646 198.57C173.43 198.006 173.322 197.364 173.322 196.644ZM179.442 195.978C179.442 195.078 179.25 194.394 178.866 193.926C178.494 193.446 177.966 193.206 177.282 193.206C176.97 193.206 176.67 193.272 176.382 193.404C176.106 193.524 175.854 193.704 175.626 193.944C175.398 194.172 175.206 194.46 175.05 194.808C174.906 195.144 174.81 195.534 174.762 195.978H179.442ZM190.481 189.39C190.157 189.246 189.827 189.174 189.491 189.174C188.675 189.174 188.267 189.738 188.267 190.866V192.252H190.121V193.458H188.267V201H186.791V193.458H185.603V192.342L186.791 192.252V190.866C186.791 189.966 186.995 189.258 187.403 188.742C187.823 188.226 188.471 187.968 189.347 187.968C189.623 187.968 189.881 187.998 190.121 188.058C190.373 188.106 190.601 188.172 190.805 188.256L190.481 189.39ZM190.971 196.644C190.971 195.912 191.079 195.264 191.295 194.7C191.523 194.124 191.823 193.638 192.195 193.242C192.567 192.846 192.993 192.546 193.473 192.342C193.965 192.138 194.481 192.036 195.021 192.036C195.561 192.036 196.071 192.138 196.551 192.342C197.043 192.546 197.475 192.846 197.847 193.242C198.219 193.638 198.513 194.124 198.729 194.7C198.957 195.264 199.071 195.912 199.071 196.644C199.071 197.364 198.957 198.012 198.729 198.588C198.513 199.152 198.219 199.632 197.847 200.028C197.475 200.412 197.043 200.706 196.551 200.91C196.071 201.114 195.561 201.216 195.021 201.216C194.481 201.216 193.965 201.114 193.473 200.91C192.993 200.706 192.567 200.412 192.195 200.028C191.823 199.632 191.523 199.152 191.295 198.588C191.079 198.012 190.971 197.364 190.971 196.644ZM192.501 196.644C192.501 197.148 192.561 197.604 192.681 198.012C192.801 198.42 192.969 198.774 193.185 199.074C193.413 199.362 193.683 199.59 193.995 199.758C194.307 199.914 194.649 199.992 195.021 199.992C195.393 199.992 195.735 199.914 196.047 199.758C196.359 199.59 196.623 199.362 196.839 199.074C197.067 198.774 197.241 198.42 197.361 198.012C197.481 197.604 197.541 197.148 197.541 196.644C197.541 196.14 197.481 195.684 197.361 195.276C197.241 194.856 197.067 194.496 196.839 194.196C196.623 193.896 196.359 193.668 196.047 193.512C195.735 193.344 195.393 193.26 195.021 193.26C194.649 193.26 194.307 193.344 193.995 193.512C193.683 193.668 193.413 193.896 193.185 194.196C192.969 194.496 192.801 194.856 192.681 195.276C192.561 195.684 192.501 196.14 192.501 196.644ZM201.374 192.252H202.598L202.724 193.836H202.778C203.078 193.284 203.438 192.846 203.858 192.522C204.29 192.198 204.758 192.036 205.262 192.036C205.61 192.036 205.922 192.096 206.198 192.216L205.91 193.512C205.766 193.464 205.634 193.428 205.514 193.404C205.394 193.38 205.244 193.368 205.064 193.368C204.692 193.368 204.302 193.518 203.894 193.818C203.498 194.118 203.15 194.64 202.85 195.384V201H201.374V192.252ZM210.821 198.732C210.821 197.772 211.247 197.04 212.099 196.536C212.963 196.02 214.331 195.66 216.203 195.456C216.203 195.18 216.173 194.91 216.113 194.646C216.065 194.382 215.969 194.148 215.825 193.944C215.693 193.74 215.513 193.578 215.285 193.458C215.057 193.326 214.763 193.26 214.403 193.26C213.887 193.26 213.407 193.356 212.963 193.548C212.531 193.74 212.141 193.956 211.793 194.196L211.199 193.17C211.607 192.906 212.105 192.654 212.693 192.414C213.281 192.162 213.929 192.036 214.637 192.036C215.705 192.036 216.479 192.366 216.959 193.026C217.439 193.674 217.679 194.544 217.679 195.636V201H216.455L216.329 199.956H216.293C215.873 200.304 215.417 200.604 214.925 200.856C214.445 201.096 213.935 201.216 213.395 201.216C212.651 201.216 212.033 201 211.541 200.568C211.061 200.136 210.821 199.524 210.821 198.732ZM212.279 198.624C212.279 199.128 212.423 199.488 212.711 199.704C213.011 199.92 213.377 200.028 213.809 200.028C214.229 200.028 214.625 199.932 214.997 199.74C215.381 199.536 215.783 199.242 216.203 198.858V196.428C215.471 196.524 214.853 196.638 214.349 196.77C213.845 196.902 213.437 197.058 213.125 197.238C212.825 197.418 212.609 197.628 212.477 197.868C212.345 198.096 212.279 198.348 212.279 198.624ZM220.23 199.02C220.614 199.332 221.004 199.584 221.4 199.776C221.808 199.968 222.276 200.064 222.804 200.064C223.38 200.064 223.812 199.932 224.1 199.668C224.388 199.404 224.532 199.08 224.532 198.696C224.532 198.468 224.472 198.27 224.352 198.102C224.232 197.934 224.076 197.79 223.884 197.67C223.704 197.538 223.494 197.424 223.254 197.328C223.014 197.232 222.774 197.136 222.534 197.04C222.222 196.932 221.91 196.812 221.598 196.68C221.286 196.536 221.004 196.368 220.752 196.176C220.512 195.972 220.314 195.738 220.158 195.474C220.002 195.21 219.924 194.892 219.924 194.52C219.924 194.172 219.99 193.848 220.122 193.548C220.266 193.236 220.464 192.972 220.716 192.756C220.98 192.528 221.298 192.354 221.67 192.234C222.042 192.102 222.462 192.036 222.93 192.036C223.482 192.036 223.986 192.132 224.442 192.324C224.91 192.516 225.312 192.75 225.648 193.026L224.946 193.962C224.646 193.734 224.334 193.548 224.01 193.404C223.686 193.26 223.332 193.188 222.948 193.188C222.396 193.188 221.988 193.314 221.724 193.566C221.472 193.818 221.346 194.112 221.346 194.448C221.346 194.652 221.4 194.832 221.508 194.988C221.616 195.132 221.76 195.264 221.94 195.384C222.12 195.492 222.324 195.594 222.552 195.69C222.792 195.774 223.038 195.864 223.29 195.96C223.602 196.08 223.914 196.206 224.226 196.338C224.55 196.47 224.838 196.638 225.09 196.842C225.342 197.034 225.546 197.274 225.702 197.562C225.87 197.85 225.954 198.198 225.954 198.606C225.954 198.966 225.882 199.302 225.738 199.614C225.606 199.926 225.402 200.202 225.126 200.442C224.862 200.682 224.526 200.868 224.118 201C223.722 201.144 223.266 201.216 222.75 201.216C222.126 201.216 221.532 201.102 220.968 200.874C220.404 200.646 219.912 200.358 219.492 200.01L220.23 199.02ZM227.771 199.02C228.155 199.332 228.545 199.584 228.941 199.776C229.349 199.968 229.817 200.064 230.345 200.064C230.921 200.064 231.353 199.932 231.641 199.668C231.929 199.404 232.073 199.08 232.073 198.696C232.073 198.468 232.013 198.27 231.893 198.102C231.773 197.934 231.617 197.79 231.425 197.67C231.245 197.538 231.035 197.424 230.795 197.328C230.555 197.232 230.315 197.136 230.075 197.04C229.763 196.932 229.451 196.812 229.139 196.68C228.827 196.536 228.545 196.368 228.293 196.176C228.053 195.972 227.855 195.738 227.699 195.474C227.543 195.21 227.465 194.892 227.465 194.52C227.465 194.172 227.531 193.848 227.663 193.548C227.807 193.236 228.005 192.972 228.257 192.756C228.521 192.528 228.839 192.354 229.211 192.234C229.583 192.102 230.003 192.036 230.471 192.036C231.023 192.036 231.527 192.132 231.983 192.324C232.451 192.516 232.853 192.75 233.189 193.026L232.487 193.962C232.187 193.734 231.875 193.548 231.551 193.404C231.227 193.26 230.873 193.188 230.489 193.188C229.937 193.188 229.529 193.314 229.265 193.566C229.013 193.818 228.887 194.112 228.887 194.448C228.887 194.652 228.941 194.832 229.049 194.988C229.157 195.132 229.301 195.264 229.481 195.384C229.661 195.492 229.865 195.594 230.093 195.69C230.333 195.774 230.579 195.864 230.831 195.96C231.143 196.08 231.455 196.206 231.767 196.338C232.091 196.47 232.379 196.638 232.631 196.842C232.883 197.034 233.087 197.274 233.243 197.562C233.411 197.85 233.495 198.198 233.495 198.606C233.495 198.966 233.423 199.302 233.279 199.614C233.147 199.926 232.943 200.202 232.667 200.442C232.403 200.682 232.067 200.868 231.659 201C231.263 201.144 230.807 201.216 230.291 201.216C229.667 201.216 229.073 201.102 228.509 200.874C227.945 200.646 227.453 200.358 227.033 200.01L227.771 199.02ZM236.302 190.452C236.014 190.452 235.768 190.362 235.564 190.182C235.372 190.002 235.276 189.774 235.276 189.498C235.276 189.21 235.372 188.982 235.564 188.814C235.768 188.634 236.014 188.544 236.302 188.544C236.59 188.544 236.83 188.634 237.022 188.814C237.226 188.982 237.328 189.21 237.328 189.498C237.328 189.774 237.226 190.002 237.022 190.182C236.83 190.362 236.59 190.452 236.302 190.452ZM235.546 192.252H237.022V201H235.546V192.252ZM239.742 199.02C240.126 199.332 240.516 199.584 240.912 199.776C241.32 199.968 241.788 200.064 242.316 200.064C242.892 200.064 243.324 199.932 243.612 199.668C243.9 199.404 244.044 199.08 244.044 198.696C244.044 198.468 243.984 198.27 243.864 198.102C243.744 197.934 243.588 197.79 243.396 197.67C243.216 197.538 243.006 197.424 242.766 197.328C242.526 197.232 242.286 197.136 242.046 197.04C241.734 196.932 241.422 196.812 241.11 196.68C240.798 196.536 240.516 196.368 240.264 196.176C240.024 195.972 239.826 195.738 239.67 195.474C239.514 195.21 239.436 194.892 239.436 194.52C239.436 194.172 239.502 193.848 239.634 193.548C239.778 193.236 239.976 192.972 240.228 192.756C240.492 192.528 240.81 192.354 241.182 192.234C241.554 192.102 241.974 192.036 242.442 192.036C242.994 192.036 243.498 192.132 243.954 192.324C244.422 192.516 244.824 192.75 245.16 193.026L244.458 193.962C244.158 193.734 243.846 193.548 243.522 193.404C243.198 193.26 242.844 193.188 242.46 193.188C241.908 193.188 241.5 193.314 241.236 193.566C240.984 193.818 240.858 194.112 240.858 194.448C240.858 194.652 240.912 194.832 241.02 194.988C241.128 195.132 241.272 195.264 241.452 195.384C241.632 195.492 241.836 195.594 242.064 195.69C242.304 195.774 242.55 195.864 242.802 195.96C243.114 196.08 243.426 196.206 243.738 196.338C244.062 196.47 244.35 196.638 244.602 196.842C244.854 197.034 245.058 197.274 245.214 197.562C245.382 197.85 245.466 198.198 245.466 198.606C245.466 198.966 245.394 199.302 245.25 199.614C245.118 199.926 244.914 200.202 244.638 200.442C244.374 200.682 244.038 200.868 243.63 201C243.234 201.144 242.778 201.216 242.262 201.216C241.638 201.216 241.044 201.102 240.48 200.874C239.916 200.646 239.424 200.358 239.004 200.01L239.742 199.02ZM247.769 193.458H246.473V192.342L247.841 192.252L248.021 189.804H249.263V192.252H251.621V193.458H249.263V198.318C249.263 198.858 249.359 199.278 249.551 199.578C249.755 199.866 250.109 200.01 250.613 200.01C250.769 200.01 250.937 199.986 251.117 199.938C251.297 199.89 251.459 199.836 251.603 199.776L251.891 200.892C251.651 200.976 251.387 201.048 251.099 201.108C250.823 201.18 250.547 201.216 250.271 201.216C249.803 201.216 249.407 201.144 249.083 201C248.771 200.856 248.513 200.658 248.309 200.406C248.117 200.154 247.979 199.848 247.895 199.488C247.811 199.128 247.769 198.732 247.769 198.3V193.458ZM252.851 198.732C252.851 197.772 253.277 197.04 254.129 196.536C254.993 196.02 256.361 195.66 258.233 195.456C258.233 195.18 258.203 194.91 258.143 194.646C258.095 194.382 257.999 194.148 257.855 193.944C257.723 193.74 257.543 193.578 257.315 193.458C257.087 193.326 256.793 193.26 256.433 193.26C255.917 193.26 255.437 193.356 254.993 193.548C254.561 193.74 254.171 193.956 253.823 194.196L253.229 193.17C253.637 192.906 254.135 192.654 254.723 192.414C255.311 192.162 255.959 192.036 256.667 192.036C257.735 192.036 258.509 192.366 258.989 193.026C259.469 193.674 259.709 194.544 259.709 195.636V201H258.485L258.359 199.956H258.323C257.903 200.304 257.447 200.604 256.955 200.856C256.475 201.096 255.965 201.216 255.425 201.216C254.681 201.216 254.063 201 253.571 200.568C253.091 200.136 252.851 199.524 252.851 198.732ZM254.309 198.624C254.309 199.128 254.453 199.488 254.741 199.704C255.041 199.92 255.407 200.028 255.839 200.028C256.259 200.028 256.655 199.932 257.027 199.74C257.411 199.536 257.813 199.242 258.233 198.858V196.428C257.501 196.524 256.883 196.638 256.379 196.77C255.875 196.902 255.467 197.058 255.155 197.238C254.855 197.418 254.639 197.628 254.507 197.868C254.375 198.096 254.309 198.348 254.309 198.624ZM262.494 192.252H263.718L263.844 193.512H263.898C264.318 193.092 264.756 192.744 265.212 192.468C265.68 192.18 266.22 192.036 266.832 192.036C267.756 192.036 268.428 192.324 268.848 192.9C269.28 193.476 269.496 194.328 269.496 195.456V201H268.02V195.654C268.02 194.826 267.888 194.232 267.624 193.872C267.36 193.5 266.94 193.314 266.364 193.314C265.908 193.314 265.506 193.428 265.158 193.656C264.81 193.884 264.414 194.22 263.97 194.664V201H262.494V192.252ZM271.689 196.644C271.689 195.912 271.803 195.264 272.031 194.7C272.259 194.124 272.565 193.638 272.949 193.242C273.333 192.846 273.777 192.546 274.281 192.342C274.797 192.138 275.337 192.036 275.901 192.036C276.477 192.036 276.969 192.144 277.377 192.36C277.797 192.564 278.157 192.804 278.457 193.08L277.719 194.034C277.455 193.806 277.179 193.62 276.891 193.476C276.615 193.332 276.303 193.26 275.955 193.26C275.559 193.26 275.193 193.344 274.857 193.512C274.521 193.668 274.233 193.896 273.993 194.196C273.753 194.496 273.561 194.856 273.417 195.276C273.285 195.684 273.219 196.14 273.219 196.644C273.219 197.148 273.285 197.604 273.417 198.012C273.549 198.42 273.729 198.774 273.957 199.074C274.197 199.362 274.485 199.59 274.821 199.758C275.157 199.914 275.523 199.992 275.919 199.992C276.339 199.992 276.717 199.908 277.053 199.74C277.401 199.56 277.707 199.35 277.971 199.11L278.637 200.082C278.241 200.43 277.797 200.706 277.305 200.91C276.825 201.114 276.321 201.216 275.793 201.216C275.217 201.216 274.677 201.114 274.173 200.91C273.669 200.706 273.231 200.412 272.859 200.028C272.499 199.632 272.211 199.152 271.995 198.588C271.791 198.012 271.689 197.364 271.689 196.644ZM279.512 196.644C279.512 195.924 279.62 195.282 279.836 194.718C280.064 194.142 280.358 193.656 280.718 193.26C281.09 192.864 281.51 192.564 281.978 192.36C282.446 192.144 282.932 192.036 283.436 192.036C283.988 192.036 284.48 192.132 284.912 192.324C285.356 192.516 285.722 192.792 286.01 193.152C286.31 193.512 286.538 193.944 286.694 194.448C286.85 194.952 286.928 195.516 286.928 196.14C286.928 196.464 286.91 196.734 286.874 196.95H280.97C281.03 197.898 281.318 198.648 281.834 199.2C282.362 199.752 283.046 200.028 283.886 200.028C284.306 200.028 284.69 199.968 285.038 199.848C285.398 199.716 285.74 199.548 286.064 199.344L286.586 200.316C286.202 200.556 285.776 200.766 285.308 200.946C284.84 201.126 284.306 201.216 283.706 201.216C283.118 201.216 282.566 201.114 282.05 200.91C281.546 200.694 281.102 200.394 280.718 200.01C280.346 199.614 280.052 199.134 279.836 198.57C279.62 198.006 279.512 197.364 279.512 196.644ZM285.632 195.978C285.632 195.078 285.44 194.394 285.056 193.926C284.684 193.446 284.156 193.206 283.472 193.206C283.16 193.206 282.86 193.272 282.572 193.404C282.296 193.524 282.044 193.704 281.816 193.944C281.588 194.172 281.396 194.46 281.24 194.808C281.096 195.144 281 195.534 280.952 195.978H285.632Z" fill="#193F78"/>
<g clip-path="url(#clip0)">
<path d="M140.719 389.577H147.869V396.727H155.013V403.872H119.295V396.727H126.439V382.433H140.734V389.577H140.719ZM233.586 453.86H240.72V446.715H233.586V453.86ZM147.864 389.577H155.008V382.433H147.864V389.577ZM247.855 453.86H255.005V446.715H247.855V453.86ZM162.158 461H176.438V453.855H162.158V461ZM226.436 461V453.855H219.286V461H226.436ZM197.867 461H205.012V446.71H197.867V461ZM140.719 368.148V375.293H162.148V368.148H140.719ZM133.584 375.288V368.143H119.29V382.433H126.434V375.288H133.584ZM155.008 360.998H105.01V311.005H155.008V360.998ZM147.864 318.15H112.145V353.859H147.864V318.15ZM119.29 446.715H140.714V425.286H119.29V446.715ZM190.717 439.566V446.715H197.872V439.566H190.717ZM140.719 325.295H119.295V346.714H140.719V325.295ZM255 311.005V361.003H205.002V311.005H255ZM247.855 318.15H212.146V353.859H247.855V318.15ZM105 410.992H155.003V460.99H105V410.992ZM112.15 453.86H147.869V418.141H112.15V453.86ZM112.15 368.148H105V403.867H112.15V368.148ZM205.002 403.857V410.992H212.146V403.857H205.002ZM183.572 432.431V425.286H176.433V432.436H162.153V446.731H176.433V453.875H183.572V439.581H190.722V432.436H183.572V432.431ZM162.158 339.579H176.438V332.424H162.158V339.579ZM219.291 396.722H233.591V403.867H240.73V382.443H233.591V368.148H226.436V389.577H205.022V396.727H212.166V403.872H219.311V396.727H219.291V396.722ZM226.436 418.141H219.286V410.992H212.141V425.286H190.717V432.436H205.017V446.731H212.161V453.875H219.306V439.581H247.87V432.436H226.446V418.141H226.436ZM226.436 418.141H233.591V403.857H226.436V418.141ZM169.293 418.141V410.992H176.428V403.857H183.567V396.712H190.717V382.418H212.141V368.123H204.997V375.268H197.852V346.699H190.707V332.404H197.852V311H190.707V325.29H183.562V311H162.138V325.29H169.283V318.145H176.418V332.424H183.562V353.854H190.707V360.998H183.562V375.288H176.418V360.998H169.283V353.859H162.138V368.148H169.283V375.293H162.138V396.727H169.283V382.433H176.418V396.727H169.283V403.872H162.138V425.286H176.418V418.141H169.293ZM247.855 425.286V418.141H233.576V425.286H247.855ZM240.71 325.295H219.291V346.714H240.71V325.295ZM183.572 418.141H197.872V410.992H190.717V403.857H183.567V418.141H183.572ZM197.867 403.857V396.712H190.712V403.857H197.867ZM240.71 375.288H255.005V368.143H240.71V375.288ZM247.855 432.431H255.005V425.286H247.855V432.431ZM247.855 389.577H255.005V382.433H247.855V389.577ZM183.572 353.859H176.433V361.003H183.572V353.859Z" fill="black"/>
</g>
<rect x="24.5" y="88.5" width="167" height="47" rx="7.5" fill="white" fill-opacity="0.9" stroke="white"/>
<path d="M50.1206 115.072C50.4939 115.392 50.9046 115.653 51.3526 115.856C51.8112 116.059 52.2592 116.16 52.6966 116.16C53.1872 116.16 53.5499 116.069 53.7846 115.888C54.0299 115.707 54.1526 115.461 54.1526 115.152C54.1526 114.992 54.1152 114.853 54.0406 114.736C53.9766 114.619 53.8752 114.517 53.7366 114.432C53.6086 114.336 53.4486 114.251 53.2566 114.176C53.0752 114.091 52.8726 114 52.6486 113.904L51.2886 113.328C51.0219 113.221 50.7606 113.083 50.5046 112.912C50.2592 112.741 50.0352 112.544 49.8326 112.32C49.6406 112.085 49.4859 111.819 49.3686 111.52C49.2512 111.211 49.1926 110.864 49.1926 110.48C49.1926 110.053 49.2832 109.653 49.4646 109.28C49.6459 108.896 49.9019 108.565 50.2326 108.288C50.5632 108 50.9526 107.776 51.4006 107.616C51.8592 107.456 52.3606 107.376 52.9046 107.376C53.5126 107.376 54.1099 107.493 54.6966 107.728C55.2939 107.963 55.8166 108.304 56.2646 108.752L55.0646 110.24C54.7232 109.973 54.3819 109.771 54.0406 109.632C53.6992 109.483 53.3206 109.408 52.9046 109.408C52.4992 109.408 52.1739 109.493 51.9286 109.664C51.6939 109.824 51.5766 110.053 51.5766 110.352C51.5766 110.512 51.6139 110.651 51.6886 110.768C51.7739 110.875 51.8859 110.976 52.0246 111.072C52.1739 111.157 52.3446 111.243 52.5366 111.328C52.7286 111.403 52.9366 111.488 53.1606 111.584L54.5046 112.128C55.1446 112.384 55.6459 112.736 56.0086 113.184C56.3819 113.632 56.5686 114.224 56.5686 114.96C56.5686 115.397 56.4779 115.813 56.2966 116.208C56.1259 116.592 55.8699 116.933 55.5286 117.232C55.1979 117.52 54.7872 117.755 54.2966 117.936C53.8059 118.107 53.2512 118.192 52.6326 118.192C51.9499 118.192 51.2672 118.069 50.5846 117.824C49.9126 117.568 49.3099 117.189 48.7766 116.688L50.1206 115.072ZM58.1632 112.848C58.1632 111.984 58.2965 111.216 58.5632 110.544C58.8299 109.861 59.1872 109.285 59.6352 108.816C60.0939 108.347 60.6219 107.989 61.2192 107.744C61.8272 107.499 62.4672 107.376 63.1392 107.376C63.7899 107.376 64.3765 107.515 64.8992 107.792C65.4325 108.059 65.8752 108.373 66.2272 108.736L64.9312 110.192C64.6645 109.947 64.3925 109.755 64.1152 109.616C63.8485 109.477 63.5339 109.408 63.1712 109.408C62.8085 109.408 62.4672 109.488 62.1472 109.648C61.8379 109.797 61.5659 110.016 61.3312 110.304C61.0965 110.592 60.9099 110.944 60.7712 111.36C60.6432 111.776 60.5792 112.245 60.5792 112.768C60.5792 113.845 60.8085 114.683 61.2672 115.28C61.7259 115.867 62.3392 116.16 63.1072 116.16C63.5339 116.16 63.9072 116.075 64.2272 115.904C64.5472 115.733 64.8352 115.509 65.0912 115.232L66.3872 116.656C65.9499 117.168 65.4485 117.552 64.8832 117.808C64.3285 118.064 63.7259 118.192 63.0752 118.192C62.4032 118.192 61.7685 118.08 61.1712 117.856C60.5739 117.621 60.0512 117.28 59.6032 116.832C59.1552 116.384 58.8032 115.829 58.5472 115.168C58.2912 114.496 58.1632 113.723 58.1632 112.848ZM72.7077 113.68L72.4677 112.72C72.3184 112.197 72.1744 111.643 72.0357 111.056C71.897 110.469 71.7584 109.904 71.6197 109.36H71.5557C71.4277 109.915 71.2944 110.485 71.1557 111.072C71.0277 111.648 70.889 112.197 70.7397 112.72L70.4837 113.68H72.7077ZM73.1877 115.52H70.0037L69.3637 118H66.9637L70.2277 107.568H73.0597L76.3237 118H73.8277L73.1877 115.52ZM77.7836 107.568H80.1996L82.9196 112.752L83.9436 115.056H84.0076C83.9542 114.501 83.8902 113.883 83.8156 113.2C83.7516 112.517 83.7196 111.867 83.7196 111.248V107.568H85.9596V118H83.5436L80.8236 112.8L79.7996 110.528H79.7356C79.7889 111.104 79.8476 111.723 79.9116 112.384C79.9862 113.045 80.0236 113.685 80.0236 114.304V118H77.7836V107.568ZM94.3123 112.736C94.3123 113.856 94.5203 114.725 94.9363 115.344C95.3523 115.963 95.9176 116.272 96.6323 116.272C97.347 116.272 97.9123 115.963 98.3283 115.344C98.7443 114.725 98.9523 113.856 98.9523 112.736C98.9523 111.691 98.7443 110.875 98.3283 110.288C97.9123 109.701 97.347 109.408 96.6323 109.408C95.9176 109.408 95.3523 109.701 94.9363 110.288C94.5203 110.875 94.3123 111.691 94.3123 112.736ZM101.912 120.512C101.72 120.608 101.464 120.688 101.144 120.752C100.835 120.816 100.478 120.848 100.072 120.848C98.963 120.848 98.0243 120.592 97.2563 120.08C96.499 119.568 95.9336 118.901 95.5603 118.08C95.0056 117.963 94.499 117.76 94.0403 117.472C93.5923 117.173 93.2083 116.795 92.8883 116.336C92.5683 115.877 92.323 115.349 92.1523 114.752C91.9816 114.144 91.8963 113.472 91.8963 112.736C91.8963 111.883 92.0083 111.125 92.2323 110.464C92.467 109.792 92.7923 109.232 93.2083 108.784C93.6243 108.325 94.1203 107.979 94.6963 107.744C95.283 107.499 95.9283 107.376 96.6323 107.376C97.3363 107.376 97.9763 107.499 98.5523 107.744C99.139 107.979 99.6403 108.325 100.056 108.784C100.472 109.243 100.792 109.808 101.016 110.48C101.251 111.141 101.368 111.893 101.368 112.736C101.368 114.144 101.07 115.301 100.472 116.208C99.875 117.115 99.0696 117.712 98.0563 118C98.3016 118.363 98.6323 118.613 99.0483 118.752C99.4643 118.901 99.8963 118.976 100.344 118.976C100.568 118.976 100.776 118.955 100.968 118.912C101.171 118.88 101.347 118.837 101.496 118.784L101.912 120.512ZM106.002 112.368H107.218C107.836 112.368 108.306 112.24 108.626 111.984C108.956 111.717 109.122 111.328 109.122 110.816C109.122 110.304 108.956 109.947 108.626 109.744C108.306 109.541 107.836 109.44 107.218 109.44H106.002V112.368ZM109.298 118L107.298 114.24H106.002V118H103.65V107.568H107.41C107.964 107.568 108.482 107.621 108.962 107.728C109.452 107.835 109.879 108.016 110.242 108.272C110.604 108.517 110.892 108.848 111.106 109.264C111.319 109.68 111.426 110.197 111.426 110.816C111.426 111.584 111.255 112.219 110.914 112.72C110.583 113.211 110.135 113.579 109.57 113.824L111.938 118H109.298ZM116.981 112.848C116.981 111.984 117.115 111.216 117.381 110.544C117.648 109.861 118.005 109.285 118.453 108.816C118.912 108.347 119.44 107.989 120.037 107.744C120.645 107.499 121.285 107.376 121.957 107.376C122.608 107.376 123.195 107.515 123.717 107.792C124.251 108.059 124.693 108.373 125.045 108.736L123.749 110.192C123.483 109.947 123.211 109.755 122.933 109.616C122.667 109.477 122.352 109.408 121.989 109.408C121.627 109.408 121.285 109.488 120.965 109.648C120.656 109.797 120.384 110.016 120.149 110.304C119.915 110.592 119.728 110.944 119.589 111.36C119.461 111.776 119.397 112.245 119.397 112.768C119.397 113.845 119.627 114.683 120.085 115.28C120.544 115.867 121.157 116.16 121.925 116.16C122.352 116.16 122.725 116.075 123.045 115.904C123.365 115.733 123.653 115.509 123.909 115.232L125.205 116.656C124.768 117.168 124.267 117.552 123.701 117.808C123.147 118.064 122.544 118.192 121.893 118.192C121.221 118.192 120.587 118.08 119.989 117.856C119.392 117.621 118.869 117.28 118.421 116.832C117.973 116.384 117.621 115.829 117.365 115.168C117.109 114.496 116.981 113.723 116.981 112.848ZM130.756 118.192C130.052 118.192 129.407 118.069 128.82 117.824C128.244 117.568 127.748 117.205 127.332 116.736C126.916 116.267 126.591 115.696 126.356 115.024C126.132 114.352 126.02 113.589 126.02 112.736C126.02 111.883 126.132 111.125 126.356 110.464C126.591 109.792 126.916 109.232 127.332 108.784C127.748 108.325 128.244 107.979 128.82 107.744C129.407 107.499 130.052 107.376 130.756 107.376C131.46 107.376 132.1 107.499 132.676 107.744C133.263 107.979 133.764 108.325 134.18 108.784C134.596 109.243 134.916 109.808 135.14 110.48C135.375 111.141 135.492 111.893 135.492 112.736C135.492 113.589 135.375 114.352 135.14 115.024C134.916 115.696 134.596 116.267 134.18 116.736C133.764 117.205 133.263 117.568 132.676 117.824C132.1 118.069 131.46 118.192 130.756 118.192ZM130.756 116.16C131.471 116.16 132.036 115.856 132.452 115.248C132.868 114.629 133.076 113.792 133.076 112.736C133.076 111.691 132.868 110.875 132.452 110.288C132.036 109.701 131.471 109.408 130.756 109.408C130.041 109.408 129.476 109.701 129.06 110.288C128.644 110.875 128.436 111.691 128.436 112.736C128.436 113.792 128.644 114.629 129.06 115.248C129.476 115.856 130.041 116.16 130.756 116.16ZM137.774 107.568H140.718C141.518 107.568 142.238 107.669 142.878 107.872C143.518 108.075 144.067 108.389 144.526 108.816C144.984 109.232 145.336 109.765 145.582 110.416C145.827 111.067 145.95 111.84 145.95 112.736C145.95 113.632 145.827 114.411 145.582 115.072C145.336 115.733 144.99 116.283 144.542 116.72C144.094 117.147 143.555 117.467 142.926 117.68C142.307 117.893 141.614 118 140.846 118H137.774V107.568ZM140.574 116.096C141.022 116.096 141.427 116.037 141.79 115.92C142.152 115.803 142.462 115.616 142.718 115.36C142.974 115.093 143.171 114.747 143.31 114.32C143.459 113.893 143.534 113.365 143.534 112.736C143.534 112.117 143.459 111.6 143.31 111.184C143.171 110.757 142.974 110.421 142.718 110.176C142.462 109.92 142.152 109.739 141.79 109.632C141.427 109.525 141.022 109.472 140.574 109.472H140.126V116.096H140.574ZM148.25 107.568H154.778V109.552H150.602V111.648H154.154V113.616H150.602V116.016H154.938V118H148.25V107.568Z" fill="#193F78"/>
<path d="M180 88H328C332.418 88 336 91.5817 336 96V128C336 132.418 332.418 136 328 136H180V88Z" fill="#193F78"/>
<path d="M201.234 115.072C201.607 115.392 202.018 115.653 202.466 115.856C202.925 116.059 203.373 116.16 203.81 116.16C204.301 116.16 204.663 116.069 204.898 115.888C205.143 115.707 205.266 115.461 205.266 115.152C205.266 114.992 205.229 114.853 205.154 114.736C205.09 114.619 204.989 114.517 204.85 114.432C204.722 114.336 204.562 114.251 204.37 114.176C204.189 114.091 203.986 114 203.762 113.904L202.402 113.328C202.135 113.221 201.874 113.083 201.618 112.912C201.373 112.741 201.149 112.544 200.946 112.32C200.754 112.085 200.599 111.819 200.482 111.52C200.365 111.211 200.306 110.864 200.306 110.48C200.306 110.053 200.397 109.653 200.578 109.28C200.759 108.896 201.015 108.565 201.346 108.288C201.677 108 202.066 107.776 202.514 107.616C202.973 107.456 203.474 107.376 204.018 107.376C204.626 107.376 205.223 107.493 205.81 107.728C206.407 107.963 206.93 108.304 207.378 108.752L206.178 110.24C205.837 109.973 205.495 109.771 205.154 109.632C204.813 109.483 204.434 109.408 204.018 109.408C203.613 109.408 203.287 109.493 203.042 109.664C202.807 109.824 202.69 110.053 202.69 110.352C202.69 110.512 202.727 110.651 202.802 110.768C202.887 110.875 202.999 110.976 203.138 111.072C203.287 111.157 203.458 111.243 203.65 111.328C203.842 111.403 204.05 111.488 204.274 111.584L205.618 112.128C206.258 112.384 206.759 112.736 207.122 113.184C207.495 113.632 207.682 114.224 207.682 114.96C207.682 115.397 207.591 115.813 207.41 116.208C207.239 116.592 206.983 116.933 206.642 117.232C206.311 117.52 205.901 117.755 205.41 117.936C204.919 118.107 204.365 118.192 203.746 118.192C203.063 118.192 202.381 118.069 201.698 117.824C201.026 117.568 200.423 117.189 199.89 116.688L201.234 115.072ZM209.773 107.568H212.125V111.584H215.725V107.568H218.093V118H215.725V113.648H212.125V118H209.773V107.568ZM225.29 113.68L225.05 112.72C224.901 112.197 224.757 111.643 224.618 111.056C224.479 110.469 224.341 109.904 224.202 109.36H224.138C224.01 109.915 223.877 110.485 223.738 111.072C223.61 111.648 223.471 112.197 223.322 112.72L223.066 113.68H225.29ZM225.77 115.52H222.586L221.946 118H219.546L222.81 107.568H225.642L228.906 118H226.41L225.77 115.52ZM232.718 112.368H233.934C234.552 112.368 235.022 112.24 235.342 111.984C235.672 111.717 235.838 111.328 235.838 110.816C235.838 110.304 235.672 109.947 235.342 109.744C235.022 109.541 234.552 109.44 233.934 109.44H232.718V112.368ZM236.014 118L234.014 114.24H232.718V118H230.366V107.568H234.126C234.68 107.568 235.198 107.621 235.678 107.728C236.168 107.835 236.595 108.016 236.958 108.272C237.32 108.517 237.608 108.848 237.822 109.264C238.035 109.68 238.142 110.197 238.142 110.816C238.142 111.584 237.971 112.219 237.63 112.72C237.299 113.211 236.851 113.579 236.286 113.824L238.654 118H236.014ZM240.545 107.568H247.073V109.552H242.897V111.648H246.449V113.616H242.897V116.016H247.233V118H240.545V107.568ZM255.199 112.736C255.199 113.856 255.407 114.725 255.823 115.344C256.239 115.963 256.804 116.272 257.519 116.272C258.234 116.272 258.799 115.963 259.215 115.344C259.631 114.725 259.839 113.856 259.839 112.736C259.839 111.691 259.631 110.875 259.215 110.288C258.799 109.701 258.234 109.408 257.519 109.408C256.804 109.408 256.239 109.701 255.823 110.288C255.407 110.875 255.199 111.691 255.199 112.736ZM262.799 120.512C262.607 120.608 262.351 120.688 262.031 120.752C261.722 120.816 261.364 120.848 260.959 120.848C259.85 120.848 258.911 120.592 258.143 120.08C257.386 119.568 256.82 118.901 256.447 118.08C255.892 117.963 255.386 117.76 254.927 117.472C254.479 117.173 254.095 116.795 253.775 116.336C253.455 115.877 253.21 115.349 253.039 114.752C252.868 114.144 252.783 113.472 252.783 112.736C252.783 111.883 252.895 111.125 253.119 110.464C253.354 109.792 253.679 109.232 254.095 108.784C254.511 108.325 255.007 107.979 255.583 107.744C256.17 107.499 256.815 107.376 257.519 107.376C258.223 107.376 258.863 107.499 259.439 107.744C260.026 107.979 260.527 108.325 260.943 108.784C261.359 109.243 261.679 109.808 261.903 110.48C262.138 111.141 262.255 111.893 262.255 112.736C262.255 114.144 261.956 115.301 261.359 116.208C260.762 117.115 259.956 117.712 258.943 118C259.188 118.363 259.519 118.613 259.935 118.752C260.351 118.901 260.783 118.976 261.231 118.976C261.455 118.976 261.663 118.955 261.855 118.912C262.058 118.88 262.234 118.837 262.383 118.784L262.799 120.512ZM266.888 112.368H268.104C268.723 112.368 269.192 112.24 269.512 111.984C269.843 111.717 270.008 111.328 270.008 110.816C270.008 110.304 269.843 109.947 269.512 109.744C269.192 109.541 268.723 109.44 268.104 109.44H266.888V112.368ZM270.184 118L268.184 114.24H266.888V118H264.536V107.568H268.296C268.851 107.568 269.368 107.621 269.848 107.728C270.339 107.835 270.766 108.016 271.128 108.272C271.491 108.517 271.779 108.848 271.992 109.264C272.206 109.68 272.312 110.197 272.312 110.816C272.312 111.584 272.142 112.219 271.8 112.72C271.47 113.211 271.022 113.579 270.456 113.824L272.824 118H270.184ZM277.868 112.848C277.868 111.984 278.001 111.216 278.268 110.544C278.535 109.861 278.892 109.285 279.34 108.816C279.799 108.347 280.327 107.989 280.924 107.744C281.532 107.499 282.172 107.376 282.844 107.376C283.495 107.376 284.081 107.515 284.604 107.792C285.137 108.059 285.58 108.373 285.932 108.736L284.636 110.192C284.369 109.947 284.097 109.755 283.82 109.616C283.553 109.477 283.239 109.408 282.876 109.408C282.513 109.408 282.172 109.488 281.852 109.648C281.543 109.797 281.271 110.016 281.036 110.304C280.801 110.592 280.615 110.944 280.476 111.36C280.348 111.776 280.284 112.245 280.284 112.768C280.284 113.845 280.513 114.683 280.972 115.28C281.431 115.867 282.044 116.16 282.812 116.16C283.239 116.16 283.612 116.075 283.932 115.904C284.252 115.733 284.54 115.509 284.796 115.232L286.092 116.656C285.655 117.168 285.153 117.552 284.588 117.808C284.033 118.064 283.431 118.192 282.78 118.192C282.108 118.192 281.473 118.08 280.876 117.856C280.279 117.621 279.756 117.28 279.308 116.832C278.86 116.384 278.508 115.829 278.252 115.168C277.996 114.496 277.868 113.723 277.868 112.848ZM291.643 118.192C290.939 118.192 290.293 118.069 289.707 117.824C289.131 117.568 288.635 117.205 288.219 116.736C287.803 116.267 287.477 115.696 287.243 115.024C287.019 114.352 286.907 113.589 286.907 112.736C286.907 111.883 287.019 111.125 287.243 110.464C287.477 109.792 287.803 109.232 288.219 108.784C288.635 108.325 289.131 107.979 289.707 107.744C290.293 107.499 290.939 107.376 291.643 107.376C292.347 107.376 292.987 107.499 293.563 107.744C294.149 107.979 294.651 108.325 295.067 108.784C295.483 109.243 295.803 109.808 296.027 110.48C296.261 111.141 296.379 111.893 296.379 112.736C296.379 113.589 296.261 114.352 296.027 115.024C295.803 115.696 295.483 116.267 295.067 116.736C294.651 117.205 294.149 117.568 293.563 117.824C292.987 118.069 292.347 118.192 291.643 118.192ZM291.643 116.16C292.357 116.16 292.923 115.856 293.339 115.248C293.755 114.629 293.963 113.792 293.963 112.736C293.963 111.691 293.755 110.875 293.339 110.288C292.923 109.701 292.357 109.408 291.643 109.408C290.928 109.408 290.363 109.701 289.947 110.288C289.531 110.875 289.323 111.691 289.323 112.736C289.323 113.792 289.531 114.629 289.947 115.248C290.363 115.856 290.928 116.16 291.643 116.16ZM298.66 107.568H301.604C302.404 107.568 303.124 107.669 303.764 107.872C304.404 108.075 304.953 108.389 305.412 108.816C305.871 109.232 306.223 109.765 306.468 110.416C306.713 111.067 306.836 111.84 306.836 112.736C306.836 113.632 306.713 114.411 306.468 115.072C306.223 115.733 305.876 116.283 305.428 116.72C304.98 117.147 304.441 117.467 303.812 117.68C303.193 117.893 302.5 118 301.732 118H298.66V107.568ZM301.46 116.096C301.908 116.096 302.313 116.037 302.676 115.92C303.039 115.803 303.348 115.616 303.604 115.36C303.86 115.093 304.057 114.747 304.196 114.32C304.345 113.893 304.42 113.365 304.42 112.736C304.42 112.117 304.345 111.6 304.196 111.184C304.057 110.757 303.86 110.421 303.604 110.176C303.348 109.92 303.039 109.739 302.676 109.632C302.313 109.525 301.908 109.472 301.46 109.472H301.012V116.096H301.46ZM309.136 107.568H315.664V109.552H311.488V111.648H315.04V113.616H311.488V116.016H315.824V118H309.136V107.568Z" fill="white"/>
<path d="M0 24H360V80H0V24Z" fill="#D6EBFE"/>
<path d="M27 58H45V56H27V58ZM27 53H45V51H27V53ZM27 46V48H45V46H27Z" fill="#193F78"/>
<path d="M330 56V51C330 47.93 328.36 45.36 325.5 44.68V44C325.5 43.17 324.83 42.5 324 42.5C323.17 42.5 322.5 43.17 322.5 44V44.68C319.63 45.36 318 47.92 318 51V56L316 58V59H332V58L330 56ZM324 62C325.1 62 326 61.1 326 60H322C322 61.1 322.89 62 324 62Z" fill="#193F78"/>
<path d="M145.907 60.5958C144.871 61.5765 142.662 62.5557 140.274 62.5557C136.533 62.5557 135.046 60.4616 135 57.1641V38.6681C135 38.2669 135.27 38 135.676 38H138.11C138.471 38 138.785 38.2669 138.785 38.6681V43.3474H143.834C144.195 43.3474 144.51 43.6586 144.51 44.1054V45.6656C144.51 46.111 144.195 46.3794 143.834 46.3794H138.787V56.4061C138.787 57.9221 138.967 59.5251 141.04 59.5251C141.852 59.5251 143.069 59.214 144.15 58.1448C144.375 57.9221 144.872 57.8321 145.142 58.2333L146.043 59.7935C146.177 60.0605 146.177 60.3274 145.907 60.5958Z" fill="#193F78"/>
<path d="M162.468 45.1303L161.341 46.9575C161.16 47.2245 160.846 47.3144 160.529 47.136C159.943 46.6463 158.726 45.9768 157.194 45.9768C155.121 45.9768 152.912 47.5042 152.912 50.6162V61.5308C152.912 61.9319 152.598 62.1988 152.237 62.1988H149.803C149.397 62.1988 149.127 61.9319 149.127 61.5308V44.1054C149.127 43.66 149.397 43.3474 149.803 43.3474H151.29C151.74 43.3474 152.011 43.7043 152.191 44.1054L152.46 44.8191C153.542 43.7499 155.209 42.9919 157.463 42.9919C159.897 42.9919 161.339 43.7499 162.24 44.3295C162.604 44.5508 162.649 44.9076 162.468 45.1303Z" fill="#193F78"/>
<path d="M184.784 52.8402C184.784 47.3586 189.471 42.9919 194.88 42.9919C197.943 42.9919 200.738 44.1953 202.541 46.3351C202.722 46.6021 202.722 46.9147 202.497 47.1816L201.099 48.6077C200.829 48.8746 200.423 48.8746 200.198 48.562C199.253 47.3144 197.675 46.0225 194.971 46.0225C191.41 46.0225 188.48 48.9189 188.48 52.8402C188.48 56.5388 191.41 59.5708 194.971 59.5708C198.036 59.5708 199.839 57.6537 200.38 56.8971C200.514 56.6745 200.966 56.496 201.326 56.8072L202.588 58.0548C202.858 58.3218 202.858 58.6344 202.679 58.9013C200.966 61.2182 198.171 62.5557 194.881 62.5557C189.471 62.5557 184.784 58.2333 184.784 52.8402Z" fill="#193F78"/>
<path d="M223.94 44.2839L212.887 65.9132C212.796 66.0917 212.572 66.2701 212.3 66.2701H210.047C209.64 66.2701 209.191 65.869 209.461 65.3337L211.59 61.1297L203.702 44.2839C203.521 43.927 203.748 43.3489 204.288 43.3489H206.72C207.081 43.3489 207.307 43.5716 207.487 44.0169L213.481 57.3868L220.468 43.75C220.557 43.5273 220.782 43.3489 221.098 43.3489H223.307C223.713 43.3489 224.165 43.75 223.94 44.2839Z" fill="#193F78"/>
<path d="M183.417 59.7521L180.958 57.7193C183.363 53.6781 182.535 48.3964 178.777 45.2902C174.594 41.8342 168.369 42.3852 164.874 46.5207C161.378 50.6561 161.936 56.8115 166.118 60.2674C169.876 63.3722 175.281 63.2409 178.876 60.1832L181.335 62.2145C181.678 62.4986 182.189 62.4529 182.477 62.1132L183.519 60.8784C183.805 60.5415 183.76 60.0362 183.417 59.7521ZM179.461 53.3041L177.704 54.1149C177.43 54.242 177.32 54.5689 177.461 54.8329L178.374 56.5245C178.583 56.9114 178.244 57.3653 177.808 57.2811L175.905 56.9157C175.608 56.8586 175.323 57.0598 175.283 57.3553L175.016 59.2539C174.955 59.6893 174.411 59.8591 174.108 59.538L172.785 58.1362C172.579 57.9178 172.229 57.9149 172.02 58.1305L170.676 59.5123C170.368 59.8277 169.827 59.6493 169.772 59.2139L169.535 57.3111C169.498 57.0142 169.218 56.8086 168.92 56.8614L167.012 57.1969C166.574 57.274 166.244 56.8143 166.459 56.4303L167.399 54.753C167.544 54.4918 167.439 54.162 167.168 54.0321L165.424 53.1942C165.024 53.0029 165.03 52.439 165.431 52.2535L167.188 51.4427C167.462 51.3156 167.572 50.9887 167.43 50.7246L166.517 49.0345C166.307 48.6476 166.646 48.1937 167.082 48.2779L168.985 48.6433C169.283 48.7004 169.567 48.4992 169.608 48.2037L169.875 46.3051C169.935 45.8697 170.48 45.6999 170.783 46.021L172.105 47.4228C172.312 47.6412 172.661 47.6441 172.87 47.4285L174.214 46.0482C174.522 45.7313 175.063 45.9111 175.118 46.3465L175.355 48.2494C175.392 48.5463 175.673 48.7518 175.97 48.699L177.879 48.3636C178.316 48.2865 178.647 48.7461 178.431 49.1301L177.492 50.8074C177.346 51.0687 177.451 51.3984 177.723 51.5283L179.467 52.3662C179.868 52.5547 179.864 53.1185 179.461 53.3041Z" fill="#193F78"/>
<defs>
<clipPath id="clip0">
<rect x="105" y="311" width="150" height="150" fill="white"/>
</clipPath>
</defs>
</svg>
