<svg width="72" height="72" viewBox="0 0 72 72" fill="none" xmlns="http://www.w3.org/2000/svg">
<path d="M38.3916 8.91031C38.3916 10.2623 37.2705 11.3139 36 11.3139C34.7295 11.3139 33.6084 10.2623 33.6084 8.98543V4.40359C33.6084 3.05157 34.7295 2 36 2C37.3453 2 38.3916 3.12668 38.3916 4.40359V8.91031Z" fill="#193F78"/>
<path d="M26.5831 43.537C29.3074 43.537 31.5158 41.3175 31.5158 38.5796C31.5158 35.8417 29.3074 33.6222 26.5831 33.6222C23.8589 33.6222 21.6505 35.8417 21.6505 38.5796C21.6505 41.3175 23.8589 43.537 26.5831 43.537Z" fill="#193F78"/>
<path d="M50.3495 38.5796C50.3495 41.3175 48.1411 43.537 45.4168 43.537C42.6926 43.537 40.4842 41.3175 40.4842 38.5796C40.4842 35.8417 42.6926 33.6222 45.4168 33.6222C48.1411 33.6222 50.3495 35.8417 50.3495 38.5796Z" fill="#193F78"/>
<path d="M44.3705 48.4944H27.6295C26.5084 48.4944 25.6863 49.546 25.9853 50.5975C26.7326 53.602 28.9747 58.7096 36 58.7096C43.0253 58.7096 45.3421 53.5269 46.0147 50.5975C46.3137 49.4708 45.4916 48.4944 44.3705 48.4944Z" fill="#193F78"/>
<path fill-rule="evenodd" clip-rule="evenodd" d="M62.3074 35.0493H65.5211C68.8095 35.0493 71.5 37.7534 71.5 41.0583V49.4709C71.5 52.7758 68.8095 55.4798 65.5211 55.4798H62.3074V58.0336C62.3074 64.0426 57.4495 69 51.3958 69H20.6042C14.6253 69 9.69263 64.1177 9.69263 58.0336V55.4798H6.47895C3.19053 55.4798 0.5 52.7758 0.5 49.4709V41.0583C0.5 37.7534 3.19053 35.0493 6.47895 35.0493H9.69263V32.4955C9.69263 26.4865 14.5505 21.5291 20.6042 21.5291H33.6084V18.5998C33.6084 17.2478 34.7295 16.1962 36 16.1962C37.3453 16.1962 38.3916 17.3229 38.3916 18.5998V21.5291H51.3958C57.3747 21.5291 62.3074 26.4114 62.3074 32.4955V35.0493ZM5.20842 49.3957C5.20842 50.1469 5.80632 50.6726 6.47895 50.6726H9.69263V39.7814H6.47895C5.73158 39.7814 5.20842 40.3823 5.20842 41.0583V49.3957ZM51.3958 64.1928C54.8337 64.1928 57.5989 61.4137 57.5989 57.9585V32.4955C57.5989 29.0404 54.8337 26.2612 51.3958 26.2612H20.6042C17.1663 26.2612 14.4011 29.0404 14.4011 32.4955V57.9585C14.4011 61.4137 17.1663 64.1928 20.6042 64.1928H51.3958ZM65.5211 50.7478C66.2684 50.7478 66.7916 50.1469 66.7916 49.4709V41.0583C66.7916 40.3072 66.1937 39.7814 65.5211 39.7814H62.3074V50.7478H65.5211Z" fill="#193F78"/>
<path d="M22.6221 13.5673L26.5832 15.8206C26.9568 16.046 27.3305 16.1211 27.7789 16.1211C28.6011 16.1211 29.3484 15.6704 29.7968 14.9193C30.4695 13.7926 30.0958 12.3655 28.9 11.6895L24.9389 9.43611C23.8179 8.7601 22.3979 9.13566 21.7253 10.3375C21.0526 11.4641 21.5011 12.8913 22.6221 13.5673Z" fill="#193F78"/>
<path d="M45.4916 15.8206C45.1179 16.046 44.6695 16.1211 44.2958 16.1211C43.4737 16.1211 42.7263 15.7455 42.2779 14.9193C41.68 13.7926 42.0537 12.3655 43.1747 11.6895L47.1358 9.43611C48.2569 8.83521 49.6768 9.21078 50.3495 10.3375C50.9474 11.4641 50.5737 12.8913 49.4526 13.5673L45.4916 15.8206Z" fill="#193F78"/>
</svg>
