<svg width="72" height="72" viewBox="0 0 72 72" fill="none" xmlns="http://www.w3.org/2000/svg">
<path d="M54.1611 10.5906C49.5587 9.51656 45.1002 7.91182 40.8779 5.80944C39.3336 5.02944 37.826 4.17 36.3623 3.25278L36.0037 3C34.5399 3.76556 33.0103 4.50944 31.4881 5.21722C28.2953 6.71414 25.0157 8.02364 21.6665 9.13889C19.0056 10.0228 16.2927 10.7464 13.5428 11.3056C11.8522 11.645 10.147 11.9122 8.41981 12.1289C7.9441 12.1867 7.47571 12.2372 7 12.2806C7 15.2994 7 18.3039 7.17565 21.3156C7.30738 23.6989 7.50498 26.075 7.79773 28.4439C8.00997 30.2711 8.28808 32.0983 8.61741 33.9039C8.89552 35.4422 9.22486 36.9589 9.59811 38.4756C9.8689 39.5661 10.1616 40.6422 10.4837 41.7183C12.5182 48.435 15.7311 54.9783 20.8249 59.9544C21.683 60.7927 22.5895 61.5813 23.5401 62.3161C24.851 63.323 26.2438 64.2216 27.7044 65.0028C29.1888 65.7951 30.7386 66.4619 32.337 66.9961C33.2372 67.2994 34.1521 67.5522 35.0742 67.7833C35.5426 67.8989 35.5426 67.8989 36.011 68C36.7428 67.8411 37.4747 67.6606 38.2066 67.4439C39.6097 67.0169 40.9755 66.4783 42.2903 65.8333C43.475 65.2641 44.6171 64.6124 45.7081 63.8833C46.44 63.3922 47.1719 62.865 47.8305 62.3161C53.2463 57.9828 56.9642 51.8583 59.4964 45.4956C59.9843 44.3207 60.4161 43.1291 60.7918 41.9206C61.2675 40.4761 61.692 39.0317 62.0652 37.5872C62.5629 35.6733 62.9801 33.7378 63.3387 31.8094C63.7924 29.3467 64.1364 26.8622 64.3999 24.3706C64.7438 21.0556 64.9268 17.7189 65 14.3894V12.3022C61.3484 12.0028 57.7251 11.4306 54.1611 10.5906V10.5906ZM46.5351 31.0078C42.7221 34.785 38.4847 39.2844 34.5985 43.1483L33.2079 44.5278L31.6857 43.2928L25.5088 38.295L23.8621 36.9444L26.6212 33.6367L28.2898 34.9944L32.9079 38.7428C36.355 35.2761 40.0069 31.4194 43.4613 28.0033L44.9982 26.4867L48.0721 29.5056L46.5351 31.0078Z" fill="#193F78"/>
</svg>
