<svg width="72" height="72" viewBox="0 0 72 72" fill="none" xmlns="http://www.w3.org/2000/svg">
<path d="M25.0609 23.2023C26.3408 23.2023 27.3784 22.1786 27.3784 20.9157C27.3784 19.6528 26.3408 18.6291 25.0609 18.6291C23.781 18.6291 22.7434 19.6528 22.7434 20.9157C22.7434 22.1786 23.781 23.2023 25.0609 23.2023Z" fill="#193F78"/>
<path d="M36.8724 20.9157C36.8724 22.1786 35.8349 23.2023 34.555 23.2023C33.2751 23.2023 32.2375 22.1786 32.2375 20.9157C32.2375 19.6528 33.2751 18.6291 34.555 18.6291C35.8349 18.6291 36.8724 19.6528 36.8724 20.9157Z" fill="#193F78"/>
<path fill-rule="evenodd" clip-rule="evenodd" d="M36.5734 27.7756C36.6482 27.4067 36.4986 26.9642 36.1996 26.6691C35.9006 26.3741 35.5268 26.1528 35.153 26.1528H24.5376C24.0891 26.1528 23.7153 26.3003 23.491 26.6691C23.192 26.9642 23.1172 27.4067 23.1172 27.7756C23.5658 31.0948 26.4065 33.6027 29.8453 33.6027C33.2094 33.6765 36.1249 31.0948 36.5734 27.7756ZM24.9861 29.0295C24.7619 28.5869 24.6124 28.2181 24.5376 27.7018H35.0783C35.0035 28.1444 34.854 28.5869 34.6297 29.0295H24.9861Z" fill="#193F78"/>
<path fill-rule="evenodd" clip-rule="evenodd" d="M48.1607 43.3393C46.8151 42.4542 45.2452 41.8641 43.5258 41.6428L39.4889 41.1264L38.2928 37.5859C38.4423 37.4752 38.5731 37.383 38.704 37.2908C38.8348 37.1986 38.9656 37.1064 39.1151 36.9958C43.0772 36.4057 47.3383 35.5205 49.9548 34.1191C50.4781 33.824 50.5529 33.1602 50.2539 32.6438C48.983 30.5047 47.9364 27.333 47.3383 25.0464C47.7121 24.235 48.0112 23.2023 48.0112 21.8746C48.0112 19.1454 47.5626 17.5227 46.5908 16.6375C46.3665 16.4162 46.1422 16.2687 45.918 16.1212C45.1704 7.63857 38.2928 1 29.8453 1C21.3978 1 14.5202 7.63857 13.7727 16.1212C13.5484 16.2687 13.3241 16.4162 13.1746 16.5637C12.128 17.5227 11.6795 19.1454 11.6795 21.9484C11.6795 23.3498 11.9785 24.3087 12.3523 25.1939L12.3074 25.3415C11.6366 27.549 10.6797 30.6977 9.4368 32.7176C9.13777 33.2339 9.21253 33.8978 9.73582 34.1928C12.2775 35.6681 16.5387 36.4794 20.5008 37.0695C20.7998 37.2908 21.0241 37.4383 21.3231 37.5859L20.0522 41.1264L16.0901 41.6428C11.6047 42.2329 7.94167 45.4046 6.82032 49.7566L5.10092 56.1001C4.87665 56.8377 5.02616 57.5016 5.54946 58.0917C5.998 58.6818 6.67081 58.9768 7.34362 58.9768H37.919C37.8443 58.6818 37.8443 58.3867 37.8443 58.0917C37.8443 51.3793 42.1054 45.6259 48.1607 43.3393ZM17.062 26.5954C16.9872 26.079 16.5387 25.7102 16.0901 25.5627C15.8659 25.4889 14.296 24.9726 14.296 21.9484C14.296 19.2929 14.8193 18.6291 15.0435 18.4078H15.2678C15.3079 18.4935 15.3504 18.5834 15.3947 18.677C15.8458 19.631 16.484 20.9806 16.6882 22.3909C19.0013 19.1016 19.3951 15.8123 19.729 13.0234C19.7619 12.7478 19.7943 12.4771 19.828 12.2118L20.7998 14.5722C20.9493 15.0148 21.3231 15.236 21.7716 15.236H38.0685C38.5171 15.236 38.8909 14.941 39.0404 14.5722L40.0122 12.2118C40.0458 12.4767 40.0781 12.747 40.1111 13.0222L40.1112 13.0234C40.4451 15.8123 40.8388 19.1016 43.152 22.3909C43.349 20.9655 43.9497 19.7109 44.3969 18.7769C44.4588 18.6476 44.5178 18.5244 44.5724 18.4078C44.7219 18.4078 44.7966 18.4078 44.8714 18.4816C45.0209 18.6291 45.5442 19.2929 45.5442 21.9484C45.5442 24.8038 44.078 25.4235 43.7885 25.5458C43.7714 25.5531 43.7584 25.5586 43.75 25.5627C43.2267 25.7102 42.7782 26.079 42.7034 26.5954C41.2831 33.0864 35.9754 37.7334 29.7706 37.7334C23.6405 37.7334 18.3328 33.0864 17.062 26.5954ZM22.4444 42.4542L23.6405 38.9136C25.5842 39.7987 27.6774 40.3151 29.8453 40.3151C32.0133 40.3151 34.0317 39.7987 35.9754 38.9136L37.1715 42.4542C32.7608 45.6259 26.8551 45.6259 22.4444 42.4542Z" fill="#193F78"/>
<path fill-rule="evenodd" clip-rule="evenodd" d="M40.685 58.0179C40.685 50.863 46.5908 45.0358 53.8422 45.0358C61.1683 45.0358 67.0741 50.863 66.9993 58.0179C66.9993 65.1728 61.0935 71 53.8422 71C46.5908 71 40.685 65.1728 40.685 58.0179ZM48.6092 65.9842C50.1043 66.9431 51.8985 67.5332 53.8422 67.5332C58.0285 67.5332 61.5421 64.9515 62.9625 61.411L62.7382 60.7471V60.5996L62.8877 58.7555C62.8877 58.608 62.8129 58.4605 62.6634 58.4605L61.9906 58.313H61.9159C61.7663 58.3867 61.3926 58.3867 61.3178 58.3867L61.0188 58.4605C60.8693 58.5343 60.7197 58.7555 60.8693 58.9031L61.3926 59.2719C61.4673 59.4194 61.4673 59.5669 61.3926 59.6407L61.0935 59.9357C61.0188 60.0095 60.944 60.0095 60.8693 60.0095L59.4489 59.7882C59.2994 59.7882 59.2246 59.862 59.1499 59.9357L58.7013 60.8209V60.8946L58.4771 62.96V63.0337L57.879 64.509V64.5827L57.58 65.0253C57.5052 65.1728 57.3557 65.1728 57.2062 65.099L56.3839 64.509L56.3091 64.4352L55.5615 63.1075V63.0337L55.412 61.5585C55.412 61.4847 55.3373 61.411 55.2625 61.3372L54.6645 61.0421H54.5897L53.0946 60.8946C53.0198 60.8946 52.9451 60.8209 52.8703 60.7471L52.1228 59.1243V58.9031L52.6461 57.3541C52.6461 57.2803 52.7208 57.2065 52.7956 57.2065L54.3655 56.764H54.4402L55.7858 56.9115H55.8606L56.9072 57.3541C56.9072 57.4278 56.9819 57.4278 56.9819 57.4278L57.7295 58.0917C57.8043 58.1654 58.0285 58.1654 58.1033 58.0917L58.8508 57.4278C58.9256 57.3541 58.9256 57.1328 58.8508 57.059L58.5518 56.6902C58.4771 56.6902 58.4771 56.6164 58.4771 56.6164L58.178 55.8788C58.1033 55.7313 57.879 55.6575 57.7295 55.8051L57.6547 55.8788C57.6117 55.9212 57.5935 55.9393 57.5715 55.9469C57.5553 55.9526 57.537 55.9526 57.5052 55.9526L56.9819 56.0263C56.9445 56.0632 56.9072 56.0817 56.8698 56.1001C56.8324 56.1185 56.795 56.137 56.7577 56.1739C56.6829 56.3214 56.5334 56.3214 56.3839 56.2476C56.1596 56.1001 55.9353 55.9526 55.8606 55.8788L55.5615 55.7313H55.412L54.7392 55.8788C54.6645 55.8788 54.5897 55.8788 54.515 55.8051L54.1412 55.4363C53.9917 55.2887 54.0664 55.0674 54.2159 54.9937L54.7392 54.7724C54.814 54.6986 54.8887 54.6249 54.8887 54.4773L54.814 53.666C54.814 53.5922 54.8887 53.5184 54.9635 53.4447L55.6363 53.0021C55.6589 53.0021 55.6884 52.9953 55.7206 52.988C55.7947 52.971 55.8832 52.9507 55.9353 53.0021L56.4586 53.2234H56.6829L57.1314 53.0021H57.281L58.178 53.2234H59.0004C59.0253 53.1988 59.0585 53.1742 59.0917 53.1496C59.1582 53.1005 59.2246 53.0513 59.2246 53.0021L59.5236 52.0432C59.5984 51.8957 59.3741 51.6744 59.1499 51.7482L58.6266 51.9694H57.879C57.8042 51.9694 57.6547 51.8957 57.6547 51.7482V51.6744C57.58 51.4531 57.3557 51.3793 57.2062 51.5269L56.6081 52.0432C56.5334 52.117 56.3091 52.117 56.2344 51.9694L56.0101 51.6744C55.9353 51.6744 55.9353 51.6006 55.9353 51.5269L56.1596 49.6828V49.6091L56.0849 48.6502C55.412 48.4289 54.5897 48.3551 53.8422 48.3551C52.6461 48.3551 51.5247 48.5764 50.4781 48.9452C50.5529 49.019 50.6276 49.1665 50.6276 49.314L50.7024 51.0105L50.7771 51.8219C50.8519 52.1907 50.5529 52.4858 50.2538 52.4858L49.581 52.5595C49.3568 52.6333 49.1325 52.7808 49.0577 53.0759C48.983 53.3709 49.1325 53.666 49.4315 53.7397L49.9548 53.961C50.1791 54.1085 50.4034 54.3298 50.3286 54.6249L49.9548 57.4278C49.8801 57.5753 49.7305 57.7966 49.581 57.8704L48.6092 58.313C48.5344 58.3867 48.5344 58.3867 48.4597 58.3867L46.9646 58.7555H46.7403L45.6189 58.608C45.4694 58.608 45.2452 58.6818 45.0956 58.8293L44.9461 59.0506C44.6471 59.3456 44.8714 59.9357 45.3199 60.0095L47.6374 60.3783C47.6579 60.3884 47.6799 60.3986 47.7027 60.4091C47.8457 60.4751 48.0214 60.5562 48.0859 60.7471L49.1325 63.0337C49.2073 63.1075 49.2072 63.255 49.2072 63.4025L48.6092 65.9842Z" fill="#193F78"/>
</svg>
