<svg width="260" height="143" viewBox="0 0 260 143" fill="none" xmlns="http://www.w3.org/2000/svg">
<path d="M31.8639 97.1083C28.8357 100.03 22.3827 102.947 15.4069 102.947C4.47908 102.947 0.134963 96.7085 0 86.8847V31.782C0 30.587 0.788689 29.7917 1.97383 29.7917H9.08469C10.1391 29.7917 11.0585 30.587 11.0585 31.782V45.7225H25.8074C26.8618 45.7225 27.7813 46.6496 27.7813 47.9807V52.6289C27.7813 53.9558 26.8618 54.7553 25.8074 54.7553H11.0627V84.6265C11.0627 89.1429 11.5899 93.9187 17.6464 93.9187C20.0167 93.9187 23.5721 92.9916 26.7311 89.8064C27.389 89.1429 28.8399 88.875 29.6286 90.07L32.2603 94.7183C32.6526 95.5135 32.6526 96.3088 31.8639 97.1083Z" fill="white"/>
<path d="M80.2438 51.0342L76.9499 56.4777C76.4227 57.2729 75.5033 57.5409 74.5796 57.0093C72.8673 55.5506 69.3118 53.556 64.837 53.556C58.7805 53.556 52.3276 58.1065 52.3276 67.3774V99.8939C52.3276 101.089 51.4082 101.884 50.3538 101.884H43.2429C42.0578 101.884 41.2691 101.089 41.2691 99.8939V47.9807C41.2691 46.6539 42.0578 45.7225 43.2429 45.7225H47.5871C48.9029 45.7225 49.6958 46.7857 50.2188 47.9807L51.0075 50.1071C54.1665 46.9218 59.0378 44.6636 65.6215 44.6636C72.7323 44.6636 76.9457 46.9218 79.5775 48.6484C80.6403 49.3076 80.771 50.3707 80.2438 51.0342Z" fill="white"/>
<path d="M145.435 74.0032C145.435 57.6727 159.129 44.6636 174.929 44.6636C183.878 44.6636 192.044 48.2486 197.311 54.6235C197.838 55.4187 197.838 56.3501 197.181 57.1454L193.098 61.3938C192.309 62.1891 191.124 62.1891 190.466 61.2577C187.704 57.5409 183.094 53.6921 175.194 53.6921C164.794 53.6921 156.232 62.3209 156.232 74.0032C156.232 85.022 164.794 94.0548 175.194 94.0548C184.148 94.0548 189.416 88.3434 190.998 86.0895C191.39 85.426 192.71 84.8945 193.76 85.8215L197.446 89.5384C198.235 90.3337 198.235 91.265 197.712 92.0603C192.71 98.9625 184.545 102.947 174.933 102.947C159.129 102.947 145.435 90.07 145.435 74.0032Z" fill="white"/>
<path d="M259.824 48.5123L227.535 112.95C227.269 113.481 226.615 114.013 225.822 114.013H219.239C218.049 114.013 216.738 112.818 217.526 111.223L223.747 98.6989L200.702 48.5123C200.175 47.4492 200.837 45.7268 202.415 45.7268H209.521C210.576 45.7268 211.234 46.3902 211.761 47.7171L229.272 87.5482L249.681 46.9218C249.943 46.2584 250.601 45.7268 251.524 45.7268H257.977C259.162 45.7268 260.482 46.9218 259.824 48.5123Z" fill="white"/>
<path d="M141.441 94.5949L134.259 88.539C141.285 76.4995 138.864 60.7644 127.886 51.5105C115.668 41.2146 97.4813 42.8561 87.2705 55.1763C77.0597 67.4965 78.6877 85.8343 90.9061 96.1302C101.884 105.38 117.675 104.989 128.177 95.8792L135.359 101.931C136.363 102.777 137.856 102.641 138.696 101.629L141.741 97.9503C142.576 96.9467 142.445 95.4412 141.441 94.5949ZM129.885 75.3853L124.752 77.8009C123.951 78.1794 123.63 79.1532 124.044 79.94L126.709 84.9795C127.321 86.132 126.33 87.4843 125.056 87.2334L119.497 86.1447C118.628 85.9746 117.797 86.5743 117.679 87.4546L116.899 93.1107C116.722 94.4078 115.132 94.9139 114.246 93.957L110.383 89.7808C109.78 89.1301 108.759 89.1216 108.148 89.7638L104.221 93.8805C103.323 94.8203 101.741 94.2887 101.581 92.9916L100.889 87.3227C100.779 86.4382 99.9613 85.8258 99.0924 85.9831L93.5168 86.9825C92.2388 87.2122 91.273 85.8428 91.9014 84.6988L94.6471 79.7018C95.0731 78.9236 94.7652 77.9412 93.9723 77.5542L88.8774 75.0578C87.7092 74.488 87.726 72.8082 88.8985 72.2553L94.0313 69.8397C94.8327 69.4613 95.1532 68.4874 94.7399 67.7006L92.0701 62.6654C91.4586 61.5129 92.4497 60.1605 93.7234 60.4114L99.2822 61.5001C100.151 61.6702 100.982 61.0706 101.1 60.1903L101.88 54.5341C102.057 53.2371 103.647 52.731 104.533 53.6879L108.396 57.864C109 58.5147 110.02 58.5232 110.632 57.8811L114.558 53.7687C115.457 52.8245 117.038 53.3604 117.199 54.6575L117.89 60.3264C118 61.2109 118.818 61.8233 119.687 61.666L125.263 60.6666C126.541 60.4369 127.506 61.8063 126.878 62.9503L124.132 67.9473C123.706 68.7255 124.014 69.7079 124.807 70.0949L129.902 72.5913C131.074 73.1526 131.062 74.8325 129.885 75.3853Z" fill="white"/>
</svg>
